<svg width="182" height="39" viewBox="0 0 182 39" fill="none" xmlns="http://www.w3.org/2000/svg">
<path fill-rule="evenodd" clip-rule="evenodd" d="M21.8706 27.504C20.2818 28.4845 18.3992 29.052 16.381 29.052C14.2873 29.052 12.3398 28.4414 10.7147 27.3925L6.35309 31.6526C9.1242 33.751 12.6033 35 16.381 35C20.0842 35 23.5003 33.7998 26.244 31.7758L21.8706 27.504ZM29.5158 28.5624C31.5547 25.8947 32.7619 22.585 32.7619 19C32.7619 15.3102 31.4831 11.912 29.3348 9.20535L24.9732 13.4655C26.0471 15.0528 26.6723 16.9551 26.6723 19C26.6723 20.9389 26.1102 22.7496 25.1366 24.2851L29.5158 28.5624ZM10.97 10.448C12.5421 9.49699 14.3959 8.94803 16.381 8.94803C18.2903 8.94803 20.0781 9.45589 21.6107 10.3409L26.0036 6.05016C23.3019 4.13163 19.9767 3 16.381 3C12.7106 3 9.32203 4.17911 6.59086 6.17069L10.97 10.448ZM7.67448 13.6381L3.30098 9.3663C1.22883 12.0462 0 15.3829 0 19C0 22.5121 1.15857 25.76 3.12278 28.3989L7.51564 24.1081C6.6096 22.6112 6.08965 20.8649 6.08965 19C6.08965 17.0287 6.67063 15.1898 7.67448 13.6381Z" fill="#EAECF9"/>
<path d="M49.7761 17.908C49.7761 15.004 50.5201 12.772 52.0321 11.188C53.5441 9.58 55.5601 8.788 58.0321 8.788C60.0241 8.788 61.7041 9.292 63.0721 10.3C64.4401 11.284 65.2801 12.604 65.5441 14.212H62.8321C62.3761 12.316 60.5281 11.116 58.1041 11.116C56.4481 11.116 55.1041 11.62 54.0721 12.604C53.0401 13.588 52.5361 14.908 52.5361 16.516V19.252C52.5361 20.812 53.0161 22.06 54.0001 23.044C54.9841 24.028 56.2561 24.508 57.8641 24.508C59.4001 24.508 60.6481 24.028 61.6321 23.092C62.6161 22.156 63.1201 20.884 63.1441 19.324H57.2401V17.14H66.0481V26.5H63.9121L63.6721 23.62H63.5041C62.3281 25.66 60.1201 26.74 57.4561 26.74C55.0561 26.74 53.1841 25.948 51.8161 24.364C50.4481 22.78 49.7761 20.62 49.7761 17.908ZM67.0527 9.004H80.2047V11.332H74.9247V26.5H72.3327V11.332H67.0527V9.004ZM90.6953 26.5H88.0793V9.004H95.8313C99.5033 9.004 101.423 11.092 101.423 14.644C101.423 18.196 99.4553 20.284 95.8313 20.284H90.6953V26.5ZM90.6953 11.404V18.052H95.6393C97.5593 18.052 98.6633 17.02 98.6633 15.46V13.804C98.6633 12.268 97.5833 11.404 95.8553 11.404H90.6953ZM106.216 13.876H110.584V15.94H106.504V26.5H104.032V16.036C104.032 14.788 104.488 13.876 106.216 13.876ZM111.322 20.188C111.322 18.148 111.874 16.564 112.978 15.388C114.082 14.212 115.57 13.636 117.442 13.636C119.266 13.636 120.73 14.212 121.858 15.388C122.986 16.54 123.562 18.148 123.562 20.188C123.562 22.18 123.01 23.788 121.93 24.964C120.85 26.14 119.338 26.74 117.442 26.74C115.546 26.74 114.058 26.164 112.954 24.988C111.874 23.812 111.322 22.204 111.322 20.188ZM113.842 19.252V21.22C113.842 23.428 115.354 24.676 117.442 24.676C119.53 24.676 121.018 23.404 121.018 21.22V19.252C121.018 17.116 119.53 15.724 117.442 15.724C115.306 15.724 113.842 17.116 113.842 19.252ZM132.15 15.94H129.534V24.484H132.15V26.5H129.174C127.782 26.5 127.086 25.828 127.086 24.46V15.94H124.806V13.876H127.086V9.772H129.534V13.876H132.15V15.94ZM133.916 20.188C133.916 18.148 134.468 16.564 135.572 15.388C136.676 14.212 138.164 13.636 140.036 13.636C141.86 13.636 143.324 14.212 144.452 15.388C145.58 16.54 146.156 18.148 146.156 20.188C146.156 22.18 145.604 23.788 144.524 24.964C143.444 26.14 141.932 26.74 140.036 26.74C138.14 26.74 136.652 26.164 135.548 24.988C134.468 23.812 133.916 22.204 133.916 20.188ZM136.436 19.252V21.22C136.436 23.428 137.948 24.676 140.036 24.676C142.124 24.676 143.612 23.404 143.612 21.22V19.252C143.612 17.116 142.124 15.724 140.036 15.724C137.9 15.724 136.436 17.116 136.436 19.252ZM157.594 22.108H160.042C159.658 24.988 157.498 26.74 154.354 26.74C152.458 26.74 150.994 26.164 149.914 24.988C148.858 23.812 148.33 22.204 148.33 20.212C148.33 18.148 148.882 16.54 149.986 15.388C151.114 14.212 152.578 13.636 154.426 13.636C157.426 13.636 159.61 15.412 160.018 18.124H157.546C157.162 16.516 155.962 15.724 154.33 15.724C152.218 15.724 150.85 17.188 150.85 19.3V21.268C150.85 23.356 152.242 24.676 154.33 24.676C156.082 24.676 157.306 23.716 157.594 22.108ZM161.924 20.188C161.924 18.148 162.476 16.564 163.58 15.388C164.684 14.212 166.172 13.636 168.044 13.636C169.868 13.636 171.332 14.212 172.46 15.388C173.588 16.54 174.164 18.148 174.164 20.188C174.164 22.18 173.612 23.788 172.532 24.964C171.452 26.14 169.94 26.74 168.044 26.74C166.148 26.74 164.66 26.164 163.556 24.988C162.476 23.812 161.924 22.204 161.924 20.188ZM164.444 19.252V21.22C164.444 23.428 165.956 24.676 168.044 24.676C170.132 24.676 171.62 23.404 171.62 21.22V19.252C171.62 17.116 170.132 15.724 168.044 15.724C165.908 15.724 164.444 17.116 164.444 19.252ZM179.512 26.5H177.064V8.836H179.512V26.5Z" fill="#EAECF9"/>
</svg>
