<svg width="22" height="16" viewBox="0 0 22 16" fill="none" xmlns="http://www.w3.org/2000/svg">
<g style="mix-blend-mode:luminosity" clip-path="url(#clip0_552_4434)">
<mask id="mask0_552_4434" style="mask-type:alpha" maskUnits="userSpaceOnUse" x="0" y="0" width="22" height="16">
<path d="M19.5 0.482422H2.5C1.39543 0.482422 0.5 1.37785 0.5 2.48242V13.4824C0.5 14.587 1.39543 15.4824 2.5 15.4824H19.5C20.6046 15.4824 21.5 14.587 21.5 13.4824V2.48242C21.5 1.37785 20.6046 0.482422 19.5 0.482422Z" fill="white"/>
</mask>
<g mask="url(#mask0_552_4434)">
<path d="M19.5 0.482422H2.5C1.39543 0.482422 0.5 1.37785 0.5 2.48242V13.4824C0.5 14.587 1.39543 15.4824 2.5 15.4824H19.5C20.6046 15.4824 21.5 14.587 21.5 13.4824V2.48242C21.5 1.37785 20.6046 0.482422 19.5 0.482422Z" fill="#E70B17"/>
<path fill-rule="evenodd" clip-rule="evenodd" d="M14.502 9.13397L13.34 9.74397L13.562 8.45097L12.622 7.53397L13.922 7.34397L14.502 6.16797L15.082 7.34497L16.382 7.53497L15.442 8.44997L15.664 9.74297" fill="white"/>
<path fill-rule="evenodd" clip-rule="evenodd" d="M10 11.4824C11.933 11.4824 13.5 9.91542 13.5 7.98242C13.5 6.04942 11.933 4.48242 10 4.48242C8.067 4.48242 6.5 6.04942 6.5 7.98242C6.5 9.91542 8.067 11.4824 10 11.4824ZM11 10.4824C12.38 10.4824 13.5 9.36242 13.5 7.98242C13.5 6.60242 12.38 5.48242 11 5.48242C9.62 5.48242 8.5 6.60242 8.5 7.98242C8.5 9.36242 9.62 10.4824 11 10.4824Z" fill="white"/>
<path d="M19.5 0.982422H2.5C1.67157 0.982422 1 1.65399 1 2.48242V13.4824C1 14.3108 1.67157 14.9824 2.5 14.9824H19.5C20.3284 14.9824 21 14.3108 21 13.4824V2.48242C21 1.65399 20.3284 0.982422 19.5 0.982422Z" stroke="black" stroke-opacity="0.1"/>
</g>
</g>
<defs>
<clipPath id="clip0_552_4434">
<rect width="21" height="15" fill="white" transform="translate(0.5 0.482422)"/>
</clipPath>
</defs>
</svg>
