<svg width="20" height="21" viewBox="0 0 20 21" fill="none" xmlns="http://www.w3.org/2000/svg">
<path fill-rule="evenodd" clip-rule="evenodd" d="M12.3744 3.98242C12.7656 3.98242 13.0827 4.29947 13.0827 4.69068C13.0827 6.0594 14.0561 7.20456 15.3488 7.46721C15.7321 7.5452 15.9797 7.91898 15.9019 8.30233C15.8239 8.68568 15.4499 8.93325 15.0666 8.85547C14.3141 8.70247 13.6337 8.35078 13.0827 7.85757V13.8989C13.0827 15.855 11.497 17.4407 9.54094 17.4407C7.58488 17.4407 5.99921 15.855 5.99921 13.8989C5.99921 11.9429 7.58488 10.3572 9.54094 10.3572C9.93216 10.3572 10.2492 10.6743 10.2492 11.0655C10.2492 11.4567 9.93216 11.7737 9.54094 11.7737C8.36731 11.7737 7.41594 12.7251 7.41594 13.8987C7.41594 15.0724 8.36731 16.0237 9.54094 16.0237C10.7146 16.0237 11.6659 15.0724 11.6659 13.8987V4.69068C11.6659 4.29947 11.983 3.98242 12.3742 3.98242H12.3744Z" fill="#EBEDF7"/>
</svg>
