<svg width="20" height="21" viewBox="0 0 20 21" fill="none" xmlns="http://www.w3.org/2000/svg">
<path d="M11.0248 11.5256C11.0248 14.0349 9.00445 16.069 6.51218 16.069C4.01991 16.069 2 14.0355 2 11.5256C2 9.01564 4.02013 6.98242 6.51218 6.98242C9.00423 6.98242 11.0248 9.01629 11.0248 11.5256ZM15.9751 11.5256C15.9751 13.8878 14.9649 15.8023 13.7189 15.8023C12.4728 15.8023 11.4627 13.8869 11.4627 11.5256C11.4627 9.16422 12.4728 7.24882 13.7189 7.24882C14.9649 7.24882 15.9751 9.16422 15.9751 11.5256ZM17.9998 11.5256C17.9998 13.6419 17.6444 15.3575 17.2063 15.3575C16.7682 15.3575 16.4127 13.6413 16.4127 11.5256C16.4127 9.40989 16.7682 7.69369 17.2065 7.69369C17.6448 7.69369 17.9998 9.40945 17.9998 11.5256Z" stroke="#EBEDF7" stroke-width="0.919996" stroke-linejoin="round"/>
</svg>
