<svg width="147" height="28" viewBox="0 0 147 28" fill="none" xmlns="http://www.w3.org/2000/svg">
<path fill-rule="evenodd" clip-rule="evenodd" d="M18.6917 21.441C17.3339 22.2989 15.7249 22.7955 14 22.7955C12.2107 22.7955 10.5462 22.2612 9.15731 21.3434L5.42968 25.071C7.79801 26.9071 10.7714 28 14 28C17.165 28 20.0846 26.9498 22.4295 25.1788L18.6917 21.441ZM25.2257 22.3671C26.9683 20.0329 28 17.1369 28 14C28 10.7714 26.9071 7.79801 25.071 5.42968L21.3434 9.15731C22.2612 10.5462 22.7955 12.2107 22.7955 14C22.7955 15.6965 22.3151 17.2809 21.483 18.6245L25.2257 22.3671ZM9.37551 6.51697C10.7191 5.68487 12.3035 5.20453 14 5.20453C15.6318 5.20453 17.1598 5.6489 18.4696 6.42325L22.224 2.66889C19.915 0.990175 17.0731 0 14 0C10.8631 0 7.96708 1.03172 5.63289 2.77435L9.37551 6.51697ZM6.559 9.30831L2.82119 5.57051C1.05022 7.91539 0 10.835 0 14C0 17.0731 0.990175 19.915 2.66889 22.224L6.42325 18.4696C5.6489 17.1598 5.20453 15.6318 5.20453 14C5.20453 12.2751 5.70106 10.6661 6.559 9.30831Z" fill="white"/>
<path d="M46.8435 19.6756C45.6358 19.6756 44.5806 19.4012 43.6779 18.8522C42.7752 18.3033 42.0738 17.5408 41.5736 16.5649C41.0735 15.5768 40.8234 14.4302 40.8234 13.1249C40.8234 11.8074 41.0796 10.6485 41.5919 9.64825C42.1165 8.63575 42.8545 7.84893 43.806 7.28779C44.7697 6.71445 45.9103 6.42778 47.2278 6.42778C48.7282 6.42778 49.9725 6.78764 50.9606 7.50737C51.9487 8.22709 52.5891 9.22129 52.8819 10.49H50.2653C50.0701 9.89223 49.7163 9.42867 49.204 9.09931C48.6916 8.75774 48.0329 8.58696 47.2278 8.58696C45.9469 8.58696 44.9588 8.99562 44.2635 9.81293C43.5681 10.6181 43.2205 11.7281 43.2205 13.1432C43.2205 14.5583 43.562 15.6561 44.2452 16.4369C44.9405 17.2054 45.8798 17.5896 47.0631 17.5896C48.222 17.5896 49.0942 17.2786 49.6797 16.6564C50.2775 16.0221 50.6373 15.1926 50.7593 14.1679H47.5205V12.4113H53.1198V19.4561H50.9606L50.7776 17.7726C50.3628 18.3826 49.8444 18.8522 49.2223 19.1816C48.6001 19.5109 47.8072 19.6756 46.8435 19.6756ZM58.1964 19.4561V8.53206H54.4635V6.64735H64.2896V8.53206H60.5385V19.4561H58.1964ZM70.0188 19.4561V6.64735H74.758C75.7827 6.64735 76.6305 6.81814 77.3015 7.1597C77.9724 7.50127 78.4726 7.97092 78.8019 8.56866C79.1313 9.1664 79.296 9.83733 79.296 10.5815C79.296 11.289 79.1374 11.9416 78.8202 12.5394C78.5031 13.1249 78.009 13.6006 77.3381 13.9666C76.6671 14.3204 75.8071 14.4973 74.758 14.4973H72.361V19.4561H70.0188ZM72.361 12.5943H74.6116C75.429 12.5943 76.0145 12.4174 76.3683 12.0636C76.7342 11.6976 76.9172 11.2036 76.9172 10.5815C76.9172 9.94712 76.7342 9.45307 76.3683 9.09931C76.0145 8.73334 75.429 8.55036 74.6116 8.55036H72.361V12.5943ZM80.8956 19.4561V10.3802H82.9816L83.2012 12.0819C83.5306 11.4964 83.9758 11.0328 84.537 10.6912C85.1103 10.3375 85.7812 10.1606 86.5498 10.1606V12.6308H85.891C85.3787 12.6308 84.9212 12.7101 84.5187 12.8687C84.1161 13.0273 83.7989 13.3018 83.5672 13.6921C83.3476 14.0825 83.2378 14.6253 83.2378 15.3207V19.4561H80.8956ZM92.1617 19.6756C91.2834 19.6756 90.4905 19.4744 89.783 19.0718C89.0876 18.6692 88.5326 18.1142 88.1178 17.4067C87.7153 16.6869 87.514 15.8574 87.514 14.9181C87.514 13.9788 87.7214 13.1554 88.1361 12.4479C88.5509 11.7281 89.1059 11.167 89.8013 10.7644C90.5088 10.3619 91.3017 10.1606 92.18 10.1606C93.0461 10.1606 93.8268 10.3619 94.5222 10.7644C95.2297 11.167 95.7847 11.7281 96.1873 12.4479C96.6021 13.1554 96.8094 13.9788 96.8094 14.9181C96.8094 15.8574 96.6021 16.6869 96.1873 17.4067C95.7847 18.1142 95.2297 18.6692 94.5222 19.0718C93.8146 19.4744 93.0278 19.6756 92.1617 19.6756ZM92.1617 17.6445C92.7716 17.6445 93.3023 17.4189 93.7536 16.9675C94.205 16.504 94.4307 15.8208 94.4307 14.9181C94.4307 14.0154 94.205 13.3384 93.7536 12.887C93.3023 12.4235 92.7777 12.1917 92.18 12.1917C91.5579 12.1917 91.0211 12.4235 90.5698 12.887C90.1306 13.3384 89.911 14.0154 89.911 14.9181C89.911 15.8208 90.1306 16.504 90.5698 16.9675C91.0211 17.4189 91.5518 17.6445 92.1617 17.6445ZM102.407 19.4561C101.456 19.4561 100.693 19.2243 100.12 18.7607C99.5465 18.2972 99.2598 17.4738 99.2598 16.2905V12.3381H97.7045V10.3802H99.2598L99.5343 7.94652H101.602V10.3802H104.054V12.3381H101.602V16.3088C101.602 16.7479 101.693 17.0529 101.876 17.2237C102.072 17.3823 102.401 17.4616 102.865 17.4616H103.999V19.4561H102.407ZM110.005 19.6756C109.126 19.6756 108.333 19.4744 107.626 19.0718C106.93 18.6692 106.375 18.1142 105.961 17.4067C105.558 16.6869 105.357 15.8574 105.357 14.9181C105.357 13.9788 105.564 13.1554 105.979 12.4479C106.394 11.7281 106.949 11.167 107.644 10.7644C108.352 10.3619 109.145 10.1606 110.023 10.1606C110.889 10.1606 111.67 10.3619 112.365 10.7644C113.073 11.167 113.628 11.7281 114.03 12.4479C114.445 13.1554 114.652 13.9788 114.652 14.9181C114.652 15.8574 114.445 16.6869 114.03 17.4067C113.628 18.1142 113.073 18.6692 112.365 19.0718C111.657 19.4744 110.871 19.6756 110.005 19.6756ZM110.005 17.6445C110.614 17.6445 111.145 17.4189 111.596 16.9675C112.048 16.504 112.274 15.8208 112.274 14.9181C112.274 14.0154 112.048 13.3384 111.596 12.887C111.145 12.4235 110.621 12.1917 110.023 12.1917C109.401 12.1917 108.864 12.4235 108.413 12.887C107.973 13.3384 107.754 14.0154 107.754 14.9181C107.754 15.8208 107.973 16.504 108.413 16.9675C108.864 17.4189 109.395 17.6445 110.005 17.6445ZM121.01 19.6756C120.083 19.6756 119.265 19.4744 118.558 19.0718C117.85 18.6692 117.289 18.1081 116.874 17.3884C116.472 16.6686 116.271 15.8452 116.271 14.9181C116.271 13.991 116.472 13.1676 116.874 12.4479C117.289 11.7281 117.85 11.167 118.558 10.7644C119.265 10.3619 120.083 10.1606 121.01 10.1606C122.169 10.1606 123.145 10.4656 123.938 11.0755C124.73 11.6732 125.237 12.5028 125.456 13.5641H122.986C122.864 13.1249 122.62 12.7833 122.254 12.5394C121.9 12.2832 121.48 12.1551 120.992 12.1551C120.345 12.1551 119.796 12.3991 119.345 12.887C118.893 13.375 118.668 14.052 118.668 14.9181C118.668 15.7842 118.893 16.4613 119.345 16.9492C119.796 17.4372 120.345 17.6811 120.992 17.6811C121.48 17.6811 121.9 17.5591 122.254 17.3152C122.62 17.0712 122.864 16.7235 122.986 16.2722H125.456C125.237 17.2969 124.73 18.1203 123.938 18.7424C123.145 19.3646 122.169 19.6756 121.01 19.6756ZM131.707 19.6756C130.829 19.6756 130.036 19.4744 129.328 19.0718C128.633 18.6692 128.078 18.1142 127.663 17.4067C127.261 16.6869 127.059 15.8574 127.059 14.9181C127.059 13.9788 127.267 13.1554 127.682 12.4479C128.096 11.7281 128.651 11.167 129.347 10.7644C130.054 10.3619 130.847 10.1606 131.725 10.1606C132.592 10.1606 133.372 10.3619 134.068 10.7644C134.775 11.167 135.33 11.7281 135.733 12.4479C136.147 13.1554 136.355 13.9788 136.355 14.9181C136.355 15.8574 136.147 16.6869 135.733 17.4067C135.33 18.1142 134.775 18.6692 134.068 19.0718C133.36 19.4744 132.573 19.6756 131.707 19.6756ZM131.707 17.6445C132.317 17.6445 132.848 17.4189 133.299 16.9675C133.75 16.504 133.976 15.8208 133.976 14.9181C133.976 14.0154 133.75 13.3384 133.299 12.887C132.848 12.4235 132.323 12.1917 131.725 12.1917C131.103 12.1917 130.567 12.4235 130.115 12.887C129.676 13.3384 129.456 14.0154 129.456 14.9181C129.456 15.8208 129.676 16.504 130.115 16.9675C130.567 17.4189 131.097 17.6445 131.707 17.6445ZM138.266 19.4561V6.28139H140.608V19.4561H138.266Z" fill="white"/>
</svg>
