<svg width="190" height="48" viewBox="0 0 190 48" fill="none" xmlns="http://www.w3.org/2000/svg">
<g clip-path="url(#clip0_6828_24094)">
<g clip-path="url(#clip1_6828_24094)">
<path d="M101.62 28.0175C101.392 28.8543 101.05 29.6149 100.669 30.3376C100.555 30.5658 100.441 30.794 100.289 31.0222C99.6423 31.973 98.4633 32.6196 97.2462 32.6196C96.1432 32.6196 95.1163 32.1251 94.4317 31.3264C94.3937 31.2884 94.3557 31.2504 94.3176 31.2123C93.633 30.4136 92.6442 29.9192 91.5032 29.9192C91.1989 29.9192 90.9707 29.9572 90.7045 29.9953V37.716C89.8677 37.8682 88.993 37.9442 88.1182 37.9442C80.3214 37.9442 74.0078 31.5927 74.0078 23.7958C74.0078 15.999 80.2453 9.60938 88.0802 9.60938C89.5635 9.60938 91.0087 9.87561 92.3399 10.2559L88.1562 14.4776L90.7045 17.0259L99.6803 26.0018L100.061 26.3821L101.62 28.0175Z" fill="white"/>
<path d="M0.71875 27.7874L2.04992 27.1409C2.73452 28.7383 4.36995 29.613 6.42376 29.613C8.62969 29.613 10.3412 28.472 10.3412 26.4943C10.3412 24.3644 8.40149 23.9461 6.30966 23.4897C3.87552 22.9572 1.13712 22.2346 1.13712 19.0397C1.13712 16.5295 3.49519 14.5898 6.27162 14.5898C8.59166 14.5898 10.6835 15.6928 11.5202 17.8227L10.2271 18.4692C9.50446 16.9099 8.09723 16.0351 6.19556 16.0351C4.29389 16.0351 2.65845 17.2902 2.65845 18.9637C2.65845 21.0936 4.63619 21.5119 6.76606 21.9683C9.20019 22.5008 11.9006 23.2234 11.9006 26.4563C11.8245 29.3088 9.42839 31.0963 6.38572 31.0963C3.83749 31.0963 1.59352 29.9553 0.71875 27.7874Z" fill="white"/>
<path d="M14.5645 30.9465V14.8203H16.0858V22.1988H25.6322V14.8203H27.1535V30.9465H25.6322V23.606H16.0858V30.9084H14.5645V30.9465Z" fill="white"/>
<path d="M32.6268 14.8203V30.9465H31.1055V14.8203H32.6268Z" fill="white"/>
<path d="M35.3691 30.9461L37.6892 16.3032C37.8793 15.1622 38.7161 14.5156 39.743 14.5156C40.6558 14.5156 41.4545 14.972 41.7588 15.9989L45.2198 28.2457C45.2959 28.626 45.3719 28.7401 45.6001 28.7401C45.7903 28.7401 45.9044 28.588 45.9805 28.2457L49.4415 16.037C49.7458 15.0101 50.5445 14.5156 51.4573 14.5156C52.4461 14.5156 53.2829 15.1242 53.473 16.3412L55.5649 30.8319H54.0435L52.0658 16.7216C51.9897 16.1891 51.8756 15.8468 51.4192 15.8468C51.0769 15.8468 50.8487 16.1511 50.7346 16.6455L47.1595 28.9303C46.9693 29.6529 46.3228 30.0713 45.6382 30.0713C44.9916 30.0713 44.307 29.6909 44.1168 28.9683L40.5417 16.6075C40.3895 16.113 40.1994 15.8468 39.8951 15.8468C39.5528 15.8468 39.2866 16.1511 39.2105 16.7216L37.0426 30.87H35.4832V30.9461H35.3691Z" fill="white"/>
<path d="M61.2311 16.4944C61.6494 15.1632 62.6003 14.5547 63.8173 14.5547C64.9964 14.5547 65.9852 15.1632 66.4036 16.4944L70.9296 30.909H69.3702L68.001 26.4211L59.7097 26.4591L58.2644 30.909H56.7051L61.2311 16.4944ZM60.0901 25.0139H67.5446L65.0724 16.9888C64.8823 16.3423 64.4639 16 63.8554 16C63.2088 16 62.8285 16.3423 62.6383 16.9888L60.0901 25.0139Z" fill="white"/>
<path d="M104.742 22.846C104.742 18.2439 108.355 14.5547 112.767 14.5547C115.468 14.5547 117.864 15.9239 119.157 18.1298L117.94 18.8525C116.875 17.0649 114.935 15.9619 112.805 15.9619C109.306 15.9619 106.378 18.9666 106.378 22.8079C106.378 26.6873 109.268 29.692 112.805 29.692C114.935 29.692 116.875 28.627 117.94 26.8395L119.157 27.6001C117.864 29.8441 115.506 31.1753 112.767 31.1753C108.355 31.1753 104.742 27.5241 104.742 22.846Z" fill="white"/>
<path d="M123.758 16.4944C124.177 15.1632 125.128 14.5547 126.345 14.5547C127.562 14.5547 128.513 15.1632 128.931 16.4944L133.457 30.909H131.898L130.528 26.4211L122.237 26.4591L120.792 30.909H119.232L123.758 16.4944ZM122.579 25.0139H130.034L127.562 16.9888C127.372 16.3423 126.953 16 126.345 16C125.698 16 125.318 16.3423 125.128 16.9888L122.579 25.0139Z" fill="white"/>
<path d="M135.738 30.9465V14.8203H140.378C144.486 14.8203 147.3 16.6459 147.3 20.3732C147.3 24.2526 144.372 25.9641 140.416 25.9641H137.26V30.9465H135.738ZM137.26 16.2656V24.5188H140.378C143.345 24.5188 145.665 23.3398 145.665 20.3732C145.665 17.5207 143.497 16.2656 140.378 16.2656H137.26Z" fill="white"/>
<path d="M150.953 14.8203V30.9465H149.432V14.8203H150.953Z" fill="white"/>
<path d="M164.299 16.2656H159.165V30.9465H157.643V16.2656H152.547V14.8203H164.299V16.2656Z" fill="white"/>
<path d="M167.799 16.4944C168.218 15.1632 169.169 14.5547 170.386 14.5547C171.603 14.5547 172.554 15.1632 172.972 16.4944L177.498 30.909H175.901L174.531 26.4211L166.24 26.4591L164.833 30.9471H163.273L167.799 16.4944ZM166.62 25.0139H174.075L171.603 16.9888C171.413 16.3423 170.994 16 170.386 16C169.739 16 169.359 16.3423 169.169 16.9888L166.62 25.0139Z" fill="white"/>
<path d="M181.303 29.5012H189.708V30.9465H181.303C180.162 30.9465 179.781 30.376 179.781 29.4251V14.8203H181.303V29.5012Z" fill="white"/>
</g>
</g>
<defs>
<clipPath id="clip0_6828_24094">
<rect width="190" height="48" fill="white"/>
</clipPath>
<clipPath id="clip1_6828_24094">
<rect width="190.312" height="29" fill="white" transform="translate(0 9.5)"/>
</clipPath>
</defs>
</svg>
