<svg width="22" height="16" viewBox="0 0 22 16" fill="none" xmlns="http://www.w3.org/2000/svg">
<g style="mix-blend-mode:luminosity" clip-path="url(#clip0_552_4437)">
<mask id="mask0_552_4437" style="mask-type:alpha" maskUnits="userSpaceOnUse" x="0" y="0" width="22" height="16">
<path d="M19.5 0.482422H2.5C1.39543 0.482422 0.5 1.37785 0.5 2.48242V13.4824C0.5 14.587 1.39543 15.4824 2.5 15.4824H19.5C20.6046 15.4824 21.5 14.587 21.5 13.4824V2.48242C21.5 1.37785 20.6046 0.482422 19.5 0.482422Z" fill="white"/>
</mask>
<g mask="url(#mask0_552_4437)">
<path d="M19.5 0.482422H2.5C1.39543 0.482422 0.5 1.37785 0.5 2.48242V13.4824C0.5 14.587 1.39543 15.4824 2.5 15.4824H19.5C20.6046 15.4824 21.5 14.587 21.5 13.4824V2.48242C21.5 1.37785 20.6046 0.482422 19.5 0.482422Z" fill="white"/>
<path fill-rule="evenodd" clip-rule="evenodd" d="M11 9.48242C12.38 9.48242 13.5 8.81042 13.5 7.98242C13.5 7.15442 12.38 6.48242 11 6.48242C9.62 6.48242 8.5 7.15442 8.5 7.98242C8.5 8.81042 9.62 9.48242 11 9.48242ZM11 8.73242C11.828 8.73242 12.5 8.22842 12.5 7.60742C12.5 6.98742 11.828 6.48242 11 6.48242C10.172 6.48242 9.5 6.98642 9.5 7.60742C9.5 8.22742 10.172 8.73242 11 8.73242Z" fill="#DD0000"/>
<path d="M11 8.48242C11.2761 8.48242 11.5 8.03471 11.5 7.48242C11.5 6.93014 11.2761 6.48242 11 6.48242C10.7239 6.48242 10.5 6.93014 10.5 7.48242C10.5 8.03471 10.7239 8.48242 11 8.48242Z" fill="#DD0000"/>
<path fill-rule="evenodd" clip-rule="evenodd" d="M0.5 10.4824H21.5V15.4824H0.5V10.4824Z" fill="#DD0000"/>
<path fill-rule="evenodd" clip-rule="evenodd" d="M0.5 0.482422H21.5V5.48242H0.5V0.482422Z" fill="#17A03A"/>
<path d="M19.5 0.982422H2.5C1.67157 0.982422 1 1.65399 1 2.48242V13.4824C1 14.3108 1.67157 14.9824 2.5 14.9824H19.5C20.3284 14.9824 21 14.3108 21 13.4824V2.48242C21 1.65399 20.3284 0.982422 19.5 0.982422Z" stroke="black" stroke-opacity="0.1"/>
</g>
</g>
<defs>
<clipPath id="clip0_552_4437">
<rect width="21" height="15" fill="white" transform="translate(0.5 0.482422)"/>
</clipPath>
</defs>
</svg>
