<svg width="20" height="21" viewBox="0 0 20 21" fill="none" xmlns="http://www.w3.org/2000/svg">
<g clip-path="url(#clip0_554_4650)">
<path d="M9.99902 5.24297C11.8693 5.24297 12.0908 5.25117 12.8264 5.28398C13.51 5.31406 13.8791 5.42891 14.1252 5.52461C14.4506 5.65039 14.6857 5.80352 14.9291 6.04688C15.1752 6.29297 15.3256 6.52539 15.4514 6.85078C15.5471 7.09688 15.6619 7.46875 15.692 8.14961C15.7248 8.88789 15.733 9.10938 15.733 10.977C15.733 12.8473 15.7248 13.0688 15.692 13.8043C15.6619 14.4879 15.5471 14.857 15.4514 15.1031C15.3256 15.4285 15.1725 15.6637 14.9291 15.907C14.683 16.1531 14.4506 16.3035 14.1252 16.4293C13.8791 16.525 13.5072 16.6398 12.8264 16.6699C12.0881 16.7027 11.8666 16.7109 9.99902 16.7109C8.12871 16.7109 7.90723 16.7027 7.17168 16.6699C6.48809 16.6398 6.11895 16.525 5.87285 16.4293C5.54746 16.3035 5.3123 16.1504 5.06895 15.907C4.82285 15.6609 4.67246 15.4285 4.54668 15.1031C4.45098 14.857 4.33613 14.4852 4.30605 13.8043C4.27324 13.066 4.26504 12.8445 4.26504 10.977C4.26504 9.10664 4.27324 8.88516 4.30605 8.14961C4.33613 7.46602 4.45098 7.09688 4.54668 6.85078C4.67246 6.52539 4.82559 6.29023 5.06895 6.04688C5.31504 5.80078 5.54746 5.65039 5.87285 5.52461C6.11895 5.42891 6.49082 5.31406 7.17168 5.28398C7.90723 5.25117 8.12871 5.24297 9.99902 5.24297ZM9.99902 3.98242C8.09863 3.98242 7.86074 3.99062 7.11426 4.02344C6.37051 4.05625 5.85918 4.17656 5.41621 4.34883C4.9541 4.5293 4.56309 4.76719 4.1748 5.1582C3.78379 5.54648 3.5459 5.9375 3.36543 6.39688C3.19316 6.84258 3.07285 7.35117 3.04004 8.09492C3.00723 8.84414 2.99902 9.08203 2.99902 10.9824C2.99902 12.8828 3.00723 13.1207 3.04004 13.8672C3.07285 14.6109 3.19316 15.1223 3.36543 15.5652C3.5459 16.0273 3.78379 16.4184 4.1748 16.8066C4.56309 17.1949 4.9541 17.4355 5.41348 17.6133C5.85918 17.7855 6.36777 17.9059 7.11152 17.9387C7.85801 17.9715 8.0959 17.9797 9.99629 17.9797C11.8967 17.9797 12.1346 17.9715 12.8811 17.9387C13.6248 17.9059 14.1361 17.7855 14.5791 17.6133C15.0385 17.4355 15.4295 17.1949 15.8178 16.8066C16.2061 16.4184 16.4467 16.0273 16.6244 15.568C16.7967 15.1223 16.917 14.6137 16.9498 13.8699C16.9826 13.1234 16.9908 12.8855 16.9908 10.9852C16.9908 9.08477 16.9826 8.84688 16.9498 8.10039C16.917 7.35664 16.7967 6.84531 16.6244 6.40234C16.4521 5.9375 16.2143 5.54648 15.8232 5.1582C15.435 4.76992 15.0439 4.5293 14.5846 4.35156C14.1389 4.1793 13.6303 4.05898 12.8865 4.02617C12.1373 3.99063 11.8994 3.98242 9.99902 3.98242Z" fill="#EBEDF7"/>
<path d="M9.99902 7.38672C8.01387 7.38672 6.40332 8.99727 6.40332 10.9824C6.40332 12.9676 8.01387 14.5781 9.99902 14.5781C11.9842 14.5781 13.5947 12.9676 13.5947 10.9824C13.5947 8.99727 11.9842 7.38672 9.99902 7.38672ZM9.99902 13.3148C8.71113 13.3148 7.6666 12.2703 7.6666 10.9824C7.6666 9.69453 8.71113 8.65 9.99902 8.65C11.2869 8.65 12.3314 9.69453 12.3314 10.9824C12.3314 12.2703 11.2869 13.3148 9.99902 13.3148Z" fill="#EBEDF7"/>
<path d="M14.5764 7.24375C14.5764 7.7086 14.199 8.08321 13.7369 8.08321C13.2721 8.08321 12.8975 7.70586 12.8975 7.24375C12.8975 6.77891 13.2748 6.4043 13.7369 6.4043C14.199 6.4043 14.5764 6.78164 14.5764 7.24375Z" fill="#EBEDF7"/>
</g>
<defs>
<clipPath id="clip0_554_4650">
<rect width="14" height="14" fill="white" transform="translate(2.99902 3.98242)"/>
</clipPath>
</defs>
</svg>
