<svg width="153" height="48" viewBox="0 0 153 48" fill="none" xmlns="http://www.w3.org/2000/svg">
<path d="M41.739 39.4219C41.154 39.4219 40.6312 39.0564 40.4303 38.5069L37.5879 30.7349H39.2881L41.7452 37.7962L44.2148 30.7349H45.8902L43.0478 38.5069C42.8469 39.0564 42.3241 39.4219 41.739 39.4219Z" fill="white"/>
<path d="M49.0088 39.4219C48.131 39.4219 47.4193 38.7103 47.4193 37.8324V32.3243C47.4193 31.4465 48.131 30.7349 49.0088 30.7349H53.0907V32.0131H49.0078V34.3958H52.7184V35.6368H49.0078V38.1436H53.0907V39.4219H49.0088Z" fill="white"/>
<path d="M55.0903 39.4219V31.7698C55.0903 31.1982 55.5536 30.7349 56.1252 30.7349C56.4711 30.7349 56.7941 30.9076 56.986 31.1953L60.7617 36.853V30.7349H62.3501V38.3865C62.3501 38.9583 61.8866 39.4219 61.3148 39.4219C60.9692 39.4219 60.6463 39.2494 60.4542 38.962L56.6788 33.3161V39.4219H55.0903Z" fill="white"/>
<path d="M66.5534 39.4219V32.0131H64.0218V30.7349H70.686V32.0131H68.1419V39.4219H66.5534Z" fill="white"/>
<path d="M75.7098 39.5708C75.0728 39.5708 74.4978 39.4467 73.9848 39.1985C73.4719 38.942 73.0623 38.5573 72.7562 38.0444C72.4584 37.5314 72.3095 36.882 72.3095 36.096V30.7349H73.898V36.1084C73.898 36.7868 74.0593 37.2915 74.3819 37.6224C74.7129 37.9533 75.1679 38.1188 75.747 38.1188C76.3179 38.1188 76.7688 37.9533 77.0997 37.6224C77.4307 37.2915 77.5961 36.7868 77.5961 36.1084V30.7349H79.1846V36.096C79.1846 36.882 79.0274 37.5314 78.713 38.0444C78.3987 38.5573 77.9767 38.942 77.4472 39.1985C76.926 39.4467 76.3469 39.5708 75.7098 39.5708Z" fill="white"/>
<path d="M81.3026 39.4219V30.7349H84.4919C85.1869 30.7349 85.7578 30.8548 86.2045 31.0947C86.6596 31.3264 86.9988 31.6449 87.2221 32.0503C87.4455 32.4474 87.5572 32.8901 87.5572 33.3782C87.5572 33.9077 87.4166 34.3917 87.1353 34.8302C86.8623 35.2687 86.432 35.5872 85.8446 35.7857L87.6441 39.4219H85.8198L84.2065 35.9967H82.891V39.4219H81.3026ZM82.891 34.8302H84.3927C84.9221 34.8302 85.311 34.7019 85.5592 34.4455C85.8074 34.189 85.9315 33.8498 85.9315 33.4278C85.9315 33.0142 85.8074 32.6832 85.5592 32.435C85.3193 32.1868 84.9263 32.0627 84.3802 32.0627H82.891V34.8302Z" fill="white"/>
<path d="M90.8025 39.4219C90.1003 39.4219 89.531 38.8526 89.531 38.1503V32.0064C89.531 31.3041 90.1003 30.7349 90.8025 30.7349H95.2024V32.0131H91.1195V34.3958H94.8301V35.6368H91.1195V38.1436H95.2024V39.4219H90.8025Z" fill="white"/>
<path d="M104.589 39.5708C103.712 39.5708 102.96 39.3846 102.331 39.0123C101.702 38.6318 101.218 38.1064 100.879 37.4363C100.54 36.7579 100.37 35.976 100.37 35.0908C100.37 34.2055 100.54 33.4237 100.879 32.7453C101.218 32.0669 101.702 31.5374 102.331 31.1568C102.96 30.7762 103.712 30.5859 104.589 30.5859C105.632 30.5859 106.484 30.8465 107.146 31.3678C107.816 31.8807 108.234 32.6046 108.399 33.5395H106.649C106.542 33.0679 106.31 32.6998 105.954 32.435C105.607 32.162 105.144 32.0255 104.565 32.0255C103.762 32.0255 103.133 32.2985 102.678 32.8446C102.223 33.3906 101.996 34.1393 101.996 35.0908C101.996 36.0422 102.223 36.7909 102.678 37.337C103.133 37.8748 103.762 38.1436 104.565 38.1436C105.144 38.1436 105.607 38.0195 105.954 37.7713C106.31 37.5149 106.542 37.1632 106.649 36.7165H108.399C108.234 37.61 107.816 38.3091 107.146 38.8138C106.484 39.3185 105.632 39.5708 104.589 39.5708Z" fill="white"/>
<path d="M109.634 39.4219L112.504 31.574C112.689 31.07 113.168 30.7349 113.705 30.7349C114.241 30.7349 114.721 31.07 114.905 31.574L117.775 39.4219H116.087L115.392 37.4114H112.005L111.297 39.4219H109.634ZM112.439 36.1704H114.958L113.692 32.5591L112.439 36.1704Z" fill="white"/>
<path d="M119.391 39.4219V30.7349H122.605C123.3 30.7349 123.875 30.8507 124.33 31.0823C124.785 31.314 125.124 31.6325 125.347 32.0379C125.571 32.4433 125.683 32.8983 125.683 33.403C125.683 33.8829 125.575 34.3255 125.36 34.7309C125.145 35.128 124.81 35.4507 124.355 35.6989C123.9 35.9388 123.316 36.0588 122.605 36.0588H120.979V39.4219H119.391ZM120.979 34.7681H122.506C123.06 34.7681 123.457 34.6481 123.697 34.4082C123.945 34.16 124.069 33.825 124.069 33.403C124.069 32.9728 123.945 32.6377 123.697 32.3978C123.457 32.1496 123.06 32.0255 122.506 32.0255H120.979V34.7681Z" fill="white"/>
<path d="M127.425 39.4219V30.7349H129.014V39.4219H127.425Z" fill="white"/>
<path d="M133.217 39.4219V32.0131H130.685V30.7349H137.349V32.0131H134.805V39.4219H133.217Z" fill="white"/>
<path d="M137.543 39.4219L140.414 31.5697C140.598 31.0683 141.079 30.7349 141.613 30.7349C142.147 30.7349 142.629 31.0683 142.812 31.5697L145.684 39.4219H143.996L143.301 37.4114H139.913L139.206 39.4219H137.543ZM140.347 36.1704H142.867L141.601 32.5591L140.347 36.1704Z" fill="white"/>
<path d="M148.889 39.4219C148.011 39.4219 147.299 38.7103 147.299 37.8324V30.7349H148.888V38.1809H152.735V39.4219H148.889Z" fill="white"/>
<path d="M37.5879 26.558V11.0241H43.2911C44.5338 11.0241 45.5546 11.2386 46.3535 11.6677C47.1672 12.0819 47.7737 12.6515 48.1732 13.3764C48.5726 14.0865 48.7723 14.878 48.7723 15.7509C48.7723 16.6977 48.5208 17.5632 48.0178 18.3472C47.5296 19.1313 46.7603 19.7009 45.7099 20.056L48.9277 26.558H45.6655L42.7807 20.4332H40.4284V26.558H37.5879ZM40.4284 18.3472H43.1135C44.0604 18.3472 44.7557 18.1179 45.1995 17.6593C45.6433 17.2007 45.8653 16.5941 45.8653 15.8396C45.8653 15.0999 45.6433 14.5081 45.1995 14.0643C44.7705 13.6205 44.0678 13.3986 43.0913 13.3986H40.4284V18.3472Z" fill="white"/>
<path d="M54.3096 26.558C52.7105 26.558 51.4141 25.2617 51.4141 23.6626V13.9196C51.4141 12.3204 52.7105 11.0241 54.3096 11.0241H61.5556V13.3098H54.2546V17.5706H60.8898V19.7897H54.2546V24.2723H61.5556V26.558H54.3096Z" fill="white"/>
<path d="M64.2435 26.558V11.0241H69.5472C71.3669 11.0241 72.8611 11.3496 74.0299 12.0005C75.2134 12.6367 76.0863 13.5391 76.6485 14.7079C77.2254 15.8618 77.5139 17.2229 77.5139 18.7911C77.5139 20.3593 77.2254 21.7277 76.6485 22.8965C76.0863 24.0504 75.2134 24.9529 74.0299 25.6038C72.8611 26.24 71.3669 26.558 69.5472 26.558H64.2435ZM67.084 24.117H69.4141C70.716 24.117 71.7442 23.9099 72.4987 23.4956C73.2532 23.0666 73.7932 22.46 74.1186 21.6759C74.4441 20.8771 74.6069 19.9154 74.6069 18.7911C74.6069 17.6815 74.4441 16.7273 74.1186 15.9284C73.7932 15.1295 73.2532 14.5155 72.4987 14.0865C71.7442 13.6575 70.716 13.443 69.4141 13.443H67.084V24.117Z" fill="white"/>
<path d="M90.6117 26.8243C89.4725 26.8243 88.4665 26.632 87.5936 26.2474C86.7208 25.8479 86.0329 25.2857 85.5298 24.5608C85.0268 23.8211 84.7679 22.9261 84.7531 21.8757H87.749C87.7786 22.6006 88.0375 23.2145 88.5257 23.7176C89.0287 24.2058 89.7166 24.4499 90.5895 24.4499C91.344 24.4499 91.9431 24.2723 92.387 23.9173C92.8308 23.5474 93.0527 23.0592 93.0527 22.4526C93.0527 21.8165 92.853 21.3209 92.4535 20.9658C92.0689 20.6108 91.5511 20.3223 90.9001 20.1004C90.2492 19.8784 89.5539 19.6417 88.8142 19.3902C87.6158 18.976 86.6986 18.4434 86.0624 17.7925C85.4411 17.1415 85.1304 16.2761 85.1304 15.1961C85.1156 14.2788 85.3301 13.4947 85.7739 12.8438C86.2326 12.1781 86.8539 11.6677 87.638 11.3126C88.4221 10.9427 89.3246 10.7578 90.3454 10.7578C91.381 10.7578 92.2908 10.9427 93.0749 11.3126C93.8738 11.6825 94.4951 12.2002 94.939 12.866C95.3976 13.5317 95.6417 14.3232 95.6713 15.2405H92.6311C92.6163 14.6931 92.4018 14.2123 91.9875 13.798C91.5881 13.369 91.0259 13.1545 90.301 13.1545C89.6796 13.1397 89.1544 13.295 88.7254 13.6205C88.3112 13.9312 88.104 14.3898 88.104 14.9964C88.104 15.5142 88.2668 15.9284 88.5922 16.2391C88.9177 16.535 89.3615 16.7865 89.9237 16.9936C90.4859 17.2007 91.1295 17.4226 91.8544 17.6593C92.6237 17.9256 93.3264 18.2363 93.9626 18.5914C94.5987 18.9464 95.1091 19.4198 95.4938 20.0116C95.8784 20.5886 96.0707 21.3357 96.0707 22.2529C96.0707 23.0666 95.8636 23.8211 95.4494 24.5164C95.0351 25.2118 94.4212 25.7739 93.6075 26.203C92.7938 26.6172 91.7952 26.8243 90.6117 26.8243Z" fill="white"/>
<path d="M103.19 26.558C102.197 26.558 101.328 25.8894 101.075 24.9294L97.3998 11.0241H100.44L103.236 23.3847L106.52 11.0241H109.649L112.845 23.3847L115.641 11.0241H118.703L114.928 24.9332C114.668 25.8923 113.797 26.558 112.804 26.558C111.807 26.558 110.935 25.8887 110.677 24.9261L108.029 15.0407L105.299 24.9516C105.037 25.9006 104.174 26.558 103.19 26.558Z" fill="white"/>
<path d="M120.762 26.558V11.0241H123.603V26.558H120.762Z" fill="white"/>
<path d="M131.917 26.8243C130.778 26.8243 129.772 26.632 128.899 26.2474C128.026 25.8479 127.338 25.2857 126.835 24.5608C126.332 23.8211 126.073 22.9261 126.059 21.8757H129.054C129.084 22.6006 129.343 23.2145 129.831 23.7176C130.334 24.2058 131.022 24.4499 131.895 24.4499C132.649 24.4499 133.248 24.2723 133.692 23.9173C134.136 23.5474 134.358 23.0592 134.358 22.4526C134.358 21.8165 134.158 21.3209 133.759 20.9658C133.374 20.6108 132.856 20.3223 132.206 20.1004C131.555 19.8784 130.859 19.6417 130.12 19.3902C128.921 18.976 128.004 18.4434 127.368 17.7925C126.746 17.1415 126.436 16.2761 126.436 15.1961C126.421 14.2788 126.635 13.4947 127.079 12.8438C127.538 12.1781 128.159 11.6677 128.943 11.3126C129.727 10.9427 130.63 10.7578 131.651 10.7578C132.686 10.7578 133.596 10.9427 134.38 11.3126C135.179 11.6825 135.801 12.2002 136.244 12.866C136.703 13.5317 136.947 14.3232 136.977 15.2405H133.936C133.922 14.6931 133.707 14.2123 133.293 13.798C132.893 13.369 132.331 13.1545 131.606 13.1545C130.985 13.1397 130.46 13.295 130.031 13.6205C129.617 13.9312 129.409 14.3898 129.409 14.9964C129.409 15.5142 129.572 15.9284 129.898 16.2391C130.223 16.535 130.667 16.7865 131.229 16.9936C131.791 17.2007 132.435 17.4226 133.16 17.6593C133.929 17.9256 134.632 18.2363 135.268 18.5914C135.904 18.9464 136.414 19.4198 136.799 20.0116C137.184 20.5886 137.376 21.3357 137.376 22.2529C137.376 23.0666 137.169 23.8211 136.755 24.5164C136.34 25.2118 135.727 25.7739 134.913 26.203C134.099 26.6172 133.101 26.8243 131.917 26.8243Z" fill="white"/>
<path d="M145.158 26.8243C144.019 26.8243 143.013 26.632 142.14 26.2474C141.267 25.8479 140.579 25.2857 140.076 24.5608C139.573 23.8211 139.314 22.9261 139.3 21.8757H142.295C142.325 22.6006 142.584 23.2145 143.072 23.7176C143.575 24.2058 144.263 24.4499 145.136 24.4499C145.89 24.4499 146.49 24.2723 146.933 23.9173C147.377 23.5474 147.599 23.0592 147.599 22.4526C147.599 21.8165 147.399 21.3209 147 20.9658C146.615 20.6108 146.098 20.3223 145.447 20.1004C144.796 19.8784 144.1 19.6417 143.361 19.3902C142.162 18.976 141.245 18.4434 140.609 17.7925C139.988 17.1415 139.677 16.2761 139.677 15.1961C139.662 14.2788 139.877 13.4947 140.32 12.8438C140.779 12.1781 141.4 11.6677 142.184 11.3126C142.969 10.9427 143.871 10.7578 144.892 10.7578C145.927 10.7578 146.837 10.9427 147.621 11.3126C148.42 11.6825 149.042 12.2002 149.485 12.866C149.944 13.5317 150.188 14.3232 150.218 15.2405H147.178C147.163 14.6931 146.948 14.2123 146.534 13.798C146.135 13.369 145.572 13.1545 144.847 13.1545C144.226 13.1397 143.701 13.295 143.272 13.6205C142.858 13.9312 142.651 14.3898 142.651 14.9964C142.651 15.5142 142.813 15.9284 143.139 16.2391C143.464 16.535 143.908 16.7865 144.47 16.9936C145.032 17.2007 145.676 17.4226 146.401 17.6593C147.17 17.9256 147.873 18.2363 148.509 18.5914C149.145 18.9464 149.656 19.4198 150.04 20.0116C150.425 20.5886 150.617 21.3357 150.617 22.2529C150.617 23.0666 150.41 23.8211 149.996 24.5164C149.582 25.2118 148.968 25.7739 148.154 26.203C147.34 26.6172 146.342 26.8243 145.158 26.8243Z" fill="white"/>
<path d="M16.3148 29.3572C14.3049 31.1584 12.3732 33.1162 10.2066 34.7085C7.6223 36.588 4.59426 37.4233 1.3574 37.3711C0.887528 37.3711 0.443764 37.0056 0 36.7968C0.443764 36.6402 0.861424 36.3531 1.30519 36.3531C7.90944 36.2747 12.3471 32.5941 16.2104 27.5561C14.2788 28.1304 12.582 28.7569 10.8331 29.1484C9.0319 29.5661 7.20464 29.4878 5.48179 28.6524C2.14051 27.034 1.56623 23.4317 4.25491 20.8735C4.38543 20.743 4.56816 20.6908 4.69868 20.6125C4.51595 20.1426 4.35933 19.8294 4.28102 19.49C3.34128 16.462 5.27296 13.695 8.43151 13.5123C10.5459 13.3817 12.3471 14.1388 13.9916 15.3917C14.7747 15.9921 15.5317 16.6447 16.3932 17.3756C16.602 15.9399 16.7325 14.6347 16.9674 13.3295C17.3068 11.4501 18.116 9.77942 19.6822 8.55255C22.2665 6.54256 25.5034 7.29957 26.8347 10.2754C27.1218 10.928 27.4089 11.1629 28.1399 11.189C31.2723 11.3195 33.204 14.1126 32.3165 17.1407C31.7161 19.1768 30.3587 20.6125 28.5836 21.6566C27.4612 22.3092 26.2865 22.8574 25.1118 23.4839C26.5475 24.3714 28.0354 25.2067 29.445 26.1726C30.8807 27.1384 31.7422 28.5219 32.1598 30.1926C32.9168 33.1945 31.0113 35.7527 27.931 35.8571C27.174 35.8832 26.8347 36.0659 26.5214 36.7968C25.3467 39.4855 22.3187 40.3208 19.865 38.6763C17.4895 37.084 16.7325 34.6041 16.4454 31.9415C16.341 31.0279 16.3671 30.062 16.3148 29.3572Z" fill="white"/>
</svg>
