<svg width="1075" height="240" viewBox="0 0 1075 240" fill="none" xmlns="http://www.w3.org/2000/svg">
<path d="M0 238.562L105.75 41.3292L199.145 0L93.248 197.233L0 238.562Z" fill="white"/>
<path d="M105.456 193.556L185.761 43.6829L231.649 88.8361L152.227 239.004L105.456 193.556Z" fill="white"/>
<path d="M240.474 93.248L299.894 115.016L270.184 169.729L198.115 172.229L240.474 93.248Z" fill="white"/>
<path d="M373.139 197.086H333.575V85.4526H373.433C384.611 85.4526 394.319 87.6588 402.408 92.0712C410.497 96.4836 416.822 102.955 421.087 111.191C425.499 119.575 427.558 129.429 427.558 141.048C427.558 152.668 425.352 162.669 420.94 171.053C416.528 179.436 410.35 185.76 402.114 190.32C394.172 194.879 384.464 197.086 373.139 197.086ZM357.108 176.789H372.11C382.552 176.789 390.495 173.994 395.937 168.258C401.378 162.669 404.026 153.55 404.026 141.048C404.026 128.694 401.378 119.722 395.937 113.986C390.495 108.397 382.552 105.602 372.11 105.602H357.108V176.789Z" fill="white"/>
<path d="M445.208 197.085H419.91L458.445 85.5996H488.89L527.278 197.085H501.98L493.744 171.641H453.444L445.208 197.085ZM459.474 153.256H487.861L474.182 111.044H473.3L459.474 153.256Z" fill="white"/>
<path d="M624.056 141.343C624.056 153.55 621.703 163.846 617.143 172.376C612.584 180.907 606.259 187.378 598.464 191.938C590.522 196.35 581.697 198.703 571.843 198.703C561.989 198.703 553.017 196.497 545.222 191.938C537.279 187.378 531.102 180.907 526.543 172.376C521.983 163.846 519.63 153.55 519.63 141.49C519.63 129.282 521.983 118.987 526.543 110.456C531.102 101.925 537.279 95.454 545.222 90.8945C553.164 86.4822 561.989 84.1289 571.843 84.1289C581.697 84.1289 590.522 86.3351 598.464 90.8945C606.406 95.3069 612.584 101.925 617.143 110.456C621.85 118.692 624.056 129.135 624.056 141.343ZM600.229 141.343C600.229 129.576 597.582 120.457 592.434 114.28C587.286 108.103 580.373 104.867 571.843 104.867C563.312 104.867 556.4 107.956 551.252 114.28C546.104 120.604 543.457 129.576 543.457 141.343C543.457 153.109 546.104 162.228 551.252 168.405C556.4 174.582 563.312 177.818 571.843 177.818C580.373 177.818 587.286 174.73 592.434 168.405C597.582 162.081 600.229 153.109 600.229 141.343Z" fill="white"/>
<path d="M655.678 85.4526H684.8L715.539 160.463H716.863L747.602 85.4526H776.577V197.086H753.633V124.429H752.75L723.923 196.497H708.332L679.505 124.134H678.622V197.086H655.678V85.4526V85.4526Z" fill="white"/>
<path d="M810.846 198.557C802.904 198.557 796.285 196.497 790.991 192.232C785.696 188.114 783.048 181.79 783.048 173.553C783.048 167.376 784.519 162.375 787.461 158.845C790.402 155.315 794.226 152.668 799.08 151.05C803.786 149.432 808.934 148.256 814.523 147.814C821.73 147.079 827.025 146.344 830.114 145.461C833.202 144.579 834.82 142.961 834.82 140.166V139.872C834.82 136.489 833.791 133.695 831.584 131.93C829.378 130.018 826.437 129.135 822.465 129.135C818.347 129.135 814.964 130.018 812.464 131.93C809.964 133.695 808.346 136.048 807.61 138.842L786.137 137.078C787.755 129.429 791.726 123.399 798.05 118.987C804.375 114.574 812.611 112.221 822.613 112.221C828.79 112.221 834.673 113.251 839.968 115.163C845.41 117.075 849.675 120.163 853.058 124.282C856.441 128.4 858.059 133.842 858.059 140.46V197.086H835.997V185.466H835.408C833.349 189.291 830.408 192.526 826.289 195.027C822.171 197.38 817.024 198.557 810.846 198.557ZM817.465 182.672C822.613 182.672 826.731 181.201 829.966 178.26C833.202 175.318 834.82 171.641 834.82 167.229V158.404C833.938 158.992 832.467 159.581 830.555 160.022C828.643 160.463 826.584 160.904 824.525 161.198C822.318 161.493 820.406 161.787 818.789 162.081C814.67 162.669 811.435 163.846 808.934 165.464C806.434 167.229 805.257 169.729 805.257 172.965C805.257 176.201 806.434 178.554 808.787 180.172C810.993 181.79 813.935 182.672 817.465 182.672Z" fill="white"/>
<path d="M866.883 197.086V85.4526H890.122V145.02H891.446L918.214 113.251H944.835L913.802 149.432L946.453 196.938H919.243L896.299 163.257L889.975 170.464V197.086H866.883Z" fill="white"/>
<path d="M979.987 198.703C971.456 198.703 964.103 196.939 957.778 193.409C951.601 189.879 946.747 184.878 943.511 178.554C940.129 172.082 938.511 164.434 938.511 155.609C938.511 147.079 940.129 139.431 943.511 132.959C946.894 126.488 951.601 121.34 957.631 117.81C963.661 114.133 970.868 112.368 979.105 112.368C986.459 112.368 993.077 113.986 999.107 117.075C1004.99 120.163 1009.7 124.87 1013.23 131.194C1016.76 137.519 1018.52 145.314 1018.52 154.874V161.198H961.602C961.602 167.376 963.367 172.376 966.75 175.906C970.133 179.436 974.839 181.348 980.575 181.348C984.399 181.348 987.782 180.466 990.577 178.848C993.371 177.23 995.43 174.73 996.607 171.641L1018.08 173.112C1016.46 180.907 1012.34 187.084 1005.73 191.791C998.96 196.35 990.43 198.703 979.987 198.703ZM961.455 146.785H996.607C996.607 141.784 994.989 137.666 991.753 134.43C988.518 131.194 984.547 129.576 979.399 129.576C974.251 129.576 969.986 131.194 966.75 134.577C963.514 137.96 961.749 142.078 961.455 146.785Z" fill="white"/>
<path d="M1024.26 197.086V113.398H1046.76V127.959H1047.64C1049.11 122.811 1051.76 118.84 1055.29 116.192C1058.82 113.545 1063.09 112.221 1067.65 112.221C1070.29 112.221 1072.65 112.515 1075 113.104V133.695C1073.97 133.401 1072.35 133.106 1070.44 132.812C1068.53 132.518 1066.76 132.518 1065.15 132.518C1060 132.518 1055.73 134.136 1052.5 137.372C1049.11 140.607 1047.5 144.726 1047.5 149.873V197.086H1024.26Z" fill="white"/>
</svg>
