<svg width="20" height="21" viewBox="0 0 20 21" fill="none" xmlns="http://www.w3.org/2000/svg">
<g clip-path="url(#clip0_554_4645)">
<path fill-rule="evenodd" clip-rule="evenodd" d="M5.219 4.98242H14.9705C15.6437 4.98242 16.1895 5.5282 16.1895 6.20142V15.9529C16.1895 16.6261 15.6437 17.1719 14.9705 17.1719H5.219C4.54578 17.1719 4 16.6261 4 15.9529V6.20142C4 5.5282 4.54578 4.98242 5.219 4.98242ZM5.219 6.20142V15.9529H14.9705V6.20142H5.219ZM9.76077 9.52437C10.0551 9.34519 10.3886 9.24883 10.7042 9.24883H11.3136C12.1633 9.24883 13.142 9.94801 13.142 11.0772V13.5151H11.923V11.0772C11.923 10.7264 11.561 10.4678 11.3136 10.4678H10.7042C10.4568 10.4678 10.0948 10.7264 10.0948 11.0772V13.5151H8.87582V9.24883H9.48523L9.76077 9.52437ZM7.65682 8.63942C7.32021 8.63942 7.04741 8.36662 7.04741 8.03001C7.04741 7.6934 7.32021 7.42061 7.65682 7.42061C7.99343 7.42061 8.26623 7.6934 8.26623 8.03001C8.26623 8.36662 7.99343 8.63942 7.65682 8.63942ZM8.26623 13.5152H7.04723V9.24901H8.26623V13.5152Z" fill="#EBEDF7"/>
</g>
<defs>
<clipPath id="clip0_554_4645">
<rect width="12.1895" height="12.1895" fill="white" transform="translate(4 4.98242)"/>
</clipPath>
</defs>
</svg>
