<svg width="21" height="16" viewBox="0 0 21 16" fill="none" xmlns="http://www.w3.org/2000/svg">
<g style="mix-blend-mode:luminosity" clip-path="url(#clip0_552_4440)">
<mask id="mask0_552_4440" style="mask-type:alpha" maskUnits="userSpaceOnUse" x="0" y="0" width="21" height="16">
<path d="M19 0.482422H2C0.89543 0.482422 0 1.37785 0 2.48242V13.4824C0 14.587 0.89543 15.4824 2 15.4824H19C20.1046 15.4824 21 14.587 21 13.4824V2.48242C21 1.37785 20.1046 0.482422 19 0.482422Z" fill="white"/>
</mask>
<g mask="url(#mask0_552_4440)">
<path d="M19 0.482422H2C0.89543 0.482422 0 1.37785 0 2.48242V13.4824C0 14.587 0.89543 15.4824 2 15.4824H19C20.1046 15.4824 21 14.587 21 13.4824V2.48242C21 1.37785 20.1046 0.482422 19 0.482422Z" fill="#E02600"/>
<path fill-rule="evenodd" clip-rule="evenodd" d="M5.498 7.71242L4.028 8.48542L4.308 6.84842L3.12 5.68842L4.763 5.45142L5.498 3.96142L6.232 5.45142L7.875 5.68842L6.685 6.84842L6.967 8.48442L5.498 7.71242ZM9 3.48242H10V4.48242H9V3.48242ZM10 5.48242H11V6.48242H10V5.48242ZM10 7.48242H11V8.48242H10V7.48242ZM9 9.48242H10V10.4824H9V9.48242Z" fill="#FFE000"/>
<path d="M19 0.982422H2C1.17157 0.982422 0.5 1.65399 0.5 2.48242V13.4824C0.5 14.3108 1.17157 14.9824 2 14.9824H19C19.8284 14.9824 20.5 14.3108 20.5 13.4824V2.48242C20.5 1.65399 19.8284 0.982422 19 0.982422Z" stroke="black" stroke-opacity="0.1"/>
</g>
</g>
<defs>
<clipPath id="clip0_552_4440">
<rect width="21" height="15" fill="white" transform="translate(0 0.482422)"/>
</clipPath>
</defs>
</svg>
