<svg width="20" height="21" viewBox="0 0 20 21" fill="none" xmlns="http://www.w3.org/2000/svg">
<path d="M10.0512 3.98242C6.07458 3.98242 2.8512 7.20581 2.8512 11.1824C2.8512 15.159 6.07458 18.3824 10.0512 18.3824C14.0278 18.3824 17.2512 15.159 17.2512 11.1824C17.2457 7.20581 14.0278 3.98242 10.0512 3.98242ZM10.605 17.247V12.844H12.2666C12.5712 12.844 12.8204 12.5947 12.8204 12.2901C12.8204 11.9855 12.5712 11.7363 12.2666 11.7363H10.605V10.0747C10.605 9.4655 11.1035 8.96704 11.7127 8.96704H12.8204C13.125 8.96704 13.3743 8.71781 13.3743 8.41319C13.3743 8.10858 13.125 7.85934 12.8204 7.85934H11.7127C10.4887 7.85934 9.49735 8.85073 9.49735 10.0747V11.7363H7.83581C7.5312 11.7363 7.28197 11.9855 7.28197 12.2901C7.28197 12.5947 7.5312 12.844 7.83581 12.844H9.49735V17.247C6.14658 16.9424 3.67643 13.9793 3.98658 10.6286C4.2912 7.27781 7.25427 4.80765 10.605 5.11227C13.9558 5.41688 16.426 8.37996 16.1158 11.7307C15.85 14.655 13.5293 16.9757 10.605 17.2415V17.247Z" fill="#EBEDF7"/>
</svg>
