<svg width="20" height="21" viewBox="0 0 20 21" fill="none" xmlns="http://www.w3.org/2000/svg">
<path fill-rule="evenodd" clip-rule="evenodd" d="M9.20831 5.98383L10.2642 5.98242L11.4117 5.99722L12.1449 6.01343L12.9266 6.03786L13.4535 6.05947L13.9699 6.08578L14.4629 6.11749C15.0993 6.16354 15.6394 6.22508 15.9466 6.3073C16.6208 6.4863 17.151 7.01531 17.3319 7.69207C17.3995 7.94413 17.4531 8.25256 17.4956 8.58331L17.5416 8.98876C17.5553 9.12595 17.5675 9.26478 17.578 9.40267L17.6173 10.0106L17.6347 10.3883L17.656 11.1412L17.6586 11.585L17.6466 12.1891L17.6269 12.716L17.5931 13.3122C17.579 13.5175 17.5621 13.7271 17.5416 13.9333L17.4956 14.3395C17.4531 14.6707 17.3995 14.9794 17.3319 15.2314C17.151 15.9082 16.6208 16.4374 15.9466 16.6162C15.6394 16.6984 15.0993 16.76 14.4629 16.806L13.9699 16.8377L13.4535 16.864L12.6633 16.8948L12.1449 16.9101L10.7702 16.9361L9.63537 16.9425L8.59591 16.9321L7.65181 16.9136L7.03002 16.896L6.18294 16.8631L5.52779 16.8281L5.11411 16.7999L4.72816 16.7675C4.66662 16.7616 4.60648 16.7557 4.54799 16.7496L4.21841 16.7102C4.01358 16.6822 3.84068 16.651 3.70961 16.616C3.03613 16.437 2.50524 15.9079 2.3253 15.2312C2.23087 14.8783 2.16392 14.4144 2.11623 13.9331L2.07982 13.5185L2.05187 13.1083L2.0312 12.7158L2.01146 12.1889L1.99948 11.5847V11.3313L2.01146 10.7287L2.0312 10.2032L2.05187 9.81164L2.07982 9.40243L2.11623 8.98853C2.16392 8.50814 2.2311 8.0449 2.3253 7.69207C2.50547 7.01531 3.03636 6.48606 3.70961 6.3073C3.84045 6.2723 4.01358 6.24105 4.21841 6.2131L4.54799 6.17364C4.60648 6.16753 4.66662 6.16142 4.72816 6.15578L5.11411 6.12337L5.52779 6.09518L6.18294 6.06018L6.63114 6.04138L7.65181 6.00967L8.76339 5.98876L9.20831 5.98383ZM10.0232 7.5469H9.64265L8.83481 7.55395L7.97129 7.56875L7.08522 7.59247L6.46647 7.61526L5.64195 7.65731L5.11341 7.69419L4.81014 7.72073L4.55034 7.74845C4.51087 7.75315 4.47329 7.75785 4.43758 7.76255L4.24895 7.79144C4.19445 7.80107 4.14865 7.81094 4.112 7.8208C3.98022 7.8558 3.87428 7.96175 3.83834 8.09658C3.75682 8.40102 3.69481 8.85815 3.65017 9.38411L3.61635 9.84969L3.59121 10.3374C3.58769 10.4198 3.58464 10.5027 3.58182 10.5857L3.56913 11.0841L3.56561 11.3313V11.5699L3.56866 11.8051L3.58017 12.2782L3.59896 12.747L3.62504 13.2025L3.65887 13.6347C3.70279 14.1219 3.76223 14.5427 3.8388 14.8288C3.87428 14.9617 3.98022 15.0679 4.11459 15.1034L4.1759 15.118L4.33845 15.1468L4.55104 15.1753L4.81038 15.2028L5.11294 15.2291L5.4552 15.254L6.03565 15.288L6.68611 15.3169L7.08052 15.3308L7.96964 15.3545L8.83363 15.3693L9.83269 15.3768L10.462 15.3733L11.4052 15.3604C11.7274 15.3543 12.0551 15.3465 12.3814 15.3369L13.0892 15.3122L13.7098 15.2833L14.2628 15.25L14.7378 15.2129L15.1244 15.1729L15.3281 15.1452C15.3582 15.1405 15.3864 15.1358 15.4124 15.1311L15.5447 15.1027C15.6767 15.0677 15.7826 14.9617 15.8188 14.8262C15.9062 14.5001 15.9715 13.9979 16.0166 13.4222L16.0464 12.9779C16.0509 12.9021 16.0549 12.8255 16.0587 12.7484L16.0775 12.2807L16.089 11.8093L16.0927 11.4607L16.089 11.1126L16.0775 10.6411L16.0587 10.1736L16.0324 9.71956C15.9875 9.05336 15.917 8.46445 15.8186 8.09705C15.7826 7.96245 15.6765 7.85651 15.5414 7.82057C15.5062 7.81117 15.4622 7.80178 15.4101 7.79238L15.2301 7.76443L15.0049 7.73718L14.7371 7.71087L14.4298 7.68573L13.902 7.65097L13.5097 7.63006L12.8686 7.60281C12.5454 7.59106 12.2172 7.5812 11.8916 7.57345L10.9285 7.55536L10.0232 7.5469Z" fill="#EBEDF7"/>
<path fill-rule="evenodd" clip-rule="evenodd" d="M8 13.6115V8.98242L12.0937 11.293L8 13.6115Z" fill="#EBEDF7"/>
</svg>
