<svg width="157" height="48" viewBox="0 0 157 48" fill="none" xmlns="http://www.w3.org/2000/svg">
<g clip-path="url(#clip0_6828_24136)">
<g clip-path="url(#clip1_6828_24136)">
<mask id="mask0_6828_24136" style="mask-type:luminance" maskUnits="userSpaceOnUse" x="0" y="0" width="34" height="35">
<path d="M33.76 0.40625H0V34.1662H33.76V0.40625Z" fill="white"/>
</mask>
<g mask="url(#mask0_6828_24136)">
<path d="M15.8262 4.40103H24.2096C27.222 4.40103 29.6632 6.81627 29.6632 9.79665V11.41C29.6632 11.6395 29.8511 11.8254 30.0831 11.8254H33.2786C33.5104 11.8254 33.6985 11.6395 33.6985 11.41V7.99729C33.6985 7.30896 33.4226 6.65201 32.9319 6.16655L27.8762 1.16464C27.3831 0.674343 26.7265 0.40625 26.0282 0.40625H15.8262V4.40103Z" fill="white"/>
<path d="M15.8262 30.1634H24.2097C27.2222 30.1634 29.6634 27.7481 29.6634 24.7677V18.7123C29.6634 18.4828 29.8512 18.2969 30.0832 18.2969H33.2788C33.5106 18.2969 33.6986 18.4828 33.6986 18.7123V26.5672C33.6986 27.2554 33.4228 27.9124 32.9321 28.3978L27.8764 33.3997C27.3833 33.89 26.7266 34.1581 26.0284 34.1581H15.8262V30.1634Z" fill="white"/>
<path d="M17.0515 0.40625H7.67012C6.98173 0.40625 6.30795 0.684005 5.82218 1.16464L0.7665 6.16655C0.275825 6.65201 0 7.30896 0 7.99486V17.2862H4.03767V9.79665C4.03767 6.81627 6.47886 4.40103 9.49126 4.40103H17.0515V0.40625Z" fill="white"/>
<path d="M17.0515 34.1734H7.67012C6.98173 34.1734 6.30795 33.8956 5.82218 33.415L0.7665 28.413C0.275825 27.9276 0 27.2707 0 26.5847V16.7969H4.03767V24.7829C4.03767 27.7634 6.47886 30.1786 9.49126 30.1786H17.0515V34.1734Z" fill="white"/>
<path d="M12.3407 19.946C13.5385 19.946 14.5096 18.9516 14.5096 17.7249C14.5096 16.4983 13.5385 15.5039 12.3407 15.5039C11.1429 15.5039 10.1719 16.4983 10.1719 17.7249C10.1719 18.9516 11.1429 19.946 12.3407 19.946Z" fill="white"/>
<path d="M22.0594 19.946C23.2572 19.946 24.2283 18.9516 24.2283 17.7249C24.2283 16.4983 23.2572 15.5039 22.0594 15.5039C20.8616 15.5039 19.8906 16.4983 19.8906 17.7249C19.8906 18.9516 20.8616 19.946 22.0594 19.946Z" fill="white"/>
</g>
<path d="M46.9473 17.9154C46.9473 23.1001 49.965 25.8216 53.9419 25.8216H55.8604C58.8545 25.8216 61.6387 23.8274 62.1999 19.9799H60.0245C59.5566 22.1383 57.8486 23.7336 54.9009 23.7336C50.4563 23.7336 49.0527 20.9418 49.0527 17.7278V16.5078C49.0527 13.2938 50.4563 10.4316 54.9009 10.4316C57.6149 10.4316 59.3224 11.8392 59.8837 13.8099H62.1298C61.4045 10.3143 58.691 8.41406 55.8604 8.41406H53.9419C49.965 8.41406 46.9473 11.1354 46.9473 16.3201V17.9154Z" fill="white"/>
<path d="M70.7037 13.8099C69.347 13.8099 67.7328 14.631 66.8904 15.8275V8.41406H64.7852V25.4462H66.8904V19.5577C66.8904 16.6721 68.8559 15.8275 70.0253 15.8275C71.9903 15.8275 72.8327 16.719 72.8327 18.8304V25.4462H74.9379V18.455C74.9379 14.9594 72.6454 13.8099 70.7037 13.8099Z" fill="white"/>
<path d="M88.1331 22.5592V18.4537C88.1331 14.9581 86.3317 13.8086 84.2496 13.8086H81.9571C79.6646 13.8086 78.0505 15.5212 78.0505 17.2338H80.1557C80.1557 16.4831 80.9981 15.8262 82.1676 15.8262H83.5713C85.6533 15.8262 85.9809 16.7411 86.0273 18.313H82.2146C79.4774 18.313 77.7461 19.7675 77.7461 21.832V22.09C77.7461 24.9522 80.0386 25.7968 82.2146 25.7968C83.6646 25.7968 85.4191 25.4449 86.2146 24.2249C86.6825 25.4214 87.969 25.4449 89.0451 25.4449V23.4273C88.6242 23.4273 88.1331 23.2865 88.1331 22.5592ZM82.8929 23.7792C80.6938 23.7792 79.8519 23.31 79.8519 21.9962C79.8519 21.2455 80.2728 20.0959 82.8929 20.0959H86.0273V21.9493C86.0273 23.4508 83.8287 23.7792 82.8929 23.7792Z" fill="white"/>
<path d="M92.7664 11.2293C93.5387 11.2293 94.1701 10.6193 94.1701 9.84512C94.1701 9.07096 93.5387 8.41406 92.7664 8.41406C91.9947 8.41406 91.3633 9.07096 91.3633 9.84512C91.3633 10.6193 91.9947 11.2293 92.7664 11.2293ZM91.7141 25.4462H93.8193V14.1853H91.7141V25.4462Z" fill="white"/>
<path d="M103.348 13.8086C101.921 13.8086 100.19 14.7235 99.3946 16.0373V14.184H97.4297V25.4449H99.5355V19.5563C99.5355 16.6708 101.5 15.8262 102.67 15.8262C104.635 15.8262 105.477 16.7177 105.477 18.8291V25.4449H107.582V18.4537C107.582 14.9581 105.29 13.8086 103.348 13.8086Z" fill="white"/>
<path d="M126.071 16.9067C126.007 16.9067 118.375 16.9067 118.375 16.9067V18.9242H123.896V18.9711C123.568 21.6222 122.095 23.7336 118.235 23.7336C113.79 23.7336 112.387 20.9418 112.387 17.7278V16.5078C112.387 13.2938 113.79 10.4316 118.235 10.4316C121.416 10.4316 122.914 11.8862 123.592 13.9038H125.815C124.996 10.3612 122.492 8.41406 119.194 8.41406H117.276C113.299 8.41406 110.281 11.1354 110.281 16.3201V17.9154C110.281 23.1001 113.299 25.8216 117.276 25.8216H119.194C121.229 25.8216 123.007 25.0943 124.224 23.7101C125.44 22.326 126.509 19.6712 126.071 16.9067Z" fill="white"/>
<path d="M137.052 8.78516H129.426V25.4419H131.531V19.3188H137.052C139.696 19.3188 142.339 18.1692 142.339 14.0637C142.339 10.1693 139.696 8.78516 137.052 8.78516ZM136.608 17.3012H131.531V10.8262H136.608C139.275 10.8262 140.117 12.1869 140.117 14.0637C140.117 15.9405 139.275 17.3012 136.608 17.3012Z" fill="white"/>
<path d="M156.138 8.78516H143.271V10.8027H148.652V25.4419H150.757V10.8027H156.138V8.78516Z" fill="white"/>
<path d="M12.1334 20.0208C13.2988 20.0208 14.2434 19.0761 14.2434 17.9107C14.2434 16.7454 13.2988 15.8008 12.1334 15.8008C10.9681 15.8008 10.0234 16.7454 10.0234 17.9107C10.0234 19.0761 10.9681 20.0208 12.1334 20.0208Z" fill="white"/>
<path d="M21.6276 20.0208C22.7929 20.0208 23.7376 19.0761 23.7376 17.9107C23.7376 16.7454 22.7929 15.8008 21.6276 15.8008C20.4623 15.8008 19.5176 16.7454 19.5176 17.9107C19.5176 19.0761 20.4623 20.0208 21.6276 20.0208Z" fill="white"/>
</g>
<path d="M54.1887 43V35.3H55.3547V43H54.1887ZM56.8732 43V37.544H57.9072L57.9952 38.501C58.1639 38.1637 58.4096 37.8997 58.7322 37.709C59.0622 37.511 59.4399 37.412 59.8652 37.412C60.5252 37.412 61.0422 37.6173 61.4162 38.028C61.7976 38.4387 61.9882 39.051 61.9882 39.865V43H60.8332V39.986C60.8332 38.93 60.4006 38.402 59.5352 38.402C59.1026 38.402 58.7432 38.556 58.4572 38.864C58.1786 39.172 58.0392 39.612 58.0392 40.184V43H56.8732ZM65.9465 43.132C65.4112 43.132 64.9308 43.011 64.5055 42.769C64.0875 42.527 63.7575 42.1933 63.5155 41.768C63.2808 41.3353 63.1635 40.8367 63.1635 40.272C63.1635 39.7073 63.2808 39.2123 63.5155 38.787C63.7575 38.3543 64.0875 38.017 64.5055 37.775C64.9308 37.533 65.4112 37.412 65.9465 37.412C66.6212 37.412 67.1858 37.588 67.6405 37.94C68.1025 38.292 68.3995 38.7687 68.5315 39.37H67.3105C67.2372 39.0693 67.0758 38.8347 66.8265 38.666C66.5772 38.4973 66.2838 38.413 65.9465 38.413C65.6605 38.413 65.3965 38.4863 65.1545 38.633C64.9125 38.7723 64.7182 38.9813 64.5715 39.26C64.4248 39.5313 64.3515 39.8687 64.3515 40.272C64.3515 40.6753 64.4248 41.0163 64.5715 41.295C64.7182 41.5663 64.9125 41.7753 65.1545 41.922C65.3965 42.0687 65.6605 42.142 65.9465 42.142C66.2838 42.142 66.5772 42.0577 66.8265 41.889C67.0758 41.7203 67.2372 41.482 67.3105 41.174H68.5315C68.4068 41.7607 68.1135 42.2337 67.6515 42.593C67.1895 42.9523 66.6212 43.132 65.9465 43.132ZM71.8091 43.132C71.1491 43.132 70.6284 42.9267 70.2471 42.516C69.8731 42.1053 69.6861 41.493 69.6861 40.679V37.544H70.8521V40.558C70.8521 41.614 71.2847 42.142 72.1501 42.142C72.5827 42.142 72.9384 41.988 73.2171 41.68C73.4957 41.372 73.6351 40.932 73.6351 40.36V37.544H74.8011V43H73.7671L73.6791 42.043C73.5104 42.3803 73.2611 42.648 72.9311 42.846C72.6084 43.0367 72.2344 43.132 71.8091 43.132ZM79.3534 43.132C78.928 43.132 78.5504 43.0477 78.2204 42.879C77.8977 42.7103 77.641 42.472 77.4504 42.164L77.3294 43H76.2844V35.08H77.4504V38.391C77.6264 38.1343 77.8684 37.907 78.1764 37.709C78.4844 37.511 78.8804 37.412 79.3644 37.412C79.8924 37.412 80.358 37.5367 80.7614 37.786C81.1647 38.0353 81.48 38.3763 81.7074 38.809C81.942 39.2417 82.0594 39.733 82.0594 40.283C82.0594 40.833 81.942 41.3243 81.7074 41.757C81.48 42.1823 81.1647 42.5197 80.7614 42.769C80.358 43.011 79.8887 43.132 79.3534 43.132ZM79.1554 42.12C79.654 42.12 80.0647 41.9513 80.3874 41.614C80.71 41.2693 80.8714 40.822 80.8714 40.272C80.8714 39.9127 80.798 39.5937 80.6514 39.315C80.5047 39.0363 80.303 38.82 80.0464 38.666C79.7897 38.5047 79.4927 38.424 79.1554 38.424C78.6567 38.424 78.246 38.5963 77.9234 38.941C77.608 39.2857 77.4504 39.7293 77.4504 40.272C77.4504 40.822 77.608 41.2693 77.9234 41.614C78.246 41.9513 78.6567 42.12 79.1554 42.12ZM85.1685 43.132C84.7065 43.132 84.3252 43.055 84.0245 42.901C83.7238 42.747 83.5002 42.5453 83.3535 42.296C83.2068 42.0393 83.1335 41.7607 83.1335 41.46C83.1335 40.932 83.3388 40.514 83.7495 40.206C84.1602 39.898 84.7468 39.744 85.5095 39.744H86.9395V39.645C86.9395 39.2197 86.8222 38.9007 86.5875 38.688C86.3602 38.4753 86.0632 38.369 85.6965 38.369C85.3738 38.369 85.0915 38.4497 84.8495 38.611C84.6148 38.765 84.4718 38.996 84.4205 39.304H83.2545C83.2912 38.908 83.4232 38.5707 83.6505 38.292C83.8852 38.006 84.1785 37.7897 84.5305 37.643C84.8898 37.489 85.2822 37.412 85.7075 37.412C86.4702 37.412 87.0605 37.6137 87.4785 38.017C87.8965 38.413 88.1055 38.9557 88.1055 39.645V43H87.0935L86.9945 42.065C86.8405 42.3657 86.6168 42.6187 86.3235 42.824C86.0302 43.0293 85.6452 43.132 85.1685 43.132ZM85.3995 42.186C85.7148 42.186 85.9788 42.1127 86.1915 41.966C86.4115 41.812 86.5802 41.6103 86.6975 41.361C86.8222 41.1117 86.8992 40.8367 86.9285 40.536H85.6305C85.1685 40.536 84.8385 40.6167 84.6405 40.778C84.4498 40.9393 84.3545 41.141 84.3545 41.383C84.3545 41.6323 84.4462 41.8303 84.6295 41.977C84.8202 42.1163 85.0768 42.186 85.3995 42.186ZM91.6456 43C91.1103 43 90.6849 42.8717 90.3696 42.615C90.0543 42.351 89.8966 41.8853 89.8966 41.218V38.523H88.9616V37.544H89.8966L90.0396 36.158H91.0626V37.544H92.6026V38.523H91.0626V41.218C91.0626 41.5187 91.1249 41.7277 91.2496 41.845C91.3816 41.955 91.6053 42.01 91.9206 42.01H92.5476V43H91.6456ZM94.4649 36.51C94.2449 36.51 94.0615 36.444 93.9149 36.312C93.7755 36.1727 93.7059 36.0003 93.7059 35.795C93.7059 35.5897 93.7755 35.421 93.9149 35.289C94.0615 35.1497 94.2449 35.08 94.4649 35.08C94.6849 35.08 94.8645 35.1497 95.0039 35.289C95.1505 35.421 95.2239 35.5897 95.2239 35.795C95.2239 36.0003 95.1505 36.1727 95.0039 36.312C94.8645 36.444 94.6849 36.51 94.4649 36.51ZM93.8819 43V37.544H95.0479V43H93.8819ZM99.1391 43.132C98.6184 43.132 98.1491 43.0147 97.7311 42.78C97.3204 42.538 96.9941 42.2043 96.7521 41.779C96.5101 41.3463 96.3891 40.844 96.3891 40.272C96.3891 39.7 96.5101 39.2013 96.7521 38.776C97.0014 38.3433 97.3351 38.0097 97.7531 37.775C98.1711 37.533 98.6368 37.412 99.1501 37.412C99.6708 37.412 100.136 37.533 100.547 37.775C100.965 38.0097 101.295 38.3433 101.537 38.776C101.786 39.2013 101.911 39.7 101.911 40.272C101.911 40.844 101.786 41.3463 101.537 41.779C101.295 42.2043 100.965 42.538 100.547 42.78C100.129 43.0147 99.6598 43.132 99.1391 43.132ZM99.1391 42.131C99.4178 42.131 99.6744 42.0613 99.9091 41.922C100.151 41.7827 100.345 41.5773 100.492 41.306C100.639 41.0273 100.712 40.6827 100.712 40.272C100.712 39.8613 100.639 39.5203 100.492 39.249C100.353 38.9703 100.162 38.7613 99.9201 38.622C99.6854 38.4827 99.4288 38.413 99.1501 38.413C98.8714 38.413 98.6111 38.4827 98.3691 38.622C98.1344 38.7613 97.9438 38.9703 97.7971 39.249C97.6504 39.5203 97.5771 39.8613 97.5771 40.272C97.5771 40.6827 97.6504 41.0273 97.7971 41.306C97.9438 41.5773 98.1344 41.7827 98.3691 41.922C98.6038 42.0613 98.8604 42.131 99.1391 42.131ZM103.172 43V37.544H104.206L104.294 38.501C104.463 38.1637 104.708 37.8997 105.031 37.709C105.361 37.511 105.739 37.412 106.164 37.412C106.824 37.412 107.341 37.6173 107.715 38.028C108.096 38.4387 108.287 39.051 108.287 39.865V43H107.132V39.986C107.132 38.93 106.699 38.402 105.834 38.402C105.401 38.402 105.042 38.556 104.756 38.864C104.477 39.172 104.338 39.612 104.338 40.184V43H103.172ZM112.432 45.42V37.544H113.477L113.598 38.391C113.774 38.1343 114.016 37.907 114.324 37.709C114.632 37.511 115.028 37.412 115.512 37.412C116.04 37.412 116.505 37.5367 116.909 37.786C117.312 38.0353 117.627 38.3763 117.855 38.809C118.089 39.2417 118.207 39.733 118.207 40.283C118.207 40.833 118.089 41.3243 117.855 41.757C117.627 42.1823 117.312 42.5197 116.909 42.769C116.505 43.011 116.036 43.132 115.501 43.132C115.075 43.132 114.698 43.0477 114.368 42.879C114.045 42.7103 113.788 42.472 113.598 42.164V45.42H112.432ZM115.303 42.12C115.801 42.12 116.212 41.9513 116.535 41.614C116.857 41.2693 117.019 40.822 117.019 40.272C117.019 39.9127 116.945 39.5937 116.799 39.315C116.652 39.0363 116.45 38.82 116.194 38.666C115.937 38.5047 115.64 38.424 115.303 38.424C114.804 38.424 114.393 38.5963 114.071 38.941C113.755 39.2857 113.598 39.7293 113.598 40.272C113.598 40.822 113.755 41.2693 114.071 41.614C114.393 41.9513 114.804 42.12 115.303 42.12ZM121.316 43.132C120.854 43.132 120.473 43.055 120.172 42.901C119.871 42.747 119.648 42.5453 119.501 42.296C119.354 42.0393 119.281 41.7607 119.281 41.46C119.281 40.932 119.486 40.514 119.897 40.206C120.308 39.898 120.894 39.744 121.657 39.744H123.087V39.645C123.087 39.2197 122.97 38.9007 122.735 38.688C122.508 38.4753 122.211 38.369 121.844 38.369C121.521 38.369 121.239 38.4497 120.997 38.611C120.762 38.765 120.619 38.996 120.568 39.304H119.402C119.439 38.908 119.571 38.5707 119.798 38.292C120.033 38.006 120.326 37.7897 120.678 37.643C121.037 37.489 121.43 37.412 121.855 37.412C122.618 37.412 123.208 37.6137 123.626 38.017C124.044 38.413 124.253 38.9557 124.253 39.645V43H123.241L123.142 42.065C122.988 42.3657 122.764 42.6187 122.471 42.824C122.178 43.0293 121.793 43.132 121.316 43.132ZM121.547 42.186C121.862 42.186 122.126 42.1127 122.339 41.966C122.559 41.812 122.728 41.6103 122.845 41.361C122.97 41.1117 123.047 40.8367 123.076 40.536H121.778C121.316 40.536 120.986 40.6167 120.788 40.778C120.597 40.9393 120.502 41.141 120.502 41.383C120.502 41.6323 120.594 41.8303 120.777 41.977C120.968 42.1163 121.224 42.186 121.547 42.186ZM125.612 43V37.544H126.657L126.756 38.578C126.947 38.2187 127.211 37.9363 127.548 37.731C127.893 37.5183 128.307 37.412 128.791 37.412V38.633H128.472C128.15 38.633 127.86 38.688 127.603 38.798C127.354 38.9007 127.152 39.0803 126.998 39.337C126.852 39.5863 126.778 39.9347 126.778 40.382V43H125.612ZM132.079 43C131.544 43 131.119 42.8717 130.803 42.615C130.488 42.351 130.33 41.8853 130.33 41.218V38.523H129.395V37.544H130.33L130.473 36.158H131.496V37.544H133.036V38.523H131.496V41.218C131.496 41.5187 131.559 41.7277 131.683 41.845C131.815 41.955 132.039 42.01 132.354 42.01H132.981V43H132.079ZM134.238 43V37.544H135.272L135.36 38.501C135.529 38.1637 135.775 37.8997 136.097 37.709C136.427 37.511 136.805 37.412 137.23 37.412C137.89 37.412 138.407 37.6173 138.781 38.028C139.163 38.4387 139.353 39.051 139.353 39.865V43H138.198V39.986C138.198 38.93 137.766 38.402 136.9 38.402C136.468 38.402 136.108 38.556 135.822 38.864C135.544 39.172 135.404 39.612 135.404 40.184V43H134.238ZM143.279 43.132C142.743 43.132 142.267 43.0147 141.849 42.78C141.438 42.538 141.115 42.2043 140.881 41.779C140.646 41.3537 140.529 40.8587 140.529 40.294C140.529 39.722 140.642 39.2197 140.87 38.787C141.104 38.3543 141.427 38.017 141.838 37.775C142.256 37.533 142.74 37.412 143.29 37.412C143.825 37.412 144.291 37.533 144.687 37.775C145.083 38.0097 145.391 38.325 145.611 38.721C145.831 39.117 145.941 39.5533 145.941 40.03C145.941 40.1033 145.937 40.184 145.93 40.272C145.93 40.3527 145.926 40.4443 145.919 40.547H141.673C141.709 41.075 141.882 41.4783 142.19 41.757C142.505 42.0283 142.868 42.164 143.279 42.164C143.609 42.164 143.884 42.0907 144.104 41.944C144.331 41.79 144.5 41.5847 144.61 41.328H145.776C145.629 41.8413 145.336 42.2703 144.896 42.615C144.463 42.9597 143.924 43.132 143.279 43.132ZM143.279 38.369C142.89 38.369 142.545 38.4863 142.245 38.721C141.944 38.9483 141.761 39.293 141.695 39.755H144.775C144.753 39.3297 144.602 38.9923 144.324 38.743C144.045 38.4937 143.697 38.369 143.279 38.369ZM147.151 43V37.544H148.196L148.295 38.578C148.485 38.2187 148.749 37.9363 149.087 37.731C149.431 37.5183 149.846 37.412 150.33 37.412V38.633H150.011C149.688 38.633 149.398 38.688 149.142 38.798C148.892 38.9007 148.691 39.0803 148.537 39.337C148.39 39.5863 148.317 39.9347 148.317 40.382V43H147.151Z" fill="white"/>
<rect x="47.5" y="31.5" width="109" height="16" rx="8" stroke="url(#paint0_linear_6828_24136)"/>
</g>
<defs>
<linearGradient id="paint0_linear_6828_24136" x1="47" y1="42.1901" x2="157" y2="42.1901" gradientUnits="userSpaceOnUse">
<stop stop-color="#6960DE"/>
<stop offset="0.239961" stop-color="#74EBD2"/>
<stop offset="0.640952" stop-color="#F1D15B"/>
<stop offset="1" stop-color="#EA705E"/>
</linearGradient>
<clipPath id="clip0_6828_24136">
<rect width="157" height="48" fill="white"/>
</clipPath>
<clipPath id="clip1_6828_24136">
<rect width="157" height="35" fill="white"/>
</clipPath>
</defs>
</svg>
