<svg width="20" height="21" viewBox="0 0 20 21" fill="none" xmlns="http://www.w3.org/2000/svg">
<path fill-rule="evenodd" clip-rule="evenodd" d="M7.78648 4.98909C7.73861 4.98156 7.68994 4.9804 7.64176 4.98565C6.67923 5.09049 5.21449 5.60976 4.34993 6.07867C4.29262 6.10976 4.2413 6.1508 4.19837 6.19989C3.83945 6.61026 3.51385 7.28044 3.25823 7.91377C2.9955 8.56473 2.77792 9.25077 2.65393 9.74647C2.25035 11.36 2.02868 13.2979 2.00007 15.1346C1.99863 15.2266 2.02031 15.3175 2.06311 15.3988C2.40763 16.054 3.14734 16.6616 3.88874 17.1058C4.63847 17.555 5.51267 17.9102 6.21812 17.9784C6.38919 17.9949 6.55811 17.9303 6.67464 17.8041C6.85129 17.6126 7.15119 17.1658 7.37792 16.8187C7.48083 16.6613 7.57715 16.5109 7.65368 16.3905C8.41091 16.5284 9.36086 16.6079 10.5618 16.6079C11.7615 16.6079 12.7106 16.5285 13.4675 16.391C13.5439 16.5114 13.6401 16.6615 13.7429 16.8187C13.9697 17.1658 14.2696 17.6126 14.4461 17.8041C14.5627 17.9303 14.7316 17.9949 14.9027 17.9784C15.6081 17.9102 16.4823 17.555 17.2321 17.1058C17.9735 16.6616 18.7132 16.054 19.0578 15.3988C19.1005 15.3175 19.1222 15.2266 19.1208 15.1346C19.0922 13.2979 18.8704 11.36 18.4669 9.74647C18.343 9.25077 18.1253 8.56473 17.8626 7.91377C17.607 7.28044 17.2813 6.61026 16.9225 6.19989C16.8796 6.1508 16.8282 6.10976 16.7709 6.07867C15.9063 5.60976 14.4416 5.09049 13.479 4.98565C13.4309 4.9804 13.3822 4.98156 13.3343 4.98909C13.0983 5.02617 12.895 5.14784 12.7451 5.26108C12.5868 5.38064 12.4398 5.52784 12.3129 5.67675C12.129 5.89257 11.9513 6.15511 11.8368 6.40383C11.4456 6.37266 11.0211 6.35549 10.5618 6.35549C10.1015 6.35549 9.67609 6.37274 9.28412 6.40405C9.1696 6.15526 8.99183 5.89263 8.80788 5.67675C8.68099 5.52784 8.53397 5.38064 8.37572 5.26108C8.22581 5.14784 8.02252 5.02617 7.78648 4.98909ZM14.5873 16.1023C14.6118 16.1402 14.637 16.1789 14.6625 16.2179C14.8148 16.4511 14.9656 16.6748 15.0825 16.8377C15.5364 16.7355 16.1136 16.4955 16.6676 16.1635C17.2893 15.791 17.7817 15.3627 18.0196 14.9989C17.9824 13.2753 17.7697 11.4859 17.4012 10.013C17.2899 9.56803 17.0883 8.93025 16.844 8.32491C16.614 7.75518 16.3691 7.27273 16.1548 6.99534C15.4106 6.60972 14.2381 6.20195 13.4743 6.09216C13.4576 6.10191 13.4353 6.11636 13.4072 6.13757C13.3293 6.19644 13.2395 6.28301 13.1491 6.38918C13.1015 6.44493 13.0581 6.50092 13.0193 6.55514C13.3686 6.61901 13.6802 6.69544 13.9558 6.78026C14.7382 7.02097 15.3021 7.35142 15.5781 7.71941C15.7602 7.96208 15.711 8.30634 15.4683 8.48834C15.2256 8.67034 14.8814 8.62116 14.6994 8.37849C14.6321 8.2888 14.3379 8.04712 13.6327 7.83014C12.9525 7.62084 11.9504 7.45395 10.5618 7.45395C9.17321 7.45395 8.17113 7.62084 7.49087 7.83014C6.7857 8.04712 6.49153 8.2888 6.42426 8.37849C6.24225 8.62116 5.898 8.67034 5.65533 8.48834C5.41266 8.30634 5.36348 7.96208 5.54548 7.71941C5.82149 7.35142 6.38548 7.02097 7.16782 6.78026C7.44283 6.69563 7.75353 6.61937 8.10189 6.55559C8.06293 6.50124 8.01941 6.44509 7.97178 6.38918C7.8813 6.28301 7.79154 6.19644 7.71359 6.13757C7.68552 6.11636 7.66317 6.10191 7.64649 6.09216C6.88268 6.20195 5.71024 6.60972 4.96598 6.99534C4.75168 7.27273 4.50681 7.75518 4.27686 8.32491C4.03253 8.93025 3.83087 9.56803 3.71957 10.013C3.35117 11.4859 3.13843 13.2753 3.10124 14.9989C3.33908 15.3627 3.8315 15.791 4.45329 16.1635C5.0072 16.4955 5.58442 16.7355 6.03842 16.8377C6.15519 16.6748 6.306 16.4511 6.45835 16.2179C6.48405 16.1785 6.50937 16.1396 6.53406 16.1015C5.63612 15.783 5.15371 15.3444 4.84137 14.8759C4.67311 14.6235 4.74132 14.2825 4.9937 14.1142C5.2461 13.946 5.58709 14.0142 5.75535 14.2666C6.05441 14.7152 6.83567 15.5095 10.5618 15.5095C14.288 15.5095 15.0692 14.7153 15.3683 14.2666C15.5366 14.0142 15.8776 13.946 16.13 14.1142C16.3824 14.2825 16.4506 14.6235 16.2823 14.8759C15.9697 15.3448 15.4867 15.7838 14.5873 16.1023ZM6.64909 10.9235C6.92786 10.6233 7.30619 10.4537 7.7013 10.4518C8.09642 10.4537 8.47476 10.6233 8.75353 10.9235C9.0323 11.2237 9.18881 11.6301 9.18881 12.0538C9.18881 12.4774 9.0323 12.8838 8.75353 13.184C8.47476 13.4842 8.09642 13.6538 7.7013 13.6557C7.30619 13.6538 6.92786 13.4842 6.64909 13.184C6.37031 12.8838 6.2138 12.4774 6.2138 12.0538C6.2138 11.6301 6.37031 11.2237 6.64909 10.9235ZM13.4211 10.4518C13.026 10.4537 12.6476 10.6233 12.3689 10.9235C12.0901 11.2237 11.9336 11.6301 11.9336 12.0538C11.9336 12.4774 12.0901 12.8838 12.3689 13.184C12.6476 13.4842 13.026 13.6538 13.4211 13.6557C13.8162 13.6538 14.1945 13.4842 14.4733 13.184C14.7521 12.8838 14.9086 12.4774 14.9086 12.0538C14.9086 11.6301 14.7521 11.2237 14.4733 10.9235C14.1945 10.6233 13.8162 10.4537 13.4211 10.4518Z" fill="#EBEDF7"/>
</svg>
