<svg width="133" height="48" viewBox="0 0 133 48" fill="none" xmlns="http://www.w3.org/2000/svg">
<path d="M6.80568 13.128L11.1307 8.80312L15.4581 13.1303L17.9747 10.6137L11.1307 3.76953L4.28906 10.6114L6.80568 13.128Z" fill="white"/>
<path d="M5.03415 14.9072L2.51758 12.3906L0.000881518 14.9073L2.51745 17.4239L5.03415 14.9072Z" fill="white"/>
<path d="M6.80937 16.6779L11.1344 21.0028L15.4616 16.6758L17.9796 19.191L17.9784 19.1924L11.1344 26.0364L4.29258 19.1947L4.28906 19.1912L6.80937 16.6779Z" fill="white"/>
<path d="M19.7509 17.4269L22.2676 14.9102L19.751 12.3936L17.2343 14.9103L19.7509 17.4269Z" fill="white"/>
<path d="M13.6877 14.9092H13.6888L11.135 12.3555L9.2478 14.2427H9.24762L9.03091 14.4596L8.5836 14.9069L8.58008 14.9104L8.5836 14.9141L11.135 17.4656L13.6888 14.9118L13.69 14.9104L13.6877 14.9092Z" fill="white"/>
<path d="M26.1875 9.16797H31.661C33.0195 9.16797 34.0468 9.5166 34.743 10.2139C35.2818 10.7539 35.5511 11.4232 35.5511 12.2216V12.2554C35.5511 12.5928 35.5094 12.8909 35.4255 13.1495C35.3417 13.4084 35.2299 13.6415 35.09 13.8496C34.9505 14.0578 34.7884 14.2406 34.604 14.3979C34.4195 14.5555 34.2213 14.6906 34.0089 14.8028C34.6918 15.0617 35.2293 15.413 35.6213 15.8573C36.013 16.3018 36.2091 16.9176 36.2091 17.7048V17.7384C36.2091 18.2784 36.1053 18.7507 35.8976 19.1558C35.6899 19.5606 35.3922 19.8981 35.0047 20.1681C34.6172 20.4381 34.1512 20.6404 33.6067 20.7755C33.0621 20.9104 32.4585 20.9778 31.7963 20.9778H26.1875V9.16797ZM31.1138 13.9425C31.6876 13.9425 32.1432 13.8443 32.4804 13.6473C32.8177 13.4505 32.9864 13.1326 32.9864 12.6941V12.6603C32.9864 12.2668 32.8401 11.966 32.5477 11.7578C32.2552 11.5497 31.8334 11.4455 31.2825 11.4455H28.718V13.9425H31.1138ZM31.8056 18.7004C32.3792 18.7004 32.8288 18.5966 33.1553 18.3884C33.4814 18.1803 33.6447 17.8568 33.6447 17.4181V17.3845C33.6447 16.9908 33.4927 16.6788 33.1891 16.448C32.8853 16.2177 32.3961 16.1023 31.7212 16.1023H28.718V18.7006L31.8056 18.7004Z" fill="white"/>
<path d="M39.4668 9.16797H42.0652V20.9781H39.4668V9.16797Z" fill="white"/>
<path d="M46.0039 9.16797H48.3993L53.9334 16.4397V9.16797H56.4978V20.9781H54.2878L48.5682 13.4703V20.9781H46.0039V9.16797Z" fill="white"/>
<path d="M64.3685 9.07812H66.7641L71.8259 20.9726H69.1094L68.0296 18.3238H63.0356L61.9559 20.9726H59.3066L64.3685 9.07812ZM67.1017 16.029L65.5325 12.1993L63.9638 16.029H67.1017Z" fill="white"/>
<path d="M74.625 9.16797H77.0209L82.5546 16.4397V9.16797H85.1191V20.9781H82.9091L77.1895 13.4703V20.9781H74.625V9.16797Z" fill="white"/>
<path d="M94.473 21.168C93.6065 21.168 92.8026 21.0104 92.0602 20.6957C91.3177 20.3811 90.6767 19.9506 90.1369 19.405C89.5968 18.8595 89.1749 18.2155 88.8716 17.4732C88.5678 16.7308 88.416 15.9378 88.416 15.0942V15.0606C88.416 14.217 88.5678 13.427 88.8716 12.6901C89.175 11.9535 89.5968 11.3067 90.1369 10.75C90.6765 10.1932 91.3235 9.75435 92.0769 9.43386C92.8303 9.11337 93.6631 8.95312 94.5741 8.95312C95.1249 8.95312 95.6281 8.99833 96.0837 9.08804C96.5393 9.17828 96.9525 9.30176 97.324 9.45919C97.6953 9.6168 98.038 9.808 98.3534 10.0328C98.6677 10.258 98.9604 10.5053 99.2304 10.7753L97.5773 12.6817C97.1156 12.2657 96.6463 11.9392 96.1683 11.7032C95.6901 11.4671 95.1532 11.3489 94.5571 11.3489C94.0621 11.3489 93.6037 11.4446 93.1822 11.6358C92.7604 11.827 92.3975 12.0912 92.0938 12.4286C91.7903 12.766 91.5541 13.157 91.3851 13.6011C91.2167 14.0456 91.1325 14.5207 91.1325 15.0268V15.0604C91.1325 15.5665 91.2167 16.0448 91.3851 16.4944C91.5541 16.9445 91.787 17.338 92.0855 17.6754C92.3833 18.0127 92.7434 18.2801 93.165 18.4769C93.5872 18.6739 94.051 18.7721 94.5571 18.7721C95.2322 18.7721 95.8025 18.6484 96.2693 18.4009C96.7361 18.1538 97.2003 17.8162 97.6614 17.3886L99.3148 19.059C99.0111 19.3853 98.6957 19.6778 98.3701 19.9362C98.0438 20.1951 97.6867 20.4171 97.2985 20.6029C96.9106 20.7883 96.4857 20.9292 96.025 21.0245C95.5634 21.12 95.0463 21.168 94.473 21.168Z" fill="white"/>
<path d="M102.371 9.16797H111.262V11.4795H104.936V13.8753H110.503V16.1866H104.936V18.6668H111.347V20.9781H102.371V9.16797Z" fill="white"/>
<path d="M26.1875 42.9806V24.8803H35.1704C36.4784 24.8803 37.5655 25.0865 38.4316 25.4989C39.3036 25.9055 39.9547 26.4623 40.3848 27.1693C40.8208 27.8764 41.0388 28.6777 41.0388 29.5733C41.0388 30.3098 40.8974 30.9402 40.6146 31.4646C40.3318 31.9831 39.9518 32.4044 39.4745 32.7285C38.9972 33.0525 38.464 33.2852 37.8748 33.4267V33.6034C38.517 33.6388 39.1328 33.8362 39.722 34.1956C40.3171 34.5491 40.8031 35.0499 41.1802 35.698C41.5573 36.3462 41.7459 37.1298 41.7459 38.0489C41.7459 38.9858 41.519 39.8283 41.0653 40.5766C40.6117 41.319 39.9282 41.9053 39.0149 42.3354C38.1017 42.7655 36.9527 42.9806 35.5681 42.9806H26.1875ZM29.4664 40.2408H35.0466C36.2368 40.2408 37.0941 40.0139 37.6185 39.5603C38.1488 39.1007 38.4139 38.5115 38.4139 37.7926C38.4139 37.2565 38.2814 36.7733 38.0162 36.3432C37.7511 35.9072 37.374 35.5655 36.885 35.318C36.3959 35.0646 35.8126 34.938 35.135 34.938H29.4664V40.2408ZM29.4664 32.5782H34.7638C35.3295 32.5782 35.8391 32.4751 36.2928 32.2689C36.7465 32.0568 37.103 31.7592 37.3622 31.3762C37.6273 30.9874 37.7599 30.5278 37.7599 29.9975C37.7599 29.2963 37.5125 28.7189 37.0175 28.2652C36.5285 27.8116 35.8008 27.5847 34.8345 27.5847H29.4664V32.5782Z" fill="white"/>
<path d="M45.5939 42.9806V24.8803H53.4084C54.7989 24.8803 55.9655 25.1219 56.9083 25.605C57.8569 26.0881 58.5728 26.7657 59.0559 27.6377C59.5449 28.5039 59.7895 29.5144 59.7895 30.6692C59.7895 31.8299 59.542 32.8375 59.0471 33.6918C58.558 34.5402 57.8363 35.1972 56.8818 35.6627C55.9272 36.1223 54.7547 36.352 53.3642 36.352H47.5029V33.6299H52.9223C53.7354 33.6299 54.4012 33.518 54.9197 33.2941C55.4382 33.0643 55.8212 32.7314 56.0687 32.2954C56.322 31.8535 56.4487 31.3114 56.4487 30.6692C56.4487 30.027 56.322 29.479 56.0687 29.0253C55.8153 28.5657 55.4294 28.2181 54.9109 27.9824C54.3924 27.7409 53.7236 27.6201 52.9046 27.6201H48.8728V42.9806H45.5939ZM55.9714 34.7789L60.4523 42.9806H56.7934L52.392 34.7789H55.9714Z" fill="white"/>
<path d="M79.9768 33.9304C79.9768 35.8807 79.6115 37.5511 78.8809 38.9416C78.1561 40.3262 77.1663 41.3868 75.9113 42.1233C74.6622 42.8598 73.2451 43.228 71.6602 43.228C70.0752 43.228 68.6552 42.8598 67.4002 42.1233C66.1511 41.3809 65.1613 40.3174 64.4307 38.9328C63.7059 37.5422 63.3436 35.8748 63.3436 33.9304C63.3436 31.9802 63.7059 30.3127 64.4307 28.9281C65.1613 27.5376 66.1511 26.4741 67.4002 25.7376C68.6552 25.0011 70.0752 24.6328 71.6602 24.6328C73.2451 24.6328 74.6622 25.0011 75.9113 25.7376C77.1663 26.4741 78.1561 27.5376 78.8809 28.9281C79.6115 30.3127 79.9768 31.9802 79.9768 33.9304ZM76.6802 33.9304C76.6802 32.5576 76.4651 31.3998 76.035 30.4571C75.6108 29.5085 75.0216 28.7926 74.2674 28.3094C73.5132 27.8204 72.6441 27.5759 71.6602 27.5759C70.6762 27.5759 69.8071 27.8204 69.053 28.3094C68.2988 28.7926 67.7066 29.5085 67.2765 30.4571C66.8523 31.3998 66.6402 32.5576 66.6402 33.9304C66.6402 35.3033 66.8523 36.464 67.2765 37.4126C67.7066 38.3553 68.2988 39.0712 69.053 39.5603C69.8071 40.0434 70.6762 40.285 71.6602 40.285C72.6441 40.285 73.5132 40.0434 74.2674 39.5603C75.0216 39.0712 75.6108 38.3553 76.035 37.4126C76.4651 36.464 76.6802 35.3033 76.6802 33.9304Z" fill="white"/>
<path d="M84.0722 42.9806V24.8803H87.3511V33.1969H87.5721L94.6337 24.8803H98.6373L91.6376 33.0024L98.6992 42.9806H94.7574L89.3574 35.2208L87.3511 37.5894V42.9806H84.0722Z" fill="white"/>
<path d="M101.911 42.9806V24.8803H113.683V27.6289H105.19V32.5429H113.073V35.2915H105.19V40.2319H113.754V42.9806H101.911Z" fill="white"/>
<path d="M118.024 42.9806V24.8803H125.838C127.229 24.8803 128.395 25.1219 129.338 25.605C130.287 26.0881 131.003 26.7657 131.486 27.6377C131.975 28.5039 132.219 29.5144 132.219 30.6692C132.219 31.8299 131.972 32.8375 131.477 33.6918C130.988 34.5402 130.266 35.1972 129.312 35.6627C128.357 36.1223 127.185 36.352 125.794 36.352H119.933V33.6299H125.352C126.165 33.6299 126.831 33.518 127.35 33.2941C127.868 33.0643 128.251 32.7314 128.499 32.2954C128.752 31.8535 128.879 31.3114 128.879 30.6692C128.879 30.027 128.752 29.479 128.499 29.0253C128.245 28.5657 127.859 28.2181 127.341 27.9824C126.822 27.7409 126.154 27.6201 125.335 27.6201H121.303V42.9806H118.024ZM128.401 34.7789L132.882 42.9806H129.223L124.822 34.7789H128.401Z" fill="white"/>
</svg>
