<svg width="20" height="20" viewBox="0 0 20 20" fill="none" xmlns="http://www.w3.org/2000/svg">
<path fill-rule="evenodd" clip-rule="evenodd" d="M16.6667 3.9974L3.33333 3.99742C2.22876 3.99743 1.33333 4.89286 1.33333 5.99742V12.6641C1.33333 13.7687 2.22876 14.6641 3.33333 14.6641H10.0002C10.177 14.6641 10.3466 14.7343 10.4716 14.8594L13.3335 17.7213V15.3308C13.3335 14.9626 13.632 14.6641 14.0002 14.6641H16.6667C17.7712 14.6641 18.6667 13.7687 18.6667 12.6641V5.9974C18.6667 4.89282 17.7712 3.99739 16.6667 3.9974ZM3.33333 2.66409L16.6667 2.66406C18.5076 2.66406 20 4.15644 20 5.9974V12.6641C20 14.505 18.5076 15.9974 16.6667 15.9974H14.6668V19.3307C14.6668 19.6004 14.5044 19.8435 14.2553 19.9467C14.0062 20.0499 13.7194 19.9928 13.5288 19.8022L9.72404 15.9974H3.33333C1.49238 15.9974 0 14.505 0 12.6641V5.99742C0 4.15648 1.49238 2.6641 3.33333 2.66409Z" fill="white"/>
</svg>
