<svg width="22" height="22" viewBox="0 0 22 22" fill="none" xmlns="http://www.w3.org/2000/svg">
<path fill-rule="evenodd" clip-rule="evenodd" d="M11.0005 1.28326C8.06424 1.28326 5.6839 3.66361 5.6839 6.59992C5.6839 9.0239 7.30607 11.069 9.52405 11.7089C7.77293 11.9223 6.27095 12.5417 5.13948 13.6568C3.69934 15.0761 2.97021 17.189 2.97021 19.9463C2.97021 20.331 3.28212 20.6429 3.66687 20.6429C4.05161 20.6429 4.36352 20.331 4.36352 19.9463C4.36352 17.4236 5.02767 15.7232 6.11748 14.6492C7.20934 13.5731 8.83937 13.0163 11.0001 13.0163C13.1608 13.0163 14.7909 13.5731 15.8828 14.6492C16.9727 15.7232 17.6368 17.4236 17.6368 19.9463C17.6368 20.331 17.9487 20.6429 18.3334 20.6429C18.7182 20.6429 19.0301 20.331 19.0301 19.9463C19.0301 17.189 18.301 15.0761 16.8608 13.6568C15.7294 12.5418 14.2276 11.9224 12.4768 11.7089C14.6949 11.0692 16.3172 9.024 16.3172 6.59992C16.3172 3.66361 13.9369 1.28326 11.0005 1.28326ZM7.0772 6.59992C7.0772 4.43311 8.83374 2.67657 11.0005 2.67657C13.1674 2.67657 14.9239 4.43311 14.9239 6.59992C14.9239 8.76672 13.1674 10.5233 11.0005 10.5233C8.83374 10.5233 7.0772 8.76672 7.0772 6.59992Z" fill="#EBEDF7"/>
</svg>
