<svg version="1.2" xmlns="http://www.w3.org/2000/svg" viewBox="0 0 25 25" width="25" height="25"><style>.a{fill:#ebedf7}</style><path fill-rule="evenodd" class="a" d="m2.3 12c0-5.3 4.4-9.7 9.7-9.7 5.3 0 9.7 4.4 9.7 9.7 0 5.3-4.4 9.7-9.7 9.7-5.3 0-9.7-4.4-9.7-9.7zm4.6-0.6q0-1.6 0.4-3.1c-1.2 0.3-2.3 0.6-3.3 1.1q-0.3 1-0.3 2zm4.5 0v-3.6q-1.5 0.1-2.9 0.3-0.5 1.6-0.6 3.3zm4.8 0q-0.1-1.7-0.6-3.3-1.5-0.2-3-0.3v3.6zm-3.7-4.6q1.4 0 2.7 0.2c-0.6-1.2-1.3-2.4-2.3-3.3q-0.2 0-0.4 0zm7.8 4.6q-0.1-1.1-0.4-2c-0.9-0.5-2-0.9-3.2-1.1q0.4 1.5 0.5 3.1zm-4-4.3q1.6 0.3 3 0.9c-1-1.9-2.7-3.3-4.7-4q1.1 1.4 1.7 3.1zm-7.5-0.2q1.3-0.1 2.6-0.1v-3.2q-0.2 0-0.4 0c-0.9 1-1.7 2.1-2.2 3.3zm-2 5.6h-3.2q0.1 0.9 0.3 1.7c0.9 0.5 2.1 0.9 3.3 1.2q-0.3-1.4-0.4-2.9zm0.7 4q-1.7-0.4-3.1-0.9c1 2 2.8 3.6 4.9 4.3-0.8-1-1.3-2.2-1.8-3.4zm3.5 3.8q0.2 0 0.4 0v-3.4q-1.4-0.1-2.7-0.2c0.5 1.3 1.3 2.6 2.3 3.6zm0.4-7.8h-3.5q0 1.6 0.4 3.1 1.5 0.2 3.1 0.2zm1.1 4.3v3.5q0.2 0 0.4-0.1c1-1 1.8-2.2 2.4-3.6q-1.4 0.2-2.8 0.2zm3.7-4.3h-3.7v3.3q1.7 0 3.2-0.3 0.4-1.4 0.5-3zm0.3 3.9c-0.5 1.3-1.1 2.4-1.9 3.5 2.2-0.8 3.9-2.3 4.9-4.3q-1.4 0.5-3 0.8zm3.8-3.9h-3.1q-0.1 1.4-0.4 2.8c1.2-0.3 2.3-0.6 3.2-1.1q0.2-0.8 0.3-1.7zm-11-8.5c-2 0.7-3.7 2.1-4.7 4q1.4-0.6 3-0.9 0.7-1.7 1.7-3.1z"/></svg>