<svg width="14" height="10" viewBox="0 0 14 10" fill="none" xmlns="http://www.w3.org/2000/svg">
<g clip-path="url(#clip0_2527_16258)">
<mask id="mask0_2527_16258" style="mask-type:alpha" maskUnits="userSpaceOnUse" x="0" y="0" width="14" height="10">
<path d="M12.6667 0H1.33333C0.596954 0 0 0.596954 0 1.33333V8.66667C0 9.40305 0.596954 10 1.33333 10H12.6667C13.403 10 14 9.40305 14 8.66667V1.33333C14 0.596954 13.403 0 12.6667 0Z" fill="white"/>
</mask>
<g mask="url(#mask0_2527_16258)">
<path d="M12.6667 0H1.33333C0.596954 0 0 0.596954 0 1.33333V8.66667C0 9.40305 0.596954 10 1.33333 10H12.6667C13.403 10 14 9.40305 14 8.66667V1.33333C14 0.596954 13.403 0 12.6667 0Z" fill="white"/>
<path fill-rule="evenodd" clip-rule="evenodd" d="M9.33366 5C9.33366 6.28867 8.28899 7.33333 7.00033 7.33333C5.71166 7.33333 4.66699 6.28867 4.66699 5C4.66699 4.25333 6.23366 3.94 7.55233 4.058C7.69233 4.02067 7.84299 4 8.00033 4C8.73699 4 9.33366 4.448 9.33366 5Z" fill="#0048AB"/>
<path fill-rule="evenodd" clip-rule="evenodd" d="M6.66699 4.66602C6.66699 4.66602 7.26366 3.99935 8.00033 3.99935C8.73699 3.99935 9.33366 4.44735 9.33366 4.99935C9.33366 3.71068 8.28899 2.66602 7.00033 2.66602C6.06899 2.66602 5.26499 3.21135 4.89099 4.00068C4.66699 4.66602 4.66699 4.86068 4.66699 4.99935C5.00033 5.33268 5.37099 5.33268 5.66699 5.33268C5.96299 5.33268 6.22899 5.20402 6.41233 4.99935L6.66699 4.66602Z" fill="#CD0027"/>
<path fill-rule="evenodd" clip-rule="evenodd" d="M10.0003 3.33333H11.3337L10.0003 2H9.33366L10.0003 3.33333ZM4.00033 3.33333H2.66699L4.00033 2H4.66699L4.00033 3.33333ZM10.0003 6.66667H11.3337L10.0003 8H9.33366L10.0003 6.66667ZM4.00033 6.66667H2.66699L4.00033 8H4.66699L4.00033 6.66667Z" fill="#252526"/>
<path d="M12.6663 0.333984H1.33301C0.780723 0.333984 0.333008 0.7817 0.333008 1.33398V8.66732C0.333008 9.2196 0.780723 9.66732 1.33301 9.66732H12.6663C13.2186 9.66732 13.6663 9.2196 13.6663 8.66732V1.33398C13.6663 0.7817 13.2186 0.333984 12.6663 0.333984Z" stroke="black" stroke-opacity="0.1"/>
</g>
</g>
<defs>
<clipPath id="clip0_2527_16258">
<rect width="14" height="10" fill="white"/>
</clipPath>
</defs>
</svg>
