<svg version="1.2" xmlns="http://www.w3.org/2000/svg" viewBox="0 0 137 48" width="137" height="48"><style>.a{fill:#efefe5}</style><path fill-rule="evenodd" class="a" d="m107.8 24q0 1.2 0 2.2 0 1-0.2 2-0.2 0.9-0.5 1.7-0.5 0.8-1.1 1.5-1 0.9-2.3 1.5-1.3 0.5-2.8 0.5-1.5 0-2.8-0.5-1.3-0.6-2.3-1.5-0.6-0.7-1.1-1.5-0.4-0.8-0.5-1.7-0.2-1-0.2-2 0-1 0-2.2 0-1.2 0-2.2 0-1 0.2-2 0.1-0.9 0.5-1.7 0.5-0.8 1.1-1.5 1-0.9 2.3-1.5 1.3-0.5 2.8-0.5 1.5 0 2.8 0.5 1.3 0.6 2.3 1.5 0.6 0.7 1.1 1.5 0.3 0.8 0.5 1.7 0.2 1 0.2 2 0 1 0 2.2zm-3.7-2.2q0-0.7-0.1-1.4-0.1-0.5-0.3-0.9-0.2-0.4-0.4-0.7-0.5-0.5-1-0.7-0.7-0.3-1.4-0.3-0.7 0-1.3 0.3-0.6 0.2-1.1 0.7-0.2 0.3-0.4 0.7-0.2 0.4-0.3 0.9-0.1 0.7-0.1 1.4-0.1 0.9-0.1 2.2 0 1.3 0.1 2.2 0 0.7 0.1 1.4 0.1 0.5 0.3 1 0.2 0.3 0.4 0.6 0.5 0.5 1.1 0.7 0.6 0.3 1.3 0.3 0.7 0 1.4-0.3 0.5-0.2 1-0.7 0.2-0.3 0.4-0.6 0.2-0.5 0.3-1 0.1-0.7 0.1-1.4 0.1-0.9 0.1-2.2 0-1.3-0.1-2.2z"/><path class="a" d="m137 15.1c0-0.2-0.1-0.3-0.3-0.3h-3c-0.2 0-0.4 0.1-0.4 0.3v11l-7.3-11.3c-0.1 0-0.1 0-0.2 0h-2.8c-0.2 0-0.3 0.1-0.4 0.3v17.8c0.1 0.2 0.2 0.3 0.4 0.3h3c0.2 0 0.3-0.1 0.3-0.3v-11l7.4 11.3c0 0 0.1 0 0.2 0h2.8c0.2 0 0.3-0.1 0.3-0.3z"/><path class="a" d="m116.8 15.1c0-0.2-0.2-0.3-0.4-0.3h-3c-0.2 0-0.3 0.1-0.3 0.3v17.8c0 0.2 0.1 0.3 0.3 0.3h3c0.2 0 0.4-0.1 0.4-0.3z"/><path class="a" d="m80.6 24q0-1.3 0.1-2.2 0-0.7 0.1-1.4c0.3-1.6 1.5-2.6 3.1-2.6 1 0 2 0.4 2.6 1.3q0.4 0.6 0.5 1.3 0.1 0 0.1 0h3.6q0.1 0 0.1 0c-0.4-2.2-1.6-4.2-3.7-5.1-1-0.5-2.1-0.7-3.2-0.7q-3 0-5.1 2c-0.8 0.8-1.3 1.7-1.5 2.8q-0.3 1.6-0.3 4.6 0 3 0.3 4.6c0.2 1.1 0.7 2 1.5 2.8q2.1 2 5.1 2c1.1 0 2.2-0.2 3.2-0.7 2.1-0.9 3.3-2.9 3.7-5.1q0 0-0.1 0h-3.6q0 0-0.1 0-0.1 0.7-0.5 1.3c-0.6 0.9-1.6 1.3-2.6 1.3-1.6 0-2.8-1-3.1-2.5q-0.1-0.8-0.1-1.5-0.1-0.9-0.1-2.2z"/><path class="a" d="m43.1 15.1c0-0.2-0.1-0.3-0.3-0.3h-3c-0.2 0-0.3 0.1-0.3 0.3v17.8c0 0.2 0.1 0.3 0.3 0.3h3c0.2 0 0.3-0.1 0.3-0.3v-5.2l2.4-2.9 5 8.4q0.1 0 0.2 0h3.7c0.1 0 0.2-0.1 0.1-0.2l-6.5-10.9 5.9-7.1c0.2-0.1 0.1-0.2-0.1-0.2h-4q-0.1 0-0.1 0l-6.6 7.8z"/><path class="a" d="m65.1 30.2c-1.7 0-3.2-1.6-3.2-3.4v-11.7c0-0.2-0.2-0.3-0.4-0.3h-3c-0.2 0-0.3 0.1-0.3 0.3v11.6c0 4.1 3.1 6.7 6.9 6.7 3.8 0 6.9-2.6 6.9-6.7v-11.6c0-0.2-0.1-0.3-0.3-0.3h-3c-0.2 0-0.4 0.1-0.4 0.3v11.7c0 1.8-1.5 3.4-3.2 3.4z"/><path fill-rule="evenodd" class="a" d="m9.1 24l9.4 9.2 5.9-5.8c1.1-0.9 2.7-0.9 3.7 0.1 1 1 1 2.6 0.1 3.6l-7.8 7.7c-1.1 1.1-2.7 1.1-3.8 0l-11.3-11.1v6.6c0 1.5-1.1 2.7-2.6 2.7-1.5 0-2.7-1.2-2.7-2.7v-20.6c0-1.5 1.2-2.7 2.7-2.7 1.5 0 2.6 1.2 2.6 2.7v6.6l11.3-11.1c1.1-1.1 2.7-1.1 3.8 0l7.8 7.7c0.9 1 0.9 2.6-0.1 3.6-1 1-2.6 1-3.7 0.1l-5.9-5.8zm9.4-2.7c0.7 0 1.4 0.3 1.9 0.8 0.5 0.5 0.7 1.2 0.7 1.9 0 1-0.6 2-1.6 2.4-1 0.4-2.2 0.2-2.9-0.6-0.8-0.7-1-1.9-0.6-2.9 0.4-0.9 1.4-1.6 2.5-1.6z"/></svg>