<svg version="1.2" xmlns="http://www.w3.org/2000/svg" viewBox="0 0 101 48" width="101" height="48"><style>.a{fill:#fff}</style><path class="a" d="m71.3 8.2h5v25h-5z"/><path fill-rule="evenodd" class="a" d="m13.5 40.6h-10.7v-25h10.3c4.9 0 7.8 2.8 7.8 7 0 2.8-1.8 4.6-3.1 5.2 1.5 0.7 3.5 2.3 3.5 5.6 0 4.7-3.3 7.2-7.8 7.2zm-0.8-20.6h-4.9v5.7h4.9c2.1 0 3.3-1.1 3.3-2.9 0-1.7-1.2-2.8-3.3-2.8zm0.3 10.1h-5.2v6.1h5.2c2.2 0 3.3-1.4 3.3-3 0-1.7-1.1-3.1-3.3-3.1z"/><path class="a" d="m36.4 30.3v10.3h-4.9v-10.3l-7.7-14.7h5.4l4.8 10.1 4.7-10.1h5.3z"/><path fill-rule="evenodd" class="a" d="m58.1 40.6h-10.6v-25h10.2c5 0 7.8 2.8 7.8 7 0 2.8-1.8 4.6-3.1 5.2 1.5 0.7 3.5 2.3 3.5 5.6 0 4.7-3.2 7.2-7.8 7.2zm-0.8-20.6h-4.9v5.7h4.9c2.1 0 3.3-1.1 3.3-2.9 0-1.7-1.2-2.8-3.3-2.8zm0.3 10.1h-5.2v6.1h5.2c2.3 0 3.3-1.4 3.3-3 0-1.7-1-3.1-3.3-3.1z"/><path class="a" d="m92.3 20v20.6h-5v-20.6h-6.6v-4.4h18.2v4.4z"/></svg>