<svg width="88" height="24" viewBox="0 0 88 24" fill="none" xmlns="http://www.w3.org/2000/svg">
<g filter="url(#filter0_b_3195_2503)">
<path d="M34.8 12C34.8 14.136 34.1666 16.2241 32.9799 18.0001C31.7932 19.7762 30.1064 21.1604 28.133 21.9778C26.1596 22.7953 23.988 23.0092 21.893 22.5924C19.798 22.1757 17.8737 21.1471 16.3633 19.6367C14.8529 18.1263 13.8243 16.2019 13.4075 14.1069C12.9908 12.0119 13.2047 9.84041 14.0221 7.86697C14.8395 5.89353 16.2238 4.2068 17.9999 3.02008C19.7759 1.83336 21.864 1.19995 24 1.19995V5.9888C22.8111 5.9888 21.6489 6.34135 20.6604 7.00186C19.6719 7.66238 18.9014 8.60119 18.4464 9.69958C17.9915 10.798 17.8724 12.0066 18.1044 13.1727C18.3363 14.3387 18.9088 15.4098 19.7495 16.2505C20.5902 17.0911 21.6612 17.6637 22.8273 17.8956C23.9933 18.1275 25.202 18.0085 26.3004 17.5535C27.3988 17.0986 28.3376 16.3281 28.9981 15.3396C29.6586 14.351 30.0112 13.1888 30.0112 12H34.8Z" fill="white"/>
<rect x="24" y="6.00964" width="5.99024" height="5.99024" fill="white"/>
</g>
<path d="M49.9685 17.14C48.9045 17.14 47.9852 16.93 47.2105 16.51C46.4358 16.0807 45.8385 15.4833 45.4185 14.718C44.9985 13.9433 44.7885 13.038 44.7885 12.002C44.7885 10.966 44.9985 10.0607 45.4185 9.286C45.8385 8.502 46.4218 7.89067 47.1685 7.452C47.9152 7.004 48.7832 6.78 49.7725 6.78C50.5752 6.78 51.2938 6.92933 51.9285 7.228C52.5725 7.51733 53.0905 7.91867 53.4825 8.432C53.8838 8.936 54.1265 9.524 54.2105 10.196H52.3905C52.2972 9.59867 52.0172 9.12733 51.5505 8.782C51.0838 8.43667 50.5005 8.264 49.8005 8.264C49.1658 8.264 48.6105 8.41333 48.1345 8.712C47.6585 9.01067 47.2898 9.43533 47.0285 9.986C46.7672 10.5367 46.6365 11.1947 46.6365 11.96C46.6365 12.744 46.7672 13.416 47.0285 13.976C47.2992 14.5267 47.6865 14.9467 48.1905 15.236C48.7038 15.5253 49.3292 15.67 50.0665 15.67C50.6358 15.67 51.1258 15.6 51.5365 15.46C51.9472 15.3107 52.2785 15.0913 52.5305 14.802L54.2805 15.488C53.7485 16.0293 53.1325 16.44 52.4325 16.72C51.7325 17 50.9112 17.14 49.9685 17.14ZM52.4605 15.488V12.548L52.8945 12.982H50.0525V11.554H54.2805V15.488H52.4605ZM60.2425 17C60.1959 16.8133 60.1585 16.608 60.1305 16.384C60.1119 16.16 60.1025 15.8893 60.1025 15.572H60.0465V12.184C60.0465 11.8107 59.9392 11.5307 59.7245 11.344C59.5192 11.148 59.2019 11.05 58.7725 11.05C58.3525 11.05 58.0165 11.1293 57.7645 11.288C57.5219 11.4373 57.3725 11.6567 57.3165 11.946H55.6225C55.6972 11.2833 56.0145 10.7467 56.5745 10.336C57.1345 9.92533 57.8859 9.72 58.8285 9.72C59.8085 9.72 60.5505 9.944 61.0545 10.392C61.5585 10.8307 61.8105 11.4793 61.8105 12.338V15.572C61.8105 15.796 61.8245 16.0247 61.8525 16.258C61.8899 16.4913 61.9412 16.7387 62.0065 17H60.2425ZM57.7645 17.14C57.0459 17.14 56.4719 16.9627 56.0425 16.608C55.6225 16.244 55.4125 15.7587 55.4125 15.152C55.4125 14.4987 55.6505 13.9807 56.1265 13.598C56.6025 13.2153 57.2745 12.9587 58.1425 12.828L60.3685 12.492V13.612L58.4365 13.906C58.0165 13.9713 57.6992 14.088 57.4845 14.256C57.2792 14.424 57.1765 14.6573 57.1765 14.956C57.1765 15.2267 57.2745 15.4367 57.4705 15.586C57.6665 15.726 57.9372 15.796 58.2825 15.796C58.7865 15.796 59.2065 15.67 59.5425 15.418C59.8785 15.166 60.0465 14.858 60.0465 14.494L60.2425 15.572C60.0559 16.0853 59.7479 16.4773 59.3185 16.748C58.8985 17.0093 58.3805 17.14 57.7645 17.14ZM66.4067 17.14C65.5294 17.14 64.8807 16.9347 64.4607 16.524C64.05 16.104 63.8447 15.4787 63.8447 14.648V8.236L65.6227 7.578V14.69C65.6227 15.0353 65.716 15.292 65.9027 15.46C66.0894 15.628 66.3834 15.712 66.7847 15.712C66.9434 15.712 67.0834 15.7027 67.2047 15.684C67.3354 15.656 67.4567 15.6233 67.5687 15.586V16.958C67.4567 17.014 67.298 17.056 67.0927 17.084C66.8874 17.1213 66.6587 17.14 66.4067 17.14ZM62.4727 11.246V9.86H67.5687V11.246H62.4727ZM71.8754 17.14C71.1194 17.14 70.4568 16.9813 69.8874 16.664C69.3274 16.3467 68.8888 15.908 68.5714 15.348C68.2634 14.788 68.1094 14.144 68.1094 13.416C68.1094 12.688 68.2634 12.0487 68.5714 11.498C68.8888 10.938 69.3274 10.504 69.8874 10.196C70.4474 9.87867 71.1008 9.72 71.8474 9.72C72.5568 9.72 73.1728 9.86933 73.6954 10.168C74.2181 10.4573 74.6241 10.868 74.9134 11.4C75.2028 11.932 75.3474 12.5527 75.3474 13.262C75.3474 13.3927 75.3428 13.514 75.3334 13.626C75.3241 13.738 75.3101 13.85 75.2914 13.962H69.2014V12.73H73.9334L73.5694 13.066C73.5694 12.394 73.4154 11.89 73.1074 11.554C72.7994 11.218 72.3701 11.05 71.8194 11.05C71.2221 11.05 70.7461 11.2553 70.3914 11.666C70.0461 12.0767 69.8734 12.6693 69.8734 13.444C69.8734 14.2093 70.0461 14.7973 70.3914 15.208C70.7461 15.6093 71.2454 15.81 71.8894 15.81C72.2628 15.81 72.5894 15.74 72.8694 15.6C73.1494 15.46 73.3548 15.2453 73.4854 14.956H75.1514C74.9181 15.628 74.5214 16.16 73.9614 16.552C73.4108 16.944 72.7154 17.14 71.8754 17.14Z" fill="white"/>
<defs>
<filter id="filter0_b_3195_2503" x="-20" y="-32" width="88" height="88" filterUnits="userSpaceOnUse" color-interpolation-filters="sRGB">
<feFlood flood-opacity="0" result="BackgroundImageFix"/>
<feGaussianBlur in="BackgroundImageFix" stdDeviation="16"/>
<feComposite in2="SourceAlpha" operator="in" result="effect1_backgroundBlur_3195_2503"/>
<feBlend mode="normal" in="SourceGraphic" in2="effect1_backgroundBlur_3195_2503" result="shape"/>
</filter>
</defs>
</svg>
