<svg width="88" height="24" viewBox="0 0 88 24" fill="none" xmlns="http://www.w3.org/2000/svg">
<g filter="url(#filter0_b_3195_781)">
<path d="M20.4481 15.0481H15.0707L9.56959 9.58215C9.21173 9.22657 9.2099 8.64824 9.56594 8.29085L16.6208 1.19995H22.1602L20.4855 2.82807L14.3367 8.93813L20.4073 15.0482M18.2378 8.95226H23.6152L29.1163 14.4182C29.474 14.7738 29.4759 15.3521 29.1199 15.7095L22.065 22.7999H16.5256L18.2003 21.1718L24.3491 15.0618L18.2785 8.95171" fill="white"/>
</g>
<path d="M42.1437 17V15.656H44.9577C45.471 15.656 45.8677 15.516 46.1477 15.236C46.4277 14.9467 46.5677 14.5547 46.5677 14.06C46.5677 13.5467 46.4183 13.1407 46.1197 12.842C45.821 12.5433 45.4057 12.394 44.8737 12.394H42.1437V11.05H44.7477C45.2517 11.05 45.639 10.9287 45.9097 10.686C46.1803 10.4433 46.3157 10.0933 46.3157 9.636C46.3157 9.188 46.185 8.84733 45.9237 8.614C45.6717 8.38067 45.2983 8.264 44.8037 8.264H42.1437V6.92H45.1397C46.045 6.92 46.7683 7.14867 47.3097 7.606C47.8603 8.054 48.1357 8.66533 48.1357 9.44C48.1357 9.92533 48.019 10.35 47.7857 10.714C47.5617 11.0687 47.2583 11.344 46.8757 11.54C46.493 11.736 46.059 11.834 45.5737 11.834L45.6437 11.54C46.157 11.54 46.6237 11.6567 47.0437 11.89C47.4637 12.114 47.795 12.4313 48.0377 12.842C48.2897 13.2527 48.4157 13.7287 48.4157 14.27C48.4157 14.8207 48.285 15.3013 48.0237 15.712C47.7717 16.1227 47.4123 16.44 46.9457 16.664C46.4883 16.888 45.947 17 45.3217 17H42.1437ZM40.7157 17V6.92H42.5357V17H40.7157ZM49.7818 17V9.86H51.5458V17H49.7818ZM49.6978 8.684V6.738H51.6158V8.684H49.6978ZM56.5424 17.14C55.6651 17.14 55.0164 16.9347 54.5964 16.524C54.1858 16.104 53.9804 15.4787 53.9804 14.648V8.236L55.7584 7.578V14.69C55.7584 15.0353 55.8518 15.292 56.0384 15.46C56.2251 15.628 56.5191 15.712 56.9204 15.712C57.0791 15.712 57.2191 15.7027 57.3404 15.684C57.4711 15.656 57.5924 15.6233 57.7044 15.586V16.958C57.5924 17.014 57.4338 17.056 57.2284 17.084C57.0231 17.1213 56.7944 17.14 56.5424 17.14ZM52.6084 11.246V9.86H57.7044V11.246H52.6084ZM61.9959 20.01C61.0532 20.01 60.2785 19.8047 59.6719 19.394C59.0745 18.9833 58.7199 18.428 58.6079 17.728H60.2879C60.3719 17.9707 60.5539 18.1573 60.8339 18.288C61.1232 18.428 61.4965 18.498 61.9539 18.498C62.6165 18.498 63.1065 18.3487 63.4239 18.05C63.7412 17.7607 63.8999 17.3173 63.8999 16.72V15.18L64.0259 15.208C63.9139 15.7307 63.6292 16.1507 63.1719 16.468C62.7145 16.776 62.1545 16.93 61.4919 16.93C60.8572 16.93 60.3019 16.7807 59.8259 16.482C59.3592 16.1833 58.9952 15.768 58.7339 15.236C58.4725 14.6947 58.3419 14.0647 58.3419 13.346C58.3419 12.618 58.4772 11.9833 58.7479 11.442C59.0185 10.9007 59.3965 10.4807 59.8819 10.182C60.3765 9.874 60.9505 9.72 61.6039 9.72C62.2759 9.72 62.8265 9.88333 63.2559 10.21C63.6945 10.5273 63.9652 10.9707 64.0679 11.54L63.9559 11.554V9.86H65.6779V16.706C65.6779 17.7233 65.3465 18.526 64.6839 19.114C64.0305 19.7113 63.1345 20.01 61.9959 20.01ZM62.0659 15.53C62.6352 15.53 63.0879 15.3387 63.4239 14.956C63.7692 14.564 63.9419 14.018 63.9419 13.318C63.9419 12.618 63.7692 12.0767 63.4239 11.694C63.0785 11.3113 62.6212 11.12 62.0519 11.12C61.4919 11.12 61.0392 11.316 60.6939 11.708C60.3485 12.0907 60.1759 12.632 60.1759 13.332C60.1759 14.032 60.3485 14.5733 60.6939 14.956C61.0392 15.3387 61.4965 15.53 62.0659 15.53ZM70.7612 17.14C70.0052 17.14 69.3425 16.9813 68.7732 16.664C68.2132 16.3467 67.7745 15.908 67.4572 15.348C67.1492 14.788 66.9952 14.144 66.9952 13.416C66.9952 12.688 67.1492 12.0487 67.4572 11.498C67.7745 10.938 68.2132 10.504 68.7732 10.196C69.3332 9.87867 69.9865 9.72 70.7332 9.72C71.4425 9.72 72.0585 9.86933 72.5812 10.168C73.1039 10.4573 73.5099 10.868 73.7992 11.4C74.0885 11.932 74.2332 12.5527 74.2332 13.262C74.2332 13.3927 74.2285 13.514 74.2192 13.626C74.2099 13.738 74.1959 13.85 74.1772 13.962H68.0872V12.73H72.8192L72.4552 13.066C72.4552 12.394 72.3012 11.89 71.9932 11.554C71.6852 11.218 71.2559 11.05 70.7052 11.05C70.1079 11.05 69.6319 11.2553 69.2772 11.666C68.9319 12.0767 68.7592 12.6693 68.7592 13.444C68.7592 14.2093 68.9319 14.7973 69.2772 15.208C69.6319 15.6093 70.1312 15.81 70.7752 15.81C71.1485 15.81 71.4752 15.74 71.7552 15.6C72.0352 15.46 72.2405 15.2453 72.3712 14.956H74.0372C73.8039 15.628 73.4072 16.16 72.8472 16.552C72.2965 16.944 71.6012 17.14 70.7612 17.14ZM78.6088 17.14C77.7315 17.14 77.0828 16.9347 76.6628 16.524C76.2522 16.104 76.0468 15.4787 76.0468 14.648V8.236L77.8248 7.578V14.69C77.8248 15.0353 77.9182 15.292 78.1048 15.46C78.2915 15.628 78.5855 15.712 78.9868 15.712C79.1455 15.712 79.2855 15.7027 79.4068 15.684C79.5375 15.656 79.6588 15.6233 79.7708 15.586V16.958C79.6588 17.014 79.5002 17.056 79.2948 17.084C79.0895 17.1213 78.8608 17.14 78.6088 17.14ZM74.6748 11.246V9.86H79.7708V11.246H74.6748Z" fill="white"/>
<defs>
<filter id="filter0_b_3195_781" x="-24.5" y="-32" width="88" height="88" filterUnits="userSpaceOnUse" color-interpolation-filters="sRGB">
<feFlood flood-opacity="0" result="BackgroundImageFix"/>
<feGaussianBlur in="BackgroundImageFix" stdDeviation="16"/>
<feComposite in2="SourceAlpha" operator="in" result="effect1_backgroundBlur_3195_781"/>
<feBlend mode="normal" in="SourceGraphic" in2="effect1_backgroundBlur_3195_781" result="shape"/>
</filter>
</defs>
</svg>
