<svg width="90" height="24" viewBox="0 0 90 24" fill="none" xmlns="http://www.w3.org/2000/svg">
<g filter="url(#filter0_b_3195_2463)">
<g clip-path="url(#clip0_3195_2463)">
<path fill-rule="evenodd" clip-rule="evenodd" d="M5.54751 4.57495C5.21001 2.81995 6.56001 1.19995 8.31501 1.19995C9.86751 1.19995 11.15 2.48245 11.15 4.03495V7.54495C11.3525 7.54495 11.555 7.52808 11.7575 7.5112C11.96 7.49433 12.1625 7.47745 12.365 7.47745C12.77 7.47745 13.1075 7.47745 13.5125 7.54495V4.03495C13.5125 2.48245 14.795 1.19995 16.3475 1.19995C18.1025 1.19995 19.4525 2.81995 19.1825 4.57495L18.44 8.69245C21.0725 9.83995 23.0975 11.865 23.0975 14.3625V15.915C23.0975 18.0075 21.7475 19.7624 19.79 20.91C17.8325 22.125 15.2675 22.7999 12.365 22.7999C9.46251 22.7999 6.89751 22.125 4.94001 20.91C3.05001 19.7624 1.70001 18.0075 1.70001 15.915V14.3625C1.70001 11.865 3.65751 9.83995 6.29001 8.69245L5.54751 4.57495ZM18.3324 4.10631C18.3326 4.21639 18.3237 4.32789 18.305 4.43997L17.4389 9.2367C19.6019 10.0439 21.2009 11.3013 21.8437 12.813C22.0883 13.3276 22.22 13.8697 22.22 14.43C22.22 17.7375 17.8325 20.4375 12.4325 20.4375C7.03248 20.4375 2.64498 17.7375 2.64498 14.43C2.64498 14.4074 2.64519 14.3849 2.6456 14.3625H2.64498V14.43V15.915C2.64498 19.2224 7.03248 21.9225 12.4325 21.9225C15.939 21.9225 19.0185 20.784 20.7471 19.08C19.0319 20.8214 15.9176 21.9899 12.365 21.9899C6.96501 21.9899 2.57751 19.2899 2.57751 15.9824V14.43C2.57751 12.27 4.46751 10.38 7.30251 9.29995L6.42543 4.44229L6.42498 4.43997C6.2238 3.53464 6.69719 2.6668 7.45422 2.28322C7.71318 2.152 8.00532 2.07745 8.31501 2.07745C9.39501 2.07745 10.2725 2.95495 10.2725 4.03495V8.42245C10.4075 8.42245 10.5594 8.40558 10.7112 8.3887L10.7113 8.3887C10.8631 8.37183 11.015 8.35495 11.15 8.35495C11.555 8.28745 11.96 8.28745 12.365 8.28745C12.5675 8.28745 12.7531 8.30433 12.9388 8.3212C13.1244 8.33808 13.31 8.35495 13.5125 8.35495C13.7825 8.35495 14.12 8.35495 14.39 8.42244V4.03497C14.39 4.0314 14.39 4.02784 14.39 4.02429V3.96745C14.39 2.88745 15.2675 2.00995 16.3475 2.00995C17.5358 2.00995 18.3765 2.99511 18.3324 4.10631Z" fill="white"/>
<path d="M9.665 13.9574C9.665 14.8349 9.1925 15.5774 8.585 15.5774C7.9775 15.5774 7.505 14.8349 7.505 13.9574C7.505 13.0799 7.9775 12.3374 8.585 12.3374C9.1925 12.3374 9.665 13.0799 9.665 13.9574Z" fill="white"/>
<path d="M17.1575 13.9574C17.1575 14.8349 16.685 15.5774 16.0775 15.5774C15.47 15.5774 14.9975 14.8349 14.9975 13.9574C14.9975 13.0799 15.47 12.3374 16.0775 12.3374C16.685 12.3374 17.1575 13.0799 17.1575 13.9574Z" fill="white"/>
</g>
</g>
<path d="M33.8543 17V6.92H38.3763C39.1137 6.92 39.7437 7.046 40.2663 7.298C40.7983 7.55 41.2043 7.90467 41.4843 8.362C41.7737 8.81933 41.9183 9.36067 41.9183 9.986C41.9183 10.602 41.7737 11.1433 41.4843 11.61C41.195 12.0767 40.789 12.4407 40.2663 12.702C39.7437 12.954 39.1137 13.08 38.3763 13.08H35.2683V11.652H38.2923C38.871 11.652 39.3143 11.5027 39.6223 11.204C39.9397 10.9053 40.0983 10.4993 40.0983 9.986C40.0983 9.482 39.9397 9.08533 39.6223 8.796C39.3143 8.50667 38.871 8.362 38.2923 8.362H35.6743V17H33.8543ZM47.2767 17C47.2301 16.8133 47.1927 16.608 47.1647 16.384C47.1461 16.16 47.1367 15.8893 47.1367 15.572H47.0807V12.184C47.0807 11.8107 46.9734 11.5307 46.7587 11.344C46.5534 11.148 46.2361 11.05 45.8067 11.05C45.3867 11.05 45.0507 11.1293 44.7987 11.288C44.5561 11.4373 44.4067 11.6567 44.3507 11.946H42.6567C42.7314 11.2833 43.0487 10.7467 43.6087 10.336C44.1687 9.92533 44.9201 9.72 45.8627 9.72C46.8427 9.72 47.5847 9.944 48.0887 10.392C48.5927 10.8307 48.8447 11.4793 48.8447 12.338V15.572C48.8447 15.796 48.8587 16.0247 48.8867 16.258C48.9241 16.4913 48.9754 16.7387 49.0407 17H47.2767ZM44.7987 17.14C44.0801 17.14 43.5061 16.9627 43.0767 16.608C42.6567 16.244 42.4467 15.7587 42.4467 15.152C42.4467 14.4987 42.6847 13.9807 43.1607 13.598C43.6367 13.2153 44.3087 12.9587 45.1767 12.828L47.4027 12.492V13.612L45.4707 13.906C45.0507 13.9713 44.7334 14.088 44.5187 14.256C44.3134 14.424 44.2107 14.6573 44.2107 14.956C44.2107 15.2267 44.3087 15.4367 44.5047 15.586C44.7007 15.726 44.9714 15.796 45.3167 15.796C45.8207 15.796 46.2407 15.67 46.5767 15.418C46.9127 15.166 47.0807 14.858 47.0807 14.494L47.2767 15.572C47.0901 16.0853 46.7821 16.4773 46.3527 16.748C45.9327 17.0093 45.4147 17.14 44.7987 17.14ZM50.6314 17V9.86H52.3534V11.54H52.3954V17H50.6314ZM55.6434 17V12.492C55.6434 12.0533 55.5314 11.722 55.3074 11.498C55.0834 11.274 54.7567 11.162 54.3274 11.162C53.954 11.162 53.618 11.246 53.3194 11.414C53.03 11.582 52.8014 11.8153 52.6334 12.114C52.4747 12.4127 52.3954 12.758 52.3954 13.15L52.2134 11.442C52.456 10.9193 52.8107 10.504 53.2774 10.196C53.744 9.87867 54.304 9.72 54.9574 9.72C55.732 9.72 56.334 9.93933 56.7634 10.378C57.202 10.8167 57.4214 11.4 57.4214 12.128V17H55.6434ZM62.2976 17.14C61.579 17.14 60.9443 16.9813 60.3936 16.664C59.8523 16.3467 59.423 15.908 59.1056 15.348C58.7976 14.7787 58.6436 14.1347 58.6436 13.416C58.6436 12.6973 58.7976 12.0627 59.1056 11.512C59.423 10.952 59.8523 10.5133 60.3936 10.196C60.9443 9.87867 61.579 9.72 62.2976 9.72C62.8856 9.72 63.4176 9.832 63.8936 10.056C64.3696 10.2707 64.7616 10.5787 65.0696 10.98C65.3776 11.372 65.5736 11.8293 65.6576 12.352H63.9636C63.861 11.9693 63.665 11.6707 63.3756 11.456C63.0863 11.2413 62.7363 11.134 62.3256 11.134C61.943 11.134 61.6116 11.2273 61.3316 11.414C61.061 11.6007 60.851 11.8667 60.7016 12.212C60.5523 12.5573 60.4776 12.9587 60.4776 13.416C60.4776 13.8827 60.5523 14.2887 60.7016 14.634C60.851 14.9793 61.0656 15.25 61.3456 15.446C61.6256 15.6327 61.9523 15.726 62.3256 15.726C62.7363 15.726 63.0863 15.6187 63.3756 15.404C63.665 15.1893 63.861 14.8907 63.9636 14.508H65.6576C65.5736 15.0307 65.373 15.4927 65.0556 15.894C64.7476 16.286 64.3556 16.594 63.8796 16.818C63.413 17.0327 62.8856 17.14 62.2976 17.14ZM71.2845 17C71.2379 16.8133 71.2005 16.608 71.1725 16.384C71.1539 16.16 71.1445 15.8893 71.1445 15.572H71.0885V12.184C71.0885 11.8107 70.9812 11.5307 70.7665 11.344C70.5612 11.148 70.2439 11.05 69.8145 11.05C69.3945 11.05 69.0585 11.1293 68.8065 11.288C68.5639 11.4373 68.4145 11.6567 68.3585 11.946H66.6645C66.7392 11.2833 67.0565 10.7467 67.6165 10.336C68.1765 9.92533 68.9279 9.72 69.8705 9.72C70.8505 9.72 71.5925 9.944 72.0965 10.392C72.6005 10.8307 72.8525 11.4793 72.8525 12.338V15.572C72.8525 15.796 72.8665 16.0247 72.8945 16.258C72.9319 16.4913 72.9832 16.7387 73.0485 17H71.2845ZM68.8065 17.14C68.0879 17.14 67.5139 16.9627 67.0845 16.608C66.6645 16.244 66.4545 15.7587 66.4545 15.152C66.4545 14.4987 66.6925 13.9807 67.1685 13.598C67.6445 13.2153 68.3165 12.9587 69.1845 12.828L71.4105 12.492V13.612L69.4785 13.906C69.0585 13.9713 68.7412 14.088 68.5265 14.256C68.3212 14.424 68.2185 14.6573 68.2185 14.956C68.2185 15.2267 68.3165 15.4367 68.5125 15.586C68.7085 15.726 68.9792 15.796 69.3245 15.796C69.8285 15.796 70.2485 15.67 70.5845 15.418C70.9205 15.166 71.0885 14.858 71.0885 14.494L71.2845 15.572C71.0979 16.0853 70.7899 16.4773 70.3605 16.748C69.9405 17.0093 69.4225 17.14 68.8065 17.14ZM74.6392 17V6.822H76.4032V17H74.6392ZM79.2452 17L75.9972 13.29L79.1472 9.86H81.2752L77.6352 13.612L77.7332 12.954L81.4152 17H79.2452ZM85.1596 17.14C84.4036 17.14 83.741 16.9813 83.1716 16.664C82.6116 16.3467 82.173 15.908 81.8556 15.348C81.5476 14.788 81.3936 14.144 81.3936 13.416C81.3936 12.688 81.5476 12.0487 81.8556 11.498C82.173 10.938 82.6116 10.504 83.1716 10.196C83.7316 9.87867 84.385 9.72 85.1316 9.72C85.841 9.72 86.457 9.86933 86.9796 10.168C87.5023 10.4573 87.9083 10.868 88.1976 11.4C88.487 11.932 88.6316 12.5527 88.6316 13.262C88.6316 13.3927 88.627 13.514 88.6176 13.626C88.6083 13.738 88.5943 13.85 88.5756 13.962H82.4856V12.73H87.2176L86.8536 13.066C86.8536 12.394 86.6996 11.89 86.3916 11.554C86.0836 11.218 85.6543 11.05 85.1036 11.05C84.5063 11.05 84.0303 11.2553 83.6756 11.666C83.3303 12.0767 83.1576 12.6693 83.1576 13.444C83.1576 14.2093 83.3303 14.7973 83.6756 15.208C84.0303 15.6093 84.5296 15.81 85.1736 15.81C85.547 15.81 85.8736 15.74 86.1536 15.6C86.4336 15.46 86.639 15.2453 86.7696 14.956H88.4356C88.2023 15.628 87.8056 16.16 87.2456 16.552C86.695 16.944 85.9996 17.14 85.1596 17.14Z" fill="white"/>
<defs>
<filter id="filter0_b_3195_2463" x="-31.5" y="-32" width="88" height="88" filterUnits="userSpaceOnUse" color-interpolation-filters="sRGB">
<feFlood flood-opacity="0" result="BackgroundImageFix"/>
<feGaussianBlur in="BackgroundImageFix" stdDeviation="16"/>
<feComposite in2="SourceAlpha" operator="in" result="effect1_backgroundBlur_3195_2463"/>
<feBlend mode="normal" in="SourceGraphic" in2="effect1_backgroundBlur_3195_2463" result="shape"/>
</filter>
<clipPath id="clip0_3195_2463">
<rect width="21.3975" height="21.6" fill="white" transform="translate(1.70001 1.19995)"/>
</clipPath>
</defs>
</svg>
