<svg width="15" height="12" viewBox="0 0 15 12" fill="none" xmlns="http://www.w3.org/2000/svg">
<path fill-rule="evenodd" clip-rule="evenodd" d="M0.750001 6.00005C0.750032 5.62251 1.08169 5.31648 1.49073 5.31654L12.2209 5.3165L7.72386 1.16683C7.43459 0.899903 7.43459 0.467121 7.72386 0.200195C8.01313 -0.0667319 8.48215 -0.0667319 8.77142 0.200195L14.533 5.51669C14.6719 5.64486 14.75 5.81874 14.75 6.00005C14.7499 6.18127 14.6719 6.35513 14.533 6.48332L8.77141 11.7998C8.48214 12.0667 8.01308 12.0667 7.72385 11.7998C7.43462 11.5329 7.43458 11.1001 7.72385 10.8332L12.2209 6.68352L1.49073 6.68356C1.0817 6.6835 0.750064 6.37748 0.750001 6.00005Z" fill="#E7E8F4"/>
</svg>
