<svg width="88" height="24" viewBox="0 0 88 24" fill="none" xmlns="http://www.w3.org/2000/svg">
<g filter="url(#filter0_b_3195_2540)">
<g clip-path="url(#clip0_3195_2540)">
<path d="M32.4518 14.7354L27.781 6.6337C26.7572 4.94458 24.2602 4.9273 23.2718 6.70541L18.3678 15.1311C17.4519 16.676 18.5838 18.6156 20.4163 18.6156H30.2426C32.0924 18.6156 33.4757 16.6215 32.4518 14.7354Z" fill="white"/>
<path d="M25.7152 15.3644L25.4275 14.8615C25.1579 14.3941 24.5652 13.3884 24.5652 13.3884L20.6133 6.52564C19.5894 4.99895 17.1642 4.87281 16.1404 6.79521L11.5413 14.7535C10.5892 16.4245 11.721 18.5974 13.7868 18.6156H23.5595H27.7275H30.2063C27.6739 18.6337 26.8652 17.3222 25.7152 15.3644Z" fill="white"/>
<path d="M25.716 15.3644L25.4283 14.8615C25.1588 14.3941 24.5661 13.3884 24.5661 13.3884L22.0147 8.89734L18.3496 15.1492C17.4337 16.6941 18.5656 18.6346 20.3973 18.6346H23.5414H27.7093H30.2062C27.6557 18.6156 26.8652 17.3222 25.716 15.3644Z" fill="url(#paint0_linear_3195_2540)"/>
</g>
</g>
<path d="M43.1766 17V6.92H46.0046L49.0846 16.636H48.0906L51.1706 6.92H54.0126V17H52.2206V7.522H52.5146L49.5186 17H47.5726L44.6046 7.606H44.8846V17H43.1766ZM59.0307 17.14C58.2747 17.14 57.6121 16.9813 57.0427 16.664C56.4827 16.3467 56.0441 15.908 55.7267 15.348C55.4187 14.788 55.2647 14.144 55.2647 13.416C55.2647 12.688 55.4187 12.0487 55.7267 11.498C56.0441 10.938 56.4827 10.504 57.0427 10.196C57.6027 9.87867 58.2561 9.72 59.0027 9.72C59.7121 9.72 60.3281 9.86933 60.8507 10.168C61.3734 10.4573 61.7794 10.868 62.0687 11.4C62.3581 11.932 62.5027 12.5527 62.5027 13.262C62.5027 13.3927 62.4981 13.514 62.4887 13.626C62.4794 13.738 62.4654 13.85 62.4467 13.962H56.3567V12.73H61.0887L60.7247 13.066C60.7247 12.394 60.5707 11.89 60.2627 11.554C59.9547 11.218 59.5254 11.05 58.9747 11.05C58.3774 11.05 57.9014 11.2553 57.5467 11.666C57.2014 12.0767 57.0287 12.6693 57.0287 13.444C57.0287 14.2093 57.2014 14.7973 57.5467 15.208C57.9014 15.6093 58.4007 15.81 59.0447 15.81C59.4181 15.81 59.7447 15.74 60.0247 15.6C60.3047 15.46 60.5101 15.2453 60.6407 14.956H62.3067C62.0734 15.628 61.6767 16.16 61.1167 16.552C60.5661 16.944 59.8707 17.14 59.0307 17.14ZM68.1349 17L65.9369 13.808L62.9689 9.86H64.9709L66.9589 12.758L70.1369 17H68.1349ZM66.0769 12.702L68.0789 9.86H70.0389L66.9309 13.934L66.0769 12.702ZM66.7769 14.018L64.6209 17H62.6749L65.9369 12.772L66.7769 14.018ZM73.9988 17.14C73.2801 17.14 72.6455 16.9813 72.0948 16.664C71.5535 16.3467 71.1241 15.908 70.8068 15.348C70.4988 14.7787 70.3448 14.1347 70.3448 13.416C70.3448 12.6973 70.4988 12.0627 70.8068 11.512C71.1241 10.952 71.5535 10.5133 72.0948 10.196C72.6455 9.87867 73.2801 9.72 73.9988 9.72C74.5868 9.72 75.1188 9.832 75.5948 10.056C76.0708 10.2707 76.4628 10.5787 76.7708 10.98C77.0788 11.372 77.2748 11.8293 77.3588 12.352H75.6648C75.5621 11.9693 75.3661 11.6707 75.0768 11.456C74.7875 11.2413 74.4375 11.134 74.0268 11.134C73.6441 11.134 73.3128 11.2273 73.0328 11.414C72.7621 11.6007 72.5521 11.8667 72.4028 12.212C72.2535 12.5573 72.1788 12.9587 72.1788 13.416C72.1788 13.8827 72.2535 14.2887 72.4028 14.634C72.5521 14.9793 72.7668 15.25 73.0468 15.446C73.3268 15.6327 73.6535 15.726 74.0268 15.726C74.4375 15.726 74.7875 15.6187 75.0768 15.404C75.3661 15.1893 75.5621 14.8907 75.6648 14.508H77.3588C77.2748 15.0307 77.0741 15.4927 76.7568 15.894C76.4488 16.286 76.0568 16.594 75.5808 16.818C75.1141 17.0327 74.5868 17.14 73.9988 17.14Z" fill="white"/>
<defs>
<filter id="filter0_b_3195_2540" x="-22" y="-32" width="88" height="88" filterUnits="userSpaceOnUse" color-interpolation-filters="sRGB">
<feFlood flood-opacity="0" result="BackgroundImageFix"/>
<feGaussianBlur in="BackgroundImageFix" stdDeviation="16"/>
<feComposite in2="SourceAlpha" operator="in" result="effect1_backgroundBlur_3195_2540"/>
<feBlend mode="normal" in="SourceGraphic" in2="effect1_backgroundBlur_3195_2540" result="shape"/>
</filter>
<linearGradient id="paint0_linear_3195_2540" x1="17.2794" y1="12.313" x2="27.924" y2="16.4985" gradientUnits="userSpaceOnUse">
<stop stop-color="white" stop-opacity="0"/>
<stop offset="1" stop-color="#8F8F8F"/>
</linearGradient>
<clipPath id="clip0_3195_2540">
<rect width="21.6" height="21.6" fill="white" transform="translate(11.2 1.19995)"/>
</clipPath>
</defs>
</svg>
