<svg width="40" height="40" viewBox="0 0 40 40" fill="none" xmlns="http://www.w3.org/2000/svg">
<g filter="url(#filter0_b_3195_1796)">
<rect width="40" height="40" rx="8" fill="black"/>
<path d="M26.3822 22.7094V15H27.9318V22.7094H26.3822Z" fill="#FF9900"/>
<path d="M8.32211 24.9994H5V17.29H8.18852C9.73816 17.29 10.6411 18.1346 10.6411 19.4557C10.6411 20.3108 10.0612 20.8634 9.65981 21.0474C10.1389 21.2639 10.7522 21.751 10.7522 22.7802C10.7522 24.2198 9.73816 24.9994 8.32211 24.9994ZM8.06586 18.6329H6.54963V20.4087H8.06586C8.7235 20.4087 9.09146 20.0513 9.09146 19.5205C9.09146 18.9903 8.7235 18.6329 8.06586 18.6329ZM8.16605 21.7622H6.54963V23.6571H8.16605C8.8686 23.6571 9.20257 23.2243 9.20257 22.7041C9.20257 22.1845 8.86798 21.7622 8.16605 21.7622Z" fill="white"/>
<path d="M15.4787 21.8377V24.9994H13.94V21.8377L11.5543 17.29H13.2375L14.7203 20.3975L16.1807 17.29H17.8639L15.4787 21.8377Z" fill="white"/>
<path d="M22.2572 24.9994H18.9351V17.29H22.1236C23.6732 17.29 24.5761 18.1346 24.5761 19.4557C24.5761 20.3108 23.9963 20.8634 23.5949 21.0474C24.074 21.2639 24.6873 21.751 24.6873 22.7802C24.6873 24.2198 23.6732 24.9994 22.2572 24.9994ZM22.0009 18.6329H20.4847V20.4087H22.0009C22.6586 20.4087 23.0265 20.0513 23.0265 19.5205C23.0265 18.9903 22.6586 18.6329 22.0009 18.6329ZM22.1011 21.7622H20.4847V23.6571H22.1011C22.8037 23.6571 23.1376 23.2243 23.1376 22.7041C23.1376 22.1845 22.8037 21.7622 22.1011 21.7622Z" fill="white"/>
<path d="M32.9263 18.6329V25H31.3766V18.6329H29.303V17.29H34.9999V18.6329H32.9263Z" fill="white"/>
</g>
<defs>
<filter id="filter0_b_3195_1796" x="-32" y="-32" width="104" height="104" filterUnits="userSpaceOnUse" color-interpolation-filters="sRGB">
<feFlood flood-opacity="0" result="BackgroundImageFix"/>
<feGaussianBlur in="BackgroundImageFix" stdDeviation="16"/>
<feComposite in2="SourceAlpha" operator="in" result="effect1_backgroundBlur_3195_1796"/>
<feBlend mode="normal" in="SourceGraphic" in2="effect1_backgroundBlur_3195_1796" result="shape"/>
</filter>
</defs>
</svg>
