<svg width="78" height="23" viewBox="0 0 78 23" fill="none" xmlns="http://www.w3.org/2000/svg">
<g filter="url(#filter0_b_1_72)">
<path d="M21.6511 11.8007C21.6511 13.7604 21.0699 15.6762 19.9811 17.3056C18.8924 18.9351 17.3448 20.2051 15.5343 20.9551C13.7237 21.7051 11.7314 21.9013 9.80929 21.519C7.88719 21.1366 6.12163 20.1929 4.73588 18.8072C3.35013 17.4214 2.40642 15.6558 2.02409 13.7338C1.64176 11.8117 1.83798 9.81935 2.58795 8.00877C3.33791 6.1982 4.60793 4.65068 6.23741 3.5619C7.86688 2.47312 9.78262 1.89198 11.7424 1.89198L11.7424 6.28561C10.6516 6.28561 9.58532 6.60906 8.67838 7.21507C7.77143 7.82107 7.06455 8.6824 6.64713 9.69014C6.22971 10.6979 6.1205 11.8068 6.3333 12.8766C6.54609 13.9464 7.07135 14.9291 7.84265 15.7004C8.61394 16.4717 9.59663 16.9969 10.6664 17.2097C11.7363 17.4225 12.8452 17.3133 13.8529 16.8959C14.8606 16.4785 15.722 15.7716 16.328 14.8647C16.934 13.9577 17.2574 12.8914 17.2574 11.8007H21.6511Z" fill="#2354E6"/>
<rect x="11.7424" y="6.30474" width="5.49587" height="5.49587" fill="#17E6A1"/>
</g>
<path d="M41.9563 18.4933C40.492 18.4933 39.2268 18.2043 38.1607 17.6263C37.0946 17.0355 36.2725 16.2134 35.6945 15.1602C35.1165 14.0941 34.8275 12.8481 34.8275 11.4224C34.8275 9.99664 35.1165 8.75071 35.6945 7.68461C36.2725 6.60566 37.0753 5.76434 38.1029 5.16065C39.1305 4.54411 40.325 4.23584 41.6865 4.23584C42.7912 4.23584 43.7802 4.44135 44.6536 4.85238C45.5399 5.25056 46.2528 5.80288 46.7922 6.50933C47.3446 7.20294 47.6785 8.01215 47.7941 8.93696H45.2894C45.161 8.1149 44.7756 7.46625 44.1334 6.991C43.4912 6.51575 42.6884 6.27813 41.7251 6.27813C40.8516 6.27813 40.0874 6.48364 39.4323 6.89467C38.7772 7.30569 38.2699 7.89012 37.9102 8.64795C37.5506 9.40578 37.3707 10.3113 37.3707 11.3646C37.3707 12.4435 37.5506 13.3683 37.9102 14.139C38.2827 14.8968 38.8158 15.4749 39.5094 15.873C40.2158 16.2712 41.0764 16.4703 42.0911 16.4703C42.8746 16.4703 43.549 16.374 44.1142 16.1813C44.6793 15.9758 45.1353 15.6739 45.4821 15.2758L47.8905 16.2198C47.1583 16.9648 46.3106 17.53 45.3472 17.9153C44.3839 18.3007 43.2536 18.4933 41.9563 18.4933ZM45.3858 16.2198V12.1738L45.983 12.7711H42.0719V10.8058H47.8905V16.2198H45.3858ZM56.0954 18.3007C56.0312 18.0438 55.9798 17.7612 55.9413 17.4529C55.9156 17.1446 55.9028 16.7722 55.9028 16.3354H55.8257V11.6729C55.8257 11.1591 55.678 10.7737 55.3826 10.5168C55.1 10.2471 54.6633 10.1122 54.0724 10.1122C53.4944 10.1122 53.032 10.2214 52.6852 10.4398C52.3512 10.6453 52.1457 10.9471 52.0687 11.3453H49.7374C49.8401 10.4334 50.2768 9.69479 51.0475 9.12963C51.8182 8.56446 52.8522 8.28188 54.1495 8.28188C55.4982 8.28188 56.5193 8.59015 57.2129 9.20669C57.9065 9.81039 58.2533 10.7031 58.2533 11.8848V16.3354C58.2533 16.6437 58.2726 16.9584 58.3111 17.2795C58.3625 17.6006 58.4332 17.941 58.5231 18.3007H56.0954ZM52.6852 18.4933C51.6962 18.4933 50.9062 18.2493 50.3154 17.7612C49.7374 17.2603 49.4484 16.5923 49.4484 15.7574C49.4484 14.8583 49.7759 14.1454 50.431 13.6188C51.0861 13.0922 52.0109 12.739 53.2054 12.5591L56.2688 12.0967V13.6381L53.61 14.0427C53.032 14.1326 52.5953 14.2932 52.2999 14.5244C52.0173 14.7556 51.876 15.0767 51.876 15.4877C51.876 15.8602 52.0109 16.1492 52.2806 16.3547C52.5503 16.5474 52.9228 16.6437 53.3981 16.6437C54.0917 16.6437 54.6697 16.4703 55.1321 16.1235C55.5945 15.7767 55.8257 15.3528 55.8257 14.8519L56.0954 16.3354C55.8386 17.0419 55.4147 17.5814 54.8238 17.9539C54.2458 18.3135 53.5329 18.4933 52.6852 18.4933ZM64.5786 18.4933C63.3712 18.4933 62.4785 18.2107 61.9005 17.6456C61.3353 17.0676 61.0528 16.207 61.0528 15.0638V6.23959L63.4996 5.33405V15.1216C63.4996 15.5969 63.6281 15.9501 63.885 16.1813C64.1419 16.4125 64.5465 16.5281 65.0988 16.5281C65.3172 16.5281 65.5098 16.5153 65.6768 16.4896C65.8566 16.451 66.0236 16.4061 66.1777 16.3547V18.2429C66.0236 18.3199 65.8052 18.3777 65.5227 18.4163C65.2401 18.4676 64.9254 18.4933 64.5786 18.4933ZM59.1646 10.382V8.47455H66.1777V10.382H59.1646ZM72.1047 18.4933C71.0643 18.4933 70.1523 18.275 69.3688 17.8383C68.5981 17.4015 67.9944 16.7978 67.5577 16.0272C67.1339 15.2565 66.9219 14.3702 66.9219 13.3683C66.9219 12.3665 67.1339 11.4866 67.5577 10.7288C67.9944 9.9581 68.5981 9.36083 69.3688 8.93696C70.1395 8.50024 71.0386 8.28188 72.0662 8.28188C73.0424 8.28188 73.8901 8.4874 74.6094 8.89842C75.3287 9.29661 75.8874 9.86177 76.2856 10.5939C76.6838 11.3261 76.8829 12.1802 76.8829 13.1564C76.8829 13.3362 76.8765 13.5032 76.8636 13.6573C76.8508 13.8115 76.8315 13.9656 76.8058 14.1197H68.4247V12.4243H74.9369L74.436 12.8867C74.436 11.9619 74.2241 11.2682 73.8002 10.8058C73.3763 10.3434 72.7855 10.1122 72.0276 10.1122C71.2056 10.1122 70.5505 10.3948 70.0624 10.96C69.5872 11.5251 69.3496 12.3408 69.3496 13.4069C69.3496 14.4601 69.5872 15.2693 70.0624 15.8345C70.5505 16.3868 71.2377 16.663 72.124 16.663C72.6378 16.663 73.0873 16.5666 73.4727 16.374C73.858 16.1813 74.1406 15.8859 74.3204 15.4877H76.6132C76.2921 16.4125 75.7462 17.1446 74.9755 17.6841C74.2177 18.2236 73.2607 18.4933 72.1047 18.4933Z" fill="white"/>
<defs>
<filter id="filter0_b_1_72" x="-43.3059" y="-43.2476" width="110.096" height="110.096" filterUnits="userSpaceOnUse" color-interpolation-filters="sRGB">
<feFlood flood-opacity="0" result="BackgroundImageFix"/>
<feGaussianBlur in="BackgroundImageFix" stdDeviation="22.0193"/>
<feComposite in2="SourceAlpha" operator="in" result="effect1_backgroundBlur_1_72"/>
<feBlend mode="normal" in="SourceGraphic" in2="effect1_backgroundBlur_1_72" result="shape"/>
</filter>
</defs>
</svg>
