<svg width="90" height="21" viewBox="0 0 90 21" fill="none" xmlns="http://www.w3.org/2000/svg">
<g clip-path="url(#clip0_3641_87720)">
<path fill-rule="evenodd" clip-rule="evenodd" d="M74.2146 6.46029H76.7459V3.92901H74.2146V6.46029ZM60.7596 10.6779C61.2445 9.39445 62.4816 8.48176 63.9326 8.48176C65.3837 8.48176 66.6243 9.39445 67.1056 10.6779H60.7596ZM63.9326 6.12517C60.7596 6.12517 58.1855 8.69924 58.1855 11.8723C58.1855 15.0453 60.7596 17.6194 63.9326 17.6194C66.111 17.6194 68.0041 16.4072 68.9774 14.6246L66.8561 13.5943C66.2643 14.5961 65.1769 15.2663 63.9326 15.2663C62.3604 15.2663 61.0377 14.1968 60.6526 12.7422H67.2126V12.7457H69.6155C69.6583 12.4605 69.6797 12.1682 69.6797 11.8723C69.6797 8.69924 67.1092 6.12517 63.9326 6.12517ZM70.35 17.3127H72.8813V14.7815H70.35V17.3127ZM74.2146 17.3127H76.7459V7.57264H74.2146V17.3127ZM83.8086 15.2663C81.9333 15.2663 80.4145 13.7476 80.4145 11.8723C80.4145 9.99697 81.9333 8.4782 83.8086 8.4782C85.6839 8.4782 87.2026 9.99697 87.2026 11.8723C87.2026 13.7476 85.6839 15.2663 83.8086 15.2663ZM83.8086 6.12517C80.6356 6.12517 78.0615 8.69924 78.0615 11.8723C78.0615 15.0453 80.6356 17.6194 83.8086 17.6194C86.9816 17.6194 89.5557 15.0453 89.5557 11.8723C89.5557 8.69924 86.9816 6.12517 83.8086 6.12517ZM30.8869 9.75454V12.3714H34.4271C34.2417 13.1201 33.8781 13.7903 33.354 14.3251C32.5625 15.1344 31.468 15.5765 30.2701 15.5765C27.7816 15.5765 25.7565 13.5515 25.7565 11.0594C25.7565 8.57089 27.7816 6.54229 30.2701 6.54229C31.6035 6.54229 32.8299 7.11273 33.6784 8.09672L35.7034 6.4389C34.3594 4.86309 32.3664 3.92188 30.2701 3.92188C26.3377 3.92188 23.1397 7.12342 23.1397 11.0558C23.1397 14.9882 26.3377 18.1898 30.2701 18.1898C32.181 18.1898 33.9387 17.5017 35.2257 16.1861C36.3059 15.0809 37.0226 13.5408 37.158 12.0006C37.2258 11.2484 37.2329 10.4997 37.1901 9.74741L30.8869 9.75454ZM43.7786 15.2663C41.9069 15.2663 40.3845 13.7476 40.3845 11.8723C40.3845 9.99697 41.9033 8.4782 43.7786 8.4782C45.6539 8.4782 47.1727 9.99697 47.1727 11.8723C47.1727 13.7476 45.6539 15.2663 43.7786 15.2663ZM47.1727 7.24464C46.2207 6.54586 45.0478 6.13586 43.7786 6.13586C40.6056 6.13586 38.0351 8.70993 38.0351 11.883C38.0351 15.056 40.6091 17.6301 43.7786 17.6301C45.0478 17.6301 46.2207 17.2165 47.1727 16.5213V17.3163H49.5257V6.4496H47.1727V7.24464ZM54.574 3.92901H52.221V6.46029H50.8127V8.68141H52.221V14.4927C52.221 15.0916 52.2958 15.5979 52.4456 15.9936C52.5917 16.3858 52.8199 16.6924 53.0873 16.9313C53.3583 17.1737 53.6756 17.3627 54.0535 17.4732C54.4385 17.5801 54.8592 17.6229 55.3084 17.6229C55.7719 17.6229 56.1855 17.5766 56.5349 17.4803C56.8629 17.3912 57.1766 17.2664 57.4654 17.1095V15.3198C57.0019 15.5195 56.5669 15.5943 56.0714 15.6157C55.5473 15.6407 55.2407 15.4909 54.984 15.2449C54.713 14.9882 54.5704 14.6531 54.5704 14.0934V8.68141H57.4654V6.46029H54.5704V3.92901H54.574Z" fill="white"/>
<path fill-rule="evenodd" clip-rule="evenodd" d="M10.632 16.2094C7.5339 16.2094 5.02043 13.6959 5.02043 10.5978C5.02043 7.49963 7.5339 4.98616 10.632 4.98616V0.390625C4.99548 0.390625 0.428467 4.96121 0.428467 10.5978C0.428467 16.2344 4.99548 20.8014 10.632 20.8014C16.2651 20.8014 20.8356 16.2308 20.8356 10.5978H16.2437C16.2437 13.6995 13.7302 16.2094 10.632 16.2094Z" fill="white"/>
<path fill-rule="evenodd" clip-rule="evenodd" d="M10.633 10.6038H16.2446V4.99219H10.633V10.6038Z" fill="white"/>
</g>
<defs>
<clipPath id="clip0_3641_87720">
<rect width="89.1298" height="20.4286" fill="white" transform="translate(0.428558 0.382812)"/>
</clipPath>
</defs>
</svg>
