<svg width="92" height="22" viewBox="0 0 92 22" fill="none" xmlns="http://www.w3.org/2000/svg">
<path d="M71.9222 11.3327C71.9222 10.797 71.9222 10.2931 71.9048 9.82772C71.893 9.38869 71.8495 8.95109 71.7747 8.51832C71.7048 8.12314 71.5813 7.73934 71.4077 7.37753C71.2244 7.00448 70.9794 6.66506 70.6831 6.37356C70.2629 5.94299 69.7628 5.59839 69.2109 5.35899C68.6138 5.11711 67.9743 4.99721 67.3301 5.00634C66.6835 4.99799 66.0416 5.11784 65.4416 5.35899C64.8865 5.59512 64.3833 5.93823 63.9607 6.36874C63.665 6.66007 63.421 6.99956 63.2391 7.37271C63.0669 7.7346 62.9453 8.11847 62.8778 8.5135C62.8047 8.9464 62.7628 9.384 62.7525 9.8229C62.7409 10.2883 62.7352 10.7922 62.738 11.3279C62.7409 11.8636 62.738 12.3637 62.7525 12.8319C62.7628 13.2708 62.8047 13.7084 62.8778 14.1413C62.9453 14.5364 63.0669 14.9202 63.2391 15.2821C63.4217 15.6548 63.6656 15.9942 63.9607 16.2861C64.3826 16.7169 64.886 17.0595 65.4416 17.2939C66.0412 17.5366 66.6833 17.6572 67.3301 17.6485C67.9745 17.658 68.6142 17.5374 69.2109 17.2939C69.7629 17.0577 70.2631 16.7153 70.6831 16.2861C70.9787 15.994 71.2236 15.6547 71.4077 15.2821C71.5813 14.9203 71.7048 14.5365 71.7747 14.1413C71.8487 13.7098 71.8915 13.2735 71.9029 12.8358C71.9173 12.3675 71.9241 11.8665 71.9202 11.3317L71.9222 11.3327ZM69.4941 11.3327C69.4941 11.9262 69.4855 12.4205 69.4652 12.8136C69.4539 13.1365 69.4217 13.4584 69.3689 13.7771C69.3328 13.9895 69.2679 14.196 69.1762 14.3909C69.1017 14.548 69.0043 14.6931 68.8871 14.8216C68.7063 15.0286 68.4819 15.1931 68.23 15.3033C67.9466 15.4246 67.6413 15.4862 67.333 15.4845C67.0232 15.4858 66.7164 15.4242 66.4312 15.3033C66.1731 15.1952 65.9427 15.0305 65.7567 14.8216C65.6388 14.6937 65.5413 14.5484 65.4677 14.3909C65.3785 14.1958 65.3168 13.9892 65.2846 13.7771C65.2331 13.4582 65.201 13.1364 65.1882 12.8136C65.1709 12.4205 65.1622 11.9269 65.1622 11.3327C65.1622 10.7392 65.1709 10.244 65.1882 9.85084C65.201 9.52804 65.2332 9.20629 65.2846 8.88734C65.3168 8.67525 65.3785 8.46869 65.4677 8.27359C65.5415 8.11616 65.639 7.97093 65.7567 7.8429C65.9429 7.63421 66.1733 7.46964 66.4312 7.36115C66.716 7.2389 67.0231 7.17722 67.333 7.18001C67.6414 7.17681 67.947 7.23852 68.23 7.36115C68.4817 7.47168 68.706 7.63614 68.8871 7.8429C69.0041 7.97152 69.1015 8.11663 69.1762 8.27359C69.2679 8.46849 69.3328 8.67497 69.3689 8.88734C69.4216 9.20611 69.4538 9.52794 69.4652 9.85084C69.4864 10.243 69.4941 10.7382 69.4941 11.3327Z" fill="#23AF91"/>
<path d="M91.2694 5.32817C91.2684 5.211 91.1737 5.11628 91.0565 5.11523H89.0534C88.936 5.11576 88.841 5.21079 88.8404 5.32817V12.7279L83.9555 5.17497C83.9227 5.12391 83.8938 5.11523 83.8215 5.11523H81.9639C81.847 5.11679 81.7525 5.21122 81.751 5.32817V17.3354C81.7525 17.4521 81.8471 17.5463 81.9639 17.5473H83.9661C84.0829 17.5468 84.1775 17.4522 84.178 17.3354V9.91638L89.064 17.4866C89.0977 17.5377 89.1247 17.5464 89.1979 17.5464H91.0546C91.1716 17.5458 91.2665 17.4514 91.2675 17.3344L91.2694 5.32817Z" fill="#23AF91"/>
<path d="M77.8421 5.32817C77.8416 5.21079 77.7465 5.11576 77.6292 5.11523H75.628C75.5106 5.11576 75.4156 5.21079 75.415 5.32817V17.3344C75.4156 17.4518 75.5106 17.5468 75.628 17.5473H77.6292C77.7465 17.5468 77.8416 17.4518 77.8421 17.3344V5.32817Z" fill="#23AF91"/>
<path d="M53.8851 11.3319C53.8851 10.7346 53.8919 10.2374 53.9092 9.84138C53.921 9.51851 53.9532 9.1967 54.0056 8.87788C54.1906 7.80839 55.0095 7.1773 56.0549 7.1773C56.7371 7.18308 57.3557 7.43551 57.7507 8.00976C57.9296 8.27786 58.0601 8.57528 58.1361 8.88848C58.142 8.92147 58.1721 8.94449 58.2055 8.94147H60.5612C60.595 8.94147 60.6075 8.91835 60.6017 8.88559C60.3445 7.42781 59.5669 6.1184 58.193 5.46997C57.5177 5.15732 56.7807 5.00089 56.0366 5.0123C54.7102 5.0123 53.5929 5.46643 52.6846 6.3747C52.166 6.88008 51.8121 7.53021 51.6691 8.24004C51.5303 8.9389 51.4603 9.96921 51.459 11.331C51.4577 12.6927 51.5278 13.7227 51.6691 14.4209C51.8109 15.1317 52.1638 15.7831 52.6817 16.2901C53.5893 17.1977 54.7067 17.6516 56.0337 17.6516C56.7777 17.6628 57.5146 17.5067 58.1901 17.1948C59.564 16.5464 60.3416 15.237 60.5988 13.7792C60.6046 13.7455 60.5921 13.7233 60.5584 13.7233H58.2016C58.1681 13.7198 58.1377 13.7431 58.1323 13.7763C58.056 14.0892 57.9256 14.3863 57.7468 14.6541C57.3518 15.2322 56.7332 15.4817 56.0511 15.4866C55.0057 15.4866 54.1867 14.8564 54.0017 13.7869C53.9494 13.4681 53.9172 13.1463 53.9054 12.8234C53.8919 12.4255 53.8851 11.9274 53.8851 11.3319Z" fill="#23AF91"/>
<path d="M29.0042 5.32817C29.0037 5.21079 28.9087 5.11576 28.7913 5.11523H26.7901C26.6727 5.11576 26.5777 5.21079 26.5771 5.32817V17.3354C26.5782 17.4524 26.6731 17.5468 26.7901 17.5474H28.7913C28.9083 17.5468 29.0032 17.4524 29.0042 17.3354V13.8109L30.6104 11.8906L33.9094 17.4837C33.9348 17.525 33.9805 17.5493 34.0289 17.5474H36.4608C36.5725 17.5474 36.5928 17.478 36.5369 17.3826L32.2175 10.0599L36.1804 5.30601C36.2604 5.20966 36.2266 5.11812 36.1014 5.11812H33.4431C33.4107 5.11622 33.3796 5.1307 33.3602 5.15666L29.0042 10.3808V5.32817Z" fill="#23AF91"/>
<path d="M43.5835 15.4874C42.4572 15.4874 41.4359 14.4448 41.4359 13.2V5.32817C41.4353 5.21079 41.3403 5.11576 41.2229 5.11523H39.2217C39.1043 5.11576 39.0093 5.21079 39.0088 5.32817V13.1692C39.0088 15.9103 41.0591 17.6524 43.5835 17.6524C46.1079 17.6524 48.1582 15.9103 48.1582 13.1692V5.32817C48.1572 5.211 48.0625 5.11628 47.9453 5.11523H45.9431C45.8261 5.11629 45.7317 5.21116 45.7312 5.32817V13.2C45.7312 14.4439 44.7089 15.4874 43.5835 15.4874Z" fill="#23AF91"/>
<path fill-rule="evenodd" clip-rule="evenodd" d="M6.46091 11.332L12.6736 17.5456L16.5951 13.6242C17.2963 12.9928 18.369 13.0209 19.0362 13.6881C19.7035 14.3553 19.7315 15.4281 19.1002 16.1293L13.9252 21.3052C13.2301 21.9888 12.1152 21.9888 11.4201 21.3052L3.95387 13.8371V18.276C3.95387 19.2556 3.15971 20.0498 2.18006 20.0498C1.20041 20.0498 0.40625 19.2556 0.40625 18.276V4.38223C0.40625 3.40258 1.20041 2.60842 2.18006 2.60842C3.15971 2.60842 3.95387 3.40258 3.95387 4.38223V8.8211L11.4191 1.3549C12.114 0.670761 13.2293 0.670761 13.9242 1.3549L19.1031 6.52988C19.7344 7.23109 19.7063 8.30387 19.0391 8.97108C18.3719 9.63829 17.2992 9.66638 16.5979 9.035L12.6765 5.11353L6.46091 11.332ZM12.6765 9.55625C11.9582 9.55586 11.3104 9.98826 11.0352 10.6518C10.7601 11.3153 10.9118 12.0792 11.4195 12.5873C11.9273 13.0953 12.6912 13.2474 13.3548 12.9727C14.0185 12.6979 14.4513 12.0503 14.4513 11.332C14.4515 10.861 14.2647 10.4093 13.9318 10.0761C13.599 9.74288 13.1474 9.55554 12.6765 9.55529V9.55625Z" fill="#23AF91"/>
</svg>
