<svg width="62" height="25" viewBox="0 0 62 25" fill="none" xmlns="http://www.w3.org/2000/svg">
<path d="M42.1807 15.2849V0.328125H45.187V15.2849H42.1807Z" fill="#F7A600"/>
<path d="M7.14239 19.7283H0.697266V4.77148H6.88321C9.88962 4.77148 11.6414 6.40997 11.6414 8.97295C11.6414 10.632 10.5163 11.7041 9.73763 12.0611C10.6671 12.481 11.8569 13.4261 11.8569 15.4227C11.8569 18.2157 9.88962 19.7283 7.14239 19.7283ZM6.64525 7.3768H3.70365V10.8219H6.64525C7.92111 10.8219 8.63499 10.1286 8.63499 9.09879C8.63499 8.07015 7.92111 7.3768 6.64525 7.3768ZM6.83963 13.4478H3.70365V17.1241H6.83963C8.20262 17.1241 8.85054 16.2843 8.85054 15.2751C8.85054 14.2671 8.20142 13.4478 6.83963 13.4478Z" fill="white"/>
<path d="M21.0268 13.5943V19.7283H18.0416V13.5943L13.4131 4.77148H16.6786L19.5554 10.8002L22.3887 4.77148H25.6542L21.0268 13.5943Z" fill="white"/>
<path d="M34.1776 19.7283H27.7324V4.77148H33.9184C36.9248 4.77148 38.6765 6.40997 38.6765 8.97295C38.6765 10.632 37.5515 11.7041 36.7728 12.0611C37.7023 12.481 38.8922 13.4261 38.8922 15.4227C38.8922 18.2157 36.9248 19.7283 34.1776 19.7283ZM33.6804 7.3768H30.7388V10.8219H33.6804C34.9563 10.8219 35.6702 10.1286 35.6702 9.09879C35.6702 8.07015 34.9563 7.3768 33.6804 7.3768ZM33.8748 13.4478H30.7388V17.1241H33.8748C35.2378 17.1241 35.8857 16.2843 35.8857 15.2751C35.8857 14.2671 35.2378 13.4478 33.8748 13.4478Z" fill="white"/>
<path d="M54.8761 7.3768V19.7294H51.8697V7.3768H47.8467V4.77148H58.8992V7.3768H54.8761Z" fill="white"/>
</svg>
