<svg width="1110" height="613" viewBox="0 0 1110 613" fill="none" xmlns="http://www.w3.org/2000/svg">
<path d="M0 14.0297C0 6.28129 6.28129 0 14.0297 0H294.623L962.434 0H1036.09H1067.03C1070.79 0 1074.4 1.51576 1077.04 4.20597L1090.81 18.2386L1105.54 32.7033C1108.23 35.3415 1109.75 38.9497 1109.75 42.716V73.6557V147.311V294.623V598.97C1109.75 606.719 1103.46 613 1095.72 613H14.0296C6.28127 613 0 606.719 0 598.97V14.0297Z" fill="white" fill-opacity="0.07"/>
<path d="M1090.3 18.7298L1090.31 18.7392L1105.05 33.204C1107.61 35.7103 1109.04 39.138 1109.04 42.716V73.6557V147.311V294.623V598.97C1109.04 606.331 1103.08 612.299 1095.72 612.299H14.0296C6.66869 612.299 0.701483 606.331 0.701483 598.97V14.0297C0.701483 6.66871 6.66871 0.701483 14.0297 0.701483H294.623H962.434H1036.09H1067.03C1070.61 0.701483 1074.04 2.14146 1076.54 4.69716L1090.3 18.7298Z" stroke="url(#paint0_linear_3_2)" stroke-opacity="0.5" stroke-width="1.40297"/>
<path d="M1090.3 18.7298L1090.31 18.7392L1105.05 33.204C1107.61 35.7103 1109.04 39.138 1109.04 42.716V73.6557V147.311V294.623V598.97C1109.04 606.331 1103.08 612.299 1095.72 612.299H14.0296C6.66869 612.299 0.701483 606.331 0.701483 598.97V14.0297C0.701483 6.66871 6.66871 0.701483 14.0297 0.701483H294.623H962.434H1036.09H1067.03C1070.61 0.701483 1074.04 2.14146 1076.54 4.69716L1090.3 18.7298Z" stroke="url(#paint1_linear_3_2)" stroke-opacity="0.5" stroke-width="1.40297"/>
<defs>
<linearGradient id="paint0_linear_3_2" x1="22.4475" y1="-1.75447e-05" x2="294.623" y2="339.518" gradientUnits="userSpaceOnUse">
<stop stop-color="white"/>
<stop offset="1" stop-color="white" stop-opacity="0"/>
</linearGradient>
<linearGradient id="paint1_linear_3_2" x1="487.53" y1="507.873" x2="187.296" y2="177.475" gradientUnits="userSpaceOnUse">
<stop stop-color="white"/>
<stop offset="1" stop-color="white" stop-opacity="0"/>
</linearGradient>
</defs>
</svg>
