<svg width="69" height="39" viewBox="0 0 69 39" fill="none" xmlns="http://www.w3.org/2000/svg">
<path fill-rule="evenodd" clip-rule="evenodd" d="M27.3392 20.5761L30.3879 20.3248L28.8496 16.2426L27.3392 20.5769V20.5761ZM37.2198 13.7074C37.3196 13.8013 37.4215 13.9255 37.5265 14.0785C37.6306 14.2322 37.7385 14.3926 37.8501 14.5596L41.8246 20.2428V14.176C41.8246 13.7821 41.9096 13.479 42.0788 13.2677C42.0833 13.2625 42.0884 13.2573 42.0929 13.2521L37.1947 13.6853C37.2028 13.6926 37.2117 13.6993 37.2206 13.7074H37.2198ZM37.194 13.686C37.1888 13.6816 37.1851 13.6786 37.1821 13.6757C37.1866 13.6801 37.194 13.686 37.194 13.686ZM25.011 13.1176L26.0912 13.02C26.4333 12.989 26.6639 12.7458 26.6639 12.4162V6.52239C26.6639 6.24669 26.7725 5.97987 26.9801 5.73891C27.1885 5.51052 27.4471 5.38118 27.7493 5.35383L29.202 5.22226C29.4931 5.19566 29.7429 5.28139 29.952 5.48539C30.1626 5.6783 30.2675 5.91778 30.2675 6.19569V12.0895C30.2675 12.4191 30.498 12.6209 30.8409 12.5899L31.9396 12.4901C31.9943 12.4849 32.0468 12.4679 32.0963 12.442C32.4236 12.2676 32.4931 12.0451 32.4931 11.8884V5.99465C32.4931 5.71748 32.6017 5.45065 32.8093 5.21118C33.0177 4.98279 33.2763 4.85344 33.5785 4.82609L35.0305 4.69453C35.3245 4.66792 35.5765 4.75366 35.7996 4.95618C36.0102 5.14909 36.1159 5.38857 36.1159 5.66648V11.5603C36.1159 11.8899 36.3464 12.0917 36.6885 12.0607L37.7681 11.9631C38.1102 11.9321 38.3407 11.6889 38.3407 11.3592V5.46544C38.3407 4.58809 38.0053 3.89479 37.3491 3.40919C36.7144 2.91989 35.9334 2.71515 35.0297 2.79645L33.5778 2.92802C32.7214 3.00562 31.984 3.3131 31.3795 3.84453C30.7781 3.42249 30.0458 3.24732 29.2005 3.32419L27.7478 3.45575C26.8523 3.53706 26.0676 3.88297 25.41 4.48979C24.7738 5.09292 24.4376 5.8653 24.4376 6.72417V12.618C24.4376 12.9484 24.6674 13.1494 25.0095 13.1183L25.011 13.1176ZM54.1502 9.65776C54.7842 10.1448 55.5638 10.3511 56.4689 10.269C57.7221 10.1552 58.6708 9.9475 59.3765 9.63485C59.6203 9.52398 59.7607 9.3185 59.7607 9.07163V8.35985C59.7615 7.89421 59.3735 7.78555 59.0987 7.87868C58.4344 8.09894 57.575 8.25416 56.4697 8.35394C56.1674 8.38129 55.9088 8.29925 55.7005 8.10707C55.4913 7.91416 55.3842 7.67025 55.3842 7.38051V3.93618C55.3842 3.64792 55.4906 3.38332 55.6997 3.15419C55.9096 2.92432 56.1682 2.79497 56.4697 2.76763C57.5736 2.66784 58.4573 2.66784 59.095 2.76689C59.4083 2.81715 59.7615 2.62867 59.7615 2.16672V1.4542C59.7615 1.21989 59.6358 1.04324 59.3935 0.958983C58.693 0.773463 57.7369 0.738724 56.4704 0.853288C55.5667 0.935331 54.7798 1.28937 54.1332 1.90433C53.4971 2.50671 53.1609 3.28058 53.1609 4.13723V7.58155C53.1609 8.45298 53.4941 9.14998 54.1525 9.65628L54.1502 9.65776ZM68.0275 0.630072C67.3921 0.140771 66.6118 -0.0639674 65.7081 0.0173365C64.5761 0.120075 63.7242 0.2679 63.1604 0.46303C62.7584 0.616768 62.7148 0.916853 62.7148 1.03881V1.78311C62.7148 1.92724 62.7533 2.04698 62.8279 2.13715C62.9232 2.25172 63.0658 2.30641 63.2299 2.29089C63.2572 2.28867 63.323 2.27685 63.3496 2.26872C63.7862 2.13567 64.5798 2.01741 65.7089 1.91541C66 1.8888 66.2497 1.97454 66.4596 2.17854C66.6702 2.37145 66.7758 2.61093 66.7758 2.88884V3.3811L64.2569 3.60949C63.3518 3.69153 62.5656 4.0441 61.919 4.65979C61.274 5.27252 60.9467 6.0183 60.9467 6.87717C60.9467 7.73603 61.2799 8.44485 61.9383 8.95189C62.573 9.43824 63.3525 9.6452 64.2577 9.56315L68.448 9.18398C68.7738 9.15442 69.0014 8.90607 69.0014 8.58159V2.68854C69.0014 1.83115 68.6645 1.11937 68.029 0.630811L68.0275 0.630072ZM66.7751 7.42116L64.2554 7.64955C63.9532 7.6769 63.6946 7.59486 63.4863 7.40269C63.2764 7.20977 63.17 6.9666 63.17 6.67613C63.17 6.38565 63.2764 6.13878 63.4863 5.90965C63.6946 5.68126 63.9532 5.55191 64.2554 5.52457L66.7744 5.29618V7.42116H66.7751ZM49.4324 14.1746L48.0676 14.2869V21.2096L49.6341 21.0802C49.9777 21.0521 50.2466 21.0203 50.4417 20.9856C50.6368 20.9509 50.8385 20.888 51.0476 20.7964C51.2567 20.7047 51.4377 20.5857 51.5907 20.4387C52.2823 19.7971 52.6281 18.7623 52.6281 17.3336C52.6281 16.3269 52.4759 15.5856 52.1722 15.1103C51.8685 14.6343 51.4932 14.3468 51.0476 14.2463C50.602 14.1465 50.0641 14.1221 49.4331 14.1746H49.4324ZM20.3914 2.57545L22.198 2.41211C22.5401 2.38106 22.7706 2.13863 22.7706 1.80824V0.980418C22.7706 0.714333 22.5933 0.46229 22.198 0.498508L20.3914 0.661855C19.996 0.697333 19.8194 0.981896 19.8194 1.24724V2.07506C19.8194 2.40545 20.0492 2.6065 20.3914 2.57545ZM39.4528 3.10319C39.5813 3.03297 39.687 2.93689 39.7727 2.82823L41.9576 5.07961L40.6542 5.52087C40.6128 5.39448 40.5382 5.28065 40.4274 5.19566C40.1052 4.94731 39.6205 5.0264 39.3427 5.37305C39.0656 5.7197 39.1011 6.20161 39.4232 6.44995C39.7446 6.69756 40.2308 6.61773 40.5072 6.27182C40.5833 6.17722 40.6343 6.07226 40.6631 5.96361L41.9709 6.57265C41.9709 6.59852 41.9673 6.62365 41.9673 6.64952C41.9673 9.44785 44.2372 11.5115 47.0361 11.258C49.8358 11.0044 52.1057 8.52985 52.1057 5.73152C52.1057 2.93319 49.8358 0.869549 47.0361 1.12307C45.9869 1.21842 45.0115 1.62494 44.2032 2.24506L43.0985 1.48007C43.1798 1.35294 43.233 1.20585 43.2404 1.04916C43.2618 0.596811 42.9138 0.244248 42.4616 0.261987C42.0108 0.281944 41.6266 0.66555 41.6052 1.11863C41.5838 1.57098 41.9318 1.92354 42.3833 1.90359C42.5066 1.89915 42.6241 1.86441 42.7313 1.8112L42.9729 3.32714L39.9863 2.3138C40.0062 2.1475 39.984 1.97824 39.9102 1.82376C39.6951 1.37437 39.1402 1.21916 38.671 1.47637C38.2026 1.73359 37.9971 2.30715 38.2122 2.75654C38.4272 3.20593 38.9828 3.36114 39.4506 3.10319H39.4528ZM48.1622 7.91712C48.5339 7.88312 48.8339 8.15807 48.8339 8.52838C48.8339 8.89868 48.5339 9.22759 48.1622 9.26159C47.7905 9.29559 47.4905 9.02137 47.4905 8.65033C47.4905 8.28003 47.7905 7.95112 48.1622 7.91712ZM45.8243 8.12925C46.196 8.09525 46.4967 8.3702 46.4967 8.74051C46.4967 9.11081 46.196 9.43972 45.8243 9.47372C45.4526 9.50772 45.1527 9.2335 45.1527 8.86246C45.1527 8.49142 45.4526 8.16325 45.8243 8.12999V8.12925ZM50.9693 12.4657C50.9523 12.4657 50.9442 12.465 50.9419 12.465C50.9456 12.465 50.9582 12.465 50.9693 12.4657ZM46.7974 12.805C46.7561 12.8183 46.7162 12.8316 46.6785 12.8471L46.7974 12.8367V12.805ZM50.9863 12.4657C50.9811 12.4657 50.9789 12.4657 50.9752 12.4657C50.9818 12.4657 50.9863 12.4657 50.9863 12.4657ZM64.0648 19.6604C64.0604 19.6707 64.0559 19.6818 64.0508 19.6944C64.0537 19.6877 64.0589 19.6751 64.0648 19.6604ZM62.4222 21.4232C61.8097 21.7521 61.0833 21.9509 60.244 22.0204C59.2368 22.1032 58.4063 21.982 57.7516 21.6553C57.2876 21.4202 56.9108 21.0861 56.6204 20.653C56.33 20.2199 56.1852 19.7882 56.1852 19.3566C56.1852 19.106 56.2724 18.8843 56.446 18.6914C56.6196 18.4984 56.8413 18.3905 57.111 18.3684C57.329 18.3506 57.5137 18.4046 57.6645 18.5317C57.8152 18.6581 57.9438 18.854 58.0509 19.1193C58.1809 19.4334 58.3213 19.6929 58.4721 19.8984C58.6228 20.1038 58.8349 20.2664 59.109 20.3847C59.3824 20.5037 59.7422 20.5443 60.1878 20.5081C60.8003 20.4579 61.2984 20.2738 61.6811 19.9567C62.0639 19.6397 62.2552 19.2679 62.2552 18.8414C62.2552 18.5029 62.1518 18.2368 61.9456 18.0424C61.7387 17.8488 61.472 17.7091 61.1454 17.6248C60.8181 17.5405 60.3807 17.4585 59.8331 17.3779C59.1001 17.2671 58.4861 17.117 57.9918 16.9278C57.4975 16.7393 57.1051 16.4585 56.8155 16.0859C56.5251 15.7134 56.3802 15.2323 56.3802 14.6432C56.3802 14.0541 56.5332 13.5707 56.8398 13.1095C57.1457 12.6483 57.5891 12.2765 58.1691 11.9941C58.3317 11.9151 58.5031 11.8456 58.6812 11.7835L50.9855 12.4642C51.2671 12.4731 51.5279 12.4982 51.7643 12.5404C52.2653 12.629 52.7205 12.8353 53.1283 13.1583C54.1909 13.9794 54.7222 15.318 54.7222 17.1732C54.7222 17.7852 54.6689 18.3491 54.5618 18.8628C54.4547 19.3773 54.2906 19.8466 54.0675 20.2709C53.8443 20.6951 53.5591 21.0817 53.2111 21.4306C52.937 21.6989 52.6377 21.9206 52.3133 22.0965C51.9882 22.2717 51.6395 22.4047 51.2656 22.4956C50.8917 22.5866 50.4705 22.6516 50.0021 22.6908L47.308 22.9132C46.9319 22.9443 46.6489 22.911 46.459 22.8127C46.2684 22.7152 46.1443 22.5651 46.0866 22.3633C46.0282 22.1616 45.9994 21.8962 45.9994 21.5673V14.0881C45.9994 13.6431 46.0992 13.312 46.2987 13.0962C46.3955 12.992 46.5218 12.9084 46.6755 12.8464L43.4436 13.1324C43.451 13.1398 43.4584 13.1457 43.4657 13.1531C43.6372 13.3364 43.7229 13.6247 43.7229 14.0186V22.0411C43.7229 22.9362 43.3519 23.4144 42.6094 23.4757C42.4239 23.4912 42.2569 23.4779 42.1084 23.4373C41.9599 23.3959 41.8202 23.3227 41.6909 23.2178C41.5609 23.1128 41.4404 22.9872 41.3288 22.8408C41.2173 22.6945 41.1057 22.5452 40.9949 22.3914L37.1178 16.7696V22.7462C37.1178 23.1357 37.0277 23.438 36.8467 23.6524C36.6656 23.8667 36.4336 23.9857 36.1506 24.0094C35.858 24.0338 35.6238 23.9517 35.4472 23.7647C35.2706 23.5777 35.1827 23.2917 35.1827 22.9066V15.0371C35.1827 14.703 35.2196 14.4384 35.2942 14.2418C35.3578 14.0866 35.4509 13.9491 35.5743 13.8286L29.8471 14.335C29.9232 14.3978 29.9911 14.4695 30.0495 14.5493C30.1677 14.7112 30.2675 14.8871 30.3488 15.0778C30.4301 15.2685 30.5335 15.5227 30.6584 15.842L33.3243 22.2037C33.5334 22.6878 33.6376 23.0426 33.6376 23.2702C33.6376 23.4979 33.5386 23.7315 33.3421 23.9451C33.1448 24.1587 32.9069 24.2769 32.6283 24.2999C32.4657 24.3132 32.3268 24.2954 32.2108 24.2474C32.0948 24.1986 31.9973 24.1284 31.9182 24.0352C31.8391 23.9421 31.7549 23.7958 31.664 23.5969C31.5731 23.3981 31.4956 23.2222 31.4305 23.0699L30.9436 21.8304L26.7954 22.1726L26.3077 23.5208C26.1171 24.0471 25.9553 24.4048 25.8208 24.594C25.6863 24.7832 25.4661 24.8912 25.1595 24.9163C24.8994 24.9377 24.6696 24.8616 24.4701 24.6879C24.2706 24.5142 24.1708 24.3065 24.1708 24.0655C24.1708 23.9266 24.1937 23.781 24.2403 23.628C24.2868 23.4757 24.3629 23.2629 24.4701 22.9901L27.0806 16.151C27.1545 15.9551 27.2439 15.7186 27.3488 15.4436C27.453 15.1687 27.5646 14.9373 27.6828 14.7518C27.7382 14.6646 27.8025 14.584 27.8749 14.5094L21.1783 15.1014C21.2352 15.1184 21.2906 15.1362 21.3453 15.1561C21.6652 15.264 21.9482 15.4333 22.1943 15.6632C22.4403 15.893 22.6273 16.1695 22.7544 16.4902C22.8822 16.8118 22.9457 17.1577 22.9457 17.5287C22.9457 18.2893 22.7307 18.9146 22.3022 19.4046C21.8729 19.8947 21.2219 20.2709 20.35 20.5333C20.7165 20.6981 21.0667 20.9568 21.4014 21.3093C21.7354 21.6619 22.0339 22.0426 22.2962 22.4498C22.5586 22.8571 22.7625 23.2281 22.9088 23.5615C23.0551 23.8948 23.1282 24.1269 23.1282 24.2562C23.1282 24.3856 23.0854 24.5275 22.9997 24.6672C22.914 24.8062 22.7965 24.9207 22.648 25.0094C22.4994 25.0981 22.328 25.1506 22.1329 25.1668C21.9009 25.1861 21.7059 25.1476 21.5485 25.0515C21.3904 24.9555 21.2551 24.8283 21.1413 24.6709C21.0275 24.5135 20.8731 24.2799 20.6781 23.9717L19.8497 22.6627C19.5527 22.1815 19.2874 21.8186 19.0525 21.574C18.8182 21.3286 18.5803 21.1674 18.3387 21.0898C18.0971 21.0122 17.7934 20.9886 17.4269 21.0189L16.7028 21.0787V24.356C16.7028 24.7877 16.6074 25.1129 16.4176 25.3324C16.2269 25.5519 15.9794 25.6746 15.6727 25.6998C15.3432 25.7271 15.0883 25.6414 14.9072 25.4425C14.7262 25.2445 14.6361 24.9385 14.6361 24.526V16.678C14.6361 16.233 14.7358 15.9019 14.9353 15.6861C14.9464 15.6735 14.9597 15.6632 14.9715 15.6513L10.8861 16.0128C10.9844 16.0482 11.079 16.0889 11.1691 16.1362C11.41 16.2604 11.6236 16.4245 11.8098 16.6292C11.9952 16.8339 12.1371 17.066 12.2346 17.3247C12.3322 17.5834 12.3809 17.8613 12.3809 18.1577C12.3809 19.1784 11.8704 19.9671 10.8492 20.5244C12.1903 20.8407 12.8612 21.6153 12.8612 22.8489C12.8612 23.4196 12.7149 23.9451 12.4231 24.4262C12.1305 24.9074 11.7366 25.2777 11.2401 25.5364C10.929 25.6924 10.5721 25.8128 10.1679 25.9001C9.76449 25.9865 9.29307 26.0523 8.75515 26.0967L5.63699 26.3539C5.187 26.3908 4.86558 26.3169 4.67273 26.1307C4.65426 26.1129 4.63652 26.093 4.62027 26.073V26.4766C4.62027 26.4766 4.65869 26.5512 4.73406 26.5704C7.29139 27.2408 52.1626 38.9996 52.1626 38.9996L64.0493 20.2738V19.6995C63.9843 19.8547 63.9089 20.0063 63.8188 20.1534C63.501 20.6715 63.0355 21.0943 62.423 21.4232H62.4222ZM10.8861 16.0128C10.8817 16.0113 10.8795 16.0105 10.8758 16.0091C10.8817 16.0113 10.8861 16.0128 10.8861 16.0128ZM21.844 3.99014L20.7453 4.08992C20.35 4.1254 20.1726 4.4107 20.1726 4.67679V13.0038C20.1726 13.3334 20.4032 13.5352 20.7453 13.5042L21.844 13.4044C22.1854 13.3733 22.4159 13.1302 22.4159 12.8005V4.47353C22.4159 4.20744 22.2393 3.95392 21.844 3.99014ZM63.9503 13.57C63.8513 13.57 63.8476 13.6409 63.8476 13.6409C63.8476 13.6498 63.8483 13.6579 63.8483 13.6668C63.8483 13.9129 63.7611 14.1413 63.5875 14.3527C63.4138 14.5641 63.1966 14.6809 62.9365 14.7023C62.7001 14.7215 62.5198 14.6772 62.3971 14.5693C62.2745 14.4613 62.1407 14.2788 61.9966 14.0216C61.8112 13.652 61.588 13.3697 61.3287 13.176C61.0686 12.9816 60.6511 12.9084 60.0755 12.9557C59.542 13.0001 59.1112 13.1523 58.7846 13.414C58.4573 13.6757 58.294 13.9706 58.294 14.3002C58.294 14.5042 58.3494 14.6757 58.461 14.8154C58.5726 14.9543 58.7255 15.0696 58.9206 15.1598C59.1157 15.2507 59.3129 15.318 59.5124 15.3616C59.7119 15.4052 60.0415 15.4666 60.5011 15.5442C61.0767 15.6314 61.5976 15.7363 62.0639 15.8605C62.5301 15.9847 62.9269 16.1488 63.2542 16.3535C63.5816 16.5582 63.8365 16.831 64.0197 17.1702C64.0301 17.1895 64.0389 17.2094 64.0486 17.2294V13.6417C64.0486 13.6417 64.036 13.5707 63.951 13.5707L63.9503 13.57ZM8.05541 14.1006V8.20686C8.05541 7.34947 7.71921 6.63769 7.08228 6.14913C6.44683 5.66057 5.66655 5.45509 4.76287 5.53639C3.63088 5.63913 2.77893 5.78696 2.21441 5.98209C1.81244 6.13582 1.76959 6.43591 1.76959 6.55787V7.30217C1.76959 7.44629 1.80801 7.56603 1.8819 7.65621C1.97722 7.77077 2.11983 7.82547 2.28386 7.80995C2.31046 7.80773 2.37696 7.7959 2.40283 7.78777C2.84025 7.65473 3.63309 7.53647 4.76213 7.43447C5.05252 7.40786 5.30301 7.4936 5.51286 7.6976C5.72271 7.89051 5.82837 8.12999 5.82837 8.4079V8.90016L3.30946 9.12855C2.4043 9.21059 1.61811 9.56315 0.971575 10.1781C0.325777 10.7908 -0.0015564 11.5366 -0.0015564 12.3955C-0.0015564 13.2543 0.332427 13.9639 0.990048 14.4702C1.62402 14.9566 2.4043 15.1635 3.30872 15.0815L7.49902 14.7023C7.82562 14.6727 8.0532 14.4244 8.0532 14.0999L8.05541 14.1006ZM5.82985 12.9402L3.31093 13.1686C3.00872 13.196 2.75011 13.1139 2.54174 12.9217C2.33115 12.7288 2.22549 12.4857 2.22549 12.1952C2.22549 11.9047 2.33115 11.6578 2.54174 11.4287C2.75011 11.2003 3.00872 11.071 3.31093 11.0436L5.82985 10.8152V12.9402ZM16.7035 19.5961L18.5552 19.4431C19.0517 19.4024 19.4692 19.3248 19.8084 19.211C20.1468 19.0971 20.4061 18.9301 20.5842 18.7084C20.763 18.4874 20.8524 18.1954 20.8524 17.834C20.8524 17.5509 20.78 17.3077 20.6367 17.1037C20.4926 16.8997 20.2931 16.7556 20.0382 16.6699C19.7965 16.5878 19.3214 16.576 18.6113 16.6344L16.7042 16.7918V19.5961H16.7035ZM10.6689 14.4163L11.7492 14.3187C12.0913 14.2876 12.3211 14.0445 12.3211 13.7148V7.82103C12.3211 7.54534 12.4297 7.27851 12.6373 7.03756C12.8457 6.80917 13.1043 6.67982 13.4065 6.65247L14.8599 6.52091C15.1511 6.4943 15.4001 6.58004 15.6099 6.78404C15.8198 6.97695 15.9262 7.21643 15.9262 7.49434V13.3881C15.9262 13.7178 16.1567 13.9196 16.4988 13.8885L17.5983 13.7887C17.9242 13.7592 18.1518 13.5108 18.1518 13.1863V7.29256C18.1518 6.41521 17.8163 5.72191 17.1601 5.23631C16.5254 4.74701 15.7518 4.54153 14.8599 4.62209L13.4065 4.75366C12.5117 4.83496 11.7263 5.18087 11.0694 5.7877C10.4332 6.39082 10.097 7.16321 10.097 8.02207V13.9159C10.097 14.2455 10.3275 14.4473 10.6696 14.4163H10.6689ZM10.2233 21.7942C9.86129 21.5924 9.32041 21.5207 8.60146 21.5799L6.45052 21.7573V24.7352L8.67092 24.5519C10.0674 24.4366 10.7664 23.8756 10.7664 22.8689C10.7664 22.3545 10.5854 21.996 10.2233 21.7935V21.7942ZM6.45052 20.276L8.34359 20.1201C8.8586 20.0772 9.25613 19.9959 9.53765 19.8754C9.81843 19.755 10.0327 19.5517 10.1812 19.2657C10.2972 19.0609 10.3549 18.8384 10.3549 18.5975C10.3549 18.0823 10.1716 17.7556 9.80513 17.6167C9.43864 17.4777 8.87929 17.4393 8.12783 17.5014L6.45052 17.6396V20.2768V20.276Z" fill="white"/>
</svg>
