<svg width="109" height="23" viewBox="0 0 109 23" fill="none" xmlns="http://www.w3.org/2000/svg">
<g clip-path="url(#clip0_1_82)">
<path fill-rule="evenodd" clip-rule="evenodd" d="M10.2299 22.7168C7.2597 22.7146 4.86659 21.9441 3.19565 20.5613C1.50356 19.1609 0.60614 17.1758 0.60614 14.9279C0.60614 12.6801 1.50154 11.2006 2.51478 10.1453C3.30846 9.31764 4.18472 8.78893 4.79508 8.48336C4.6571 8.02609 4.48487 7.42703 4.33076 6.80819C4.12429 5.9805 3.92285 5.00881 3.92285 4.29763C3.92285 3.45565 4.09307 2.60928 4.55134 1.95196C5.0358 1.25727 5.76502 0.885742 6.64229 0.885742C7.32819 0.885742 7.90934 1.16054 8.36561 1.63429C8.80072 2.08716 9.09079 2.68842 9.29122 3.31606C9.64274 4.41745 9.77971 5.80243 9.81799 7.18411H10.658C10.6963 5.80243 10.8332 4.41855 11.1848 3.31606C11.3852 2.68952 11.6743 2.08716 12.1104 1.63429C12.5656 1.16054 13.1478 0.885742 13.8337 0.885742C14.711 0.885742 15.4402 1.25727 15.9246 1.95196C16.3829 2.60928 16.5531 3.45565 16.5531 4.29763C16.5531 5.00881 16.3507 5.9805 16.1452 6.80819C15.9911 7.42703 15.8189 8.02609 15.6809 8.48336C16.2913 8.78783 17.1675 9.31764 17.9612 10.1453C18.9744 11.2006 19.8698 12.7625 19.8698 14.9279C19.8698 17.0933 18.9724 19.162 17.2803 20.5613C15.6084 21.9441 13.2163 22.7146 10.246 22.7168H10.2309H10.2299Z" fill="#633001"/>
<path d="M6.64201 1.68585C5.35783 1.68585 4.76559 2.73228 4.76559 4.17771C4.76559 5.32747 5.4525 7.63028 5.73452 8.52612C5.79797 8.72727 5.69826 8.94821 5.51696 9.02735C4.4876 9.47033 1.44888 11.0927 1.44888 14.808C1.44888 18.7211 4.53696 21.6725 10.2307 21.6769C10.2327 21.6769 10.2357 21.6769 10.2377 21.6769C10.2397 21.6769 10.2417 21.6769 10.2448 21.6769C15.9385 21.6725 19.0265 18.7211 19.0265 14.808C19.0265 10.8949 15.9878 9.47033 14.9585 9.02735C14.7772 8.94931 14.6774 8.72837 14.7409 8.52612C15.0229 7.63028 15.7098 5.32747 15.7098 4.17771C15.7098 2.73118 15.1186 1.68585 13.8334 1.68585C11.9842 1.68585 11.5229 4.54484 11.4907 7.61269C11.4886 7.81714 11.3366 7.98422 11.1492 7.98422H9.3272C9.13986 7.98422 8.98777 7.81824 8.98576 7.61269C8.95252 4.54484 8.49223 1.68585 6.64301 1.68585H6.64201Z" fill="#D1884F"/>
<path d="M10.2438 20.4242C6.05984 20.4242 1.45593 17.9796 1.44888 14.8161C1.44888 14.8205 1.44888 14.826 1.44888 14.8304C1.44888 18.7468 4.54199 21.6992 10.2448 21.6992C15.9475 21.6992 19.0396 18.7468 19.0396 14.8304V14.8161C19.0326 17.9796 14.4277 20.4242 10.2448 20.4242H10.2438Z" fill="#FEDC90"/>
<path d="M7.91999 13.8447C7.91999 14.9132 7.45769 15.4693 6.8866 15.4693C6.31552 15.4693 5.85322 14.9132 5.85322 13.8447C5.85322 12.7763 6.31552 12.2201 6.8866 12.2201C7.45769 12.2201 7.91999 12.7763 7.91999 13.8447Z" fill="#633001"/>
<path d="M14.6356 13.8447C14.6356 14.9132 14.1733 15.4693 13.6022 15.4693C13.0311 15.4693 12.5688 14.9132 12.5688 13.8447C12.5688 12.7763 13.0311 12.2201 13.6022 12.2201C14.1733 12.2201 14.6356 12.7763 14.6356 13.8447Z" fill="#633001"/>
</g>
<path d="M32.5204 18.3003V4.42814H38.7437C39.7584 4.42814 40.6254 4.60154 41.3447 4.94834C42.0768 5.29515 42.6356 5.78324 43.0209 6.41263C43.4191 7.04201 43.6182 7.787 43.6182 8.64758C43.6182 9.49533 43.4191 10.2403 43.0209 10.8825C42.6227 11.5248 42.064 12.0257 41.3447 12.3854C40.6254 12.7322 39.7584 12.9056 38.7437 12.9056H34.4664V10.9403H38.628C39.4244 10.9403 40.0345 10.7348 40.4584 10.3238C40.8951 9.91278 41.1135 9.35404 41.1135 8.64758C41.1135 7.95398 40.8951 7.40808 40.4584 7.0099C40.0345 6.61172 39.4244 6.41263 38.628 6.41263H35.0251V18.3003H32.5204ZM50.9924 18.3003C50.9282 18.0434 50.8768 17.7608 50.8383 17.4526C50.8126 17.1443 50.7998 16.7718 50.7998 16.3351H50.7227V11.6725C50.7227 11.1587 50.575 10.7734 50.2795 10.5165C49.997 10.2467 49.5602 10.1119 48.9694 10.1119C48.3914 10.1119 47.929 10.221 47.5822 10.4394C47.2482 10.6449 47.0427 10.9468 46.9656 11.3449H44.6343C44.7371 10.433 45.1738 9.69442 45.9445 9.12926C46.7152 8.56409 47.7492 8.28151 49.0465 8.28151C50.3951 8.28151 51.4163 8.58978 52.1099 9.20632C52.8035 9.81002 53.1503 10.7027 53.1503 11.8844V16.3351C53.1503 16.6433 53.1696 16.958 53.2081 17.2791C53.2595 17.6003 53.3301 17.9406 53.42 18.3003H50.9924ZM47.5822 18.493C46.5931 18.493 45.8032 18.2489 45.2124 17.7608C44.6343 17.2599 44.3453 16.592 44.3453 15.7571C44.3453 14.8579 44.6729 14.1451 45.328 13.6184C45.983 13.0918 46.9078 12.7386 48.1024 12.5588L51.1658 12.0964V13.6377L48.507 14.0423C47.929 14.1322 47.4923 14.2928 47.1968 14.524C46.9143 14.7552 46.773 15.0763 46.773 15.4873C46.773 15.8598 46.9078 16.1488 47.1776 16.3543C47.4473 16.547 47.8198 16.6433 48.2951 16.6433C48.9887 16.6433 49.5667 16.4699 50.0291 16.1231C50.4915 15.7763 50.7227 15.3525 50.7227 14.8515L50.9924 16.3351C50.7355 17.0415 50.3117 17.581 49.7208 17.9535C49.1428 18.3131 48.4299 18.493 47.5822 18.493ZM55.6091 18.3003V8.47418H57.9789V10.7862H58.0367V18.3003H55.6091ZM62.5066 18.3003V12.0964C62.5066 11.4927 62.3525 11.0367 62.0442 10.7284C61.736 10.4201 61.2864 10.266 60.6956 10.266C60.1818 10.266 59.7194 10.3816 59.3083 10.6128C58.9102 10.844 58.5955 11.1651 58.3643 11.5762C58.1459 11.9872 58.0367 12.4624 58.0367 13.0019L57.7863 10.6513C58.1202 9.93204 58.6083 9.36046 59.2505 8.93659C59.8928 8.49987 60.6634 8.28151 61.5626 8.28151C62.6287 8.28151 63.4571 8.58336 64.048 9.18706C64.6517 9.79075 64.9535 10.5935 64.9535 11.5954V18.3003H62.5066ZM71.6643 18.493C70.6752 18.493 69.8018 18.2746 69.044 17.8379C68.299 17.4012 67.7081 16.7975 67.2714 16.0268C66.8476 15.2433 66.6356 14.357 66.6356 13.368C66.6356 12.3789 66.8476 11.5055 67.2714 10.7477C67.7081 9.977 68.299 9.3733 69.044 8.93659C69.8018 8.49987 70.6752 8.28151 71.6643 8.28151C72.4735 8.28151 73.2056 8.43565 73.8607 8.74392C74.5158 9.03934 75.0553 9.46322 75.4791 10.0155C75.903 10.555 76.1727 11.1844 76.2883 11.9037H73.957C73.8157 11.3771 73.546 10.966 73.1478 10.6706C72.7496 10.3752 72.268 10.2275 71.7028 10.2275C71.1762 10.2275 70.7202 10.3559 70.3349 10.6128C69.9624 10.8697 69.6734 11.2358 69.4679 11.711C69.2623 12.1863 69.1596 12.7386 69.1596 13.368C69.1596 14.0102 69.2623 14.5689 69.4679 15.0442C69.6734 15.5194 69.9688 15.8919 70.3541 16.1617C70.7395 16.4186 71.189 16.547 71.7028 16.547C72.268 16.547 72.7496 16.3993 73.1478 16.1039C73.546 15.8084 73.8157 15.3974 73.957 14.8708H76.2883C76.1727 15.5901 75.8966 16.2259 75.4599 16.7782C75.036 17.3177 74.4965 17.7416 73.8414 18.0498C73.1992 18.3452 72.4735 18.493 71.6643 18.493ZM84.0321 18.3003C83.9679 18.0434 83.9165 17.7608 83.878 17.4526C83.8523 17.1443 83.8394 16.7718 83.8394 16.3351H83.7624V11.6725C83.7624 11.1587 83.6147 10.7734 83.3192 10.5165C83.0367 10.2467 82.5999 10.1119 82.0091 10.1119C81.4311 10.1119 80.9687 10.221 80.6219 10.4394C80.2879 10.6449 80.0824 10.9468 80.0053 11.3449H77.674C77.7768 10.433 78.2135 9.69442 78.9842 9.12926C79.7549 8.56409 80.7889 8.28151 82.0862 8.28151C83.4348 8.28151 84.456 8.58978 85.1496 9.20632C85.8432 9.81002 86.19 10.7027 86.19 11.8844V16.3351C86.19 16.6433 86.2093 16.958 86.2478 17.2791C86.2992 17.6003 86.3698 17.9406 86.4597 18.3003H84.0321ZM80.6219 18.493C79.6328 18.493 78.8429 18.2489 78.252 17.7608C77.674 17.2599 77.385 16.592 77.385 15.7571C77.385 14.8579 77.7126 14.1451 78.3676 13.6184C79.0227 13.0918 79.9475 12.7386 81.1421 12.5588L84.2055 12.0964V13.6377L81.5467 14.0423C80.9687 14.1322 80.532 14.2928 80.2365 14.524C79.954 14.7552 79.8127 15.0763 79.8127 15.4873C79.8127 15.8598 79.9475 16.1488 80.2173 16.3543C80.487 16.547 80.8595 16.6433 81.3347 16.6433C82.0284 16.6433 82.6064 16.4699 83.0688 16.1231C83.5312 15.7763 83.7624 15.3525 83.7624 14.8515L84.0321 16.3351C83.7752 17.0415 83.3513 17.581 82.7605 17.9535C82.1825 18.3131 81.4696 18.493 80.6219 18.493ZM88.6488 18.3003V4.29327H91.0764V18.3003H88.6488ZM94.9876 18.3003L90.5177 13.1946L94.8527 8.47418H97.7813L92.7719 13.6377L92.9068 12.7322L97.974 18.3003H94.9876ZM103.127 18.493C102.087 18.493 101.175 18.2746 100.391 17.8379C99.6205 17.4012 99.0168 16.7975 98.5801 16.0268C98.1562 15.2561 97.9443 14.3698 97.9443 13.368C97.9443 12.3661 98.1562 11.4862 98.5801 10.7284C99.0168 9.95773 99.6205 9.36046 100.391 8.93659C101.162 8.49987 102.061 8.28151 103.089 8.28151C104.065 8.28151 104.912 8.48703 105.632 8.89805C106.351 9.29624 106.91 9.8614 107.308 10.5935C107.706 11.3257 107.905 12.1798 107.905 13.156C107.905 13.3359 107.899 13.5028 107.886 13.657C107.873 13.8111 107.854 13.9652 107.828 14.1194H99.4471V12.4239H105.959L105.458 12.8863C105.458 11.9615 105.246 11.2679 104.823 10.8055C104.399 10.3431 103.808 10.1119 103.05 10.1119C102.228 10.1119 101.573 10.3944 101.085 10.9596C100.61 11.5248 100.372 12.3404 100.372 13.4065C100.372 14.4598 100.61 15.269 101.085 15.8341C101.573 16.3864 102.26 16.6626 103.146 16.6626C103.66 16.6626 104.11 16.5663 104.495 16.3736C104.88 16.1809 105.163 15.8855 105.343 15.4873H107.636C107.314 16.4121 106.769 17.1443 105.998 17.6838C105.24 18.2232 104.283 18.493 103.127 18.493Z" fill="white"/>
<defs>
<clipPath id="clip0_1_82">
<rect width="19.2627" height="21.8311" fill="white" transform="translate(0.60614 0.884766)"/>
</clipPath>
</defs>
</svg>
