<svg width="58" height="23" viewBox="0 0 58 23" fill="none" xmlns="http://www.w3.org/2000/svg">
<mask id="mask0_3684_91948" style="mask-type:luminance" maskUnits="userSpaceOnUse" x="0" y="0" width="58" height="23">
<path d="M58 0.382812H0V22.5283H58V0.382812Z" fill="white"/>
</mask>
<g mask="url(#mask0_3684_91948)">
<path d="M9.62047 7.21402C9.68697 3.96202 7.82214 1.12827 6.85083 0.447219C6.84641 0.442834 6.75991 0.396852 6.76654 0.523867C6.76654 0.526049 6.76433 0.526049 6.76433 0.528241C6.66457 6.67096 3.46694 8.32653 1.7307 10.5777C-2.12768 15.5838 1.09204 21.2951 5.26307 22.3769C5.3341 22.3945 5.52699 22.4514 5.89289 22.5258C6.08357 22.5653 6.13903 22.4054 5.99928 22.1667C5.50037 21.3104 4.61336 19.8651 4.43825 18.008C4.0391 13.6961 9.5428 10.9982 9.62047 7.21402Z" fill="white"/>
<path d="M11.7223 9.2987C11.6891 9.27459 11.6425 9.27677 11.6381 9.31834C11.5494 10.1002 10.7311 11.7207 9.65342 13.2361C6.0256 18.3452 7.85288 20.662 9.27206 22.2695C9.53366 22.5673 9.66447 22.5016 9.80201 22.2892C9.9306 22.0878 10.1257 21.8315 10.964 21.4395C11.0948 21.3782 14.2614 19.7183 14.6051 15.9385C14.9355 12.2814 12.5605 9.96874 11.7223 9.2987Z" fill="#008CD6"/>
<path d="M30.5596 8.36719V21.811H27.6392V16.3801H22.0268V21.811H19.0332V8.36719H22.0268V13.7982H27.6392V8.36719H30.5596Z" fill="white"/>
<path d="M44.0618 8.36719V11.0257H42.6715H39.8686V21.8088H36.864V11.0257H34.1364H32.7461V8.36719H44.0618Z" fill="white"/>
<path fill-rule="evenodd" clip-rule="evenodd" d="M54.6967 21.8242L51.264 17.1465L47.858 21.8045L44.5273 21.8088L49.5765 14.9457L44.8112 8.36719H48.1396L58.0117 21.8242H54.6967Z" fill="white"/>
<path d="M52.1973 11.3744L53.8449 13.6344L57.7477 8.36328H54.437L52.1973 11.3744Z" fill="#008CD6"/>
</g>
</svg>
