<svg width="501" height="389" viewBox="0 0 501 389" fill="none" xmlns="http://www.w3.org/2000/svg">
<g filter="url(#filter0_b_2_25)">
<path d="M0.5 6.72501C0.5 3.0109 3.51088 0 7.225 0H256H387H435.5H468.25H474.968C476.939 0 478.811 0.864773 480.089 2.36568L499.396 25.0447C500.431 26.2611 501 27.8065 501 29.404V35.125V70.25V140.5V381.775C501 385.489 497.989 388.5 494.275 388.5H7.225C3.51088 388.5 0.5 385.489 0.5 381.775L0.5 6.72501Z" fill="black" fill-opacity="0.5"/>
<path d="M494.275 387.973H7.225C3.80182 387.973 1.02679 385.198 1.02679 381.775V6.72501C1.02679 3.30184 3.80182 0.526792 7.225 0.526792H256H387H435.5H468.25H474.968C476.785 0.526792 478.51 1.32382 479.688 2.70716L498.995 25.3862C499.949 26.5073 500.473 27.9316 500.473 29.404V35.125V70.25V140.5V381.775C500.473 385.198 497.698 387.973 494.275 387.973Z" stroke="url(#paint0_linear_2_25)" stroke-opacity="0.24" stroke-width="1.05358"/>
<path d="M494.275 387.973H7.225C3.80182 387.973 1.02679 385.198 1.02679 381.775V6.72501C1.02679 3.30184 3.80182 0.526792 7.225 0.526792H256H387H435.5H468.25H474.968C476.785 0.526792 478.51 1.32382 479.688 2.70716L498.995 25.3862C499.949 26.5073 500.473 27.9316 500.473 29.404V35.125V70.25V140.5V381.775C500.473 385.198 497.698 387.973 494.275 387.973Z" stroke="url(#paint1_linear_2_25)" stroke-opacity="0.24" stroke-width="1.05358"/>
</g>
<defs>
<filter id="filter0_b_2_25" x="-43.5" y="-44" width="588.5" height="476.5" filterUnits="userSpaceOnUse" color-interpolation-filters="sRGB">
<feFlood flood-opacity="0" result="BackgroundImageFix"/>
<feGaussianBlur in="BackgroundImageFix" stdDeviation="22"/>
<feComposite in2="SourceAlpha" operator="in" result="effect1_backgroundBlur_2_25"/>
<feBlend mode="normal" in="SourceGraphic" in2="effect1_backgroundBlur_2_25" result="shape"/>
</filter>
<linearGradient id="paint0_linear_2_25" x1="10.9208" y1="115.913" x2="203.603" y2="117.948" gradientUnits="userSpaceOnUse">
<stop stop-color="white"/>
<stop offset="1" stop-color="white" stop-opacity="0"/>
</linearGradient>
<linearGradient id="paint1_linear_2_25" x1="518" y1="165.087" x2="234.147" y2="158.98" gradientUnits="userSpaceOnUse">
<stop stop-color="white"/>
<stop offset="1" stop-color="white" stop-opacity="0"/>
</linearGradient>
</defs>
</svg>
