<svg width="90" height="16" viewBox="0 0 90 16" fill="none" xmlns="http://www.w3.org/2000/svg">
<path d="M24.771 11.4326L19.3596 2.04868C18.173 0.0939429 15.2839 0.0710129 14.1375 2.12894L8.46241 11.8854C7.40192 13.6739 8.71463 15.921 10.8356 15.921H22.2143C24.3525 15.921 25.9576 13.6166 24.771 11.4326Z" fill="#3156AA"/>
<path d="M16.9694 12.1633L16.6368 11.5786C16.3273 11.0398 15.6395 9.87037 15.6395 9.87037L11.0593 1.92529C9.87842 0.159721 7.06953 0.0106791 5.88292 2.24058L0.557551 11.4525C-0.543064 13.3901 0.763919 15.9066 3.16005 15.9238H14.4757H19.3024H22.1743C19.2394 15.9467 18.2993 14.4276 16.9694 12.1633Z" fill="#1972E2"/>
<path d="M16.9692 12.1659L16.6367 11.5812C16.3272 11.0424 15.6393 9.873 15.6393 9.873L12.6527 4.69092L8.43941 11.9137C7.37892 13.7022 8.69163 15.9493 10.8126 15.9493H14.4527H19.2794H22.1685C19.2163 15.9264 18.2991 14.4302 16.9692 12.1659Z" fill="url(#paint0_linear_1_13)"/>
<path d="M52.0935 14.5066V2.04238H62.4522V2.83054C62.4522 3.45544 61.9513 3.95649 61.3261 3.95649H54.6774V7.30619H61.3261V9.2203H54.6774V12.57H61.3261C61.9453 12.57 62.4522 13.0711 62.4522 13.696V14.4841L52.0935 14.5066Z" fill="white"/>
<path d="M77.3313 2.04238H74.8936C74.4376 2.04238 74.0324 2.23379 73.7452 2.59409L70.8006 6.30409L67.8565 2.62224C67.5693 2.26193 67.1641 2.07052 66.7081 2.07052H64.2704L69.2245 8.29141L64.2704 14.5122H66.7081C67.1641 14.5122 67.5693 14.3209 67.8565 13.9605L70.8006 10.2787L73.7679 13.9887C74.0546 14.3209 74.4602 14.5404 74.9162 14.5404H77.354L72.3999 8.31953L77.3313 2.04238Z" fill="white"/>
<path d="M43.9812 13.1903L47.3759 7.25651V14.4795H49.96V2.02085H48.3555C47.8545 2.02085 47.3759 2.28544 47.1339 2.74146L43.0692 10.1558L39.0045 2.73582C38.7624 2.27982 38.2839 2.01522 37.7829 2.01522H36.184V14.4795H38.7681V7.25651L42.1628 13.1903H43.9812Z" fill="white"/>
<path d="M84.0806 14.6533C80.4945 14.6983 77.5726 11.8779 77.5504 8.29169C77.5504 6.32694 78.147 4.69993 79.2731 3.57961C80.3988 2.47618 82.0258 1.87943 83.9626 1.87943C86.2371 1.87943 88.0274 2.6676 89.3219 4.19888L88.5111 4.89135C88.0103 5.31919 87.2671 5.34736 86.7153 4.94199C85.9948 4.39029 85.0883 4.1257 84.0584 4.1257C81.5249 4.1257 80.0158 5.65699 80.0158 8.24105C80.0158 10.8476 81.5698 12.4521 84.0584 12.4521C85.111 12.4521 85.9948 12.165 86.7153 11.6414C87.2444 11.2361 87.9821 11.2586 88.5111 11.6921L89.3219 12.3845C88.0274 13.8877 86.3046 14.6533 84.0806 14.6533Z" fill="white"/>
<defs>
<linearGradient id="paint0_linear_1_13" x1="7.19941" y1="8.64717" x2="19.5255" y2="13.4864" gradientUnits="userSpaceOnUse">
<stop stop-color="#264CA2" stop-opacity="0"/>
<stop offset="1" stop-color="#234588"/>
</linearGradient>
</defs>
</svg>
